<?xml version="1.0" encoding="utf-8"?>
<!-- Generator: Adobe Illustrator 19.0.0, SVG Export Plug-In . SVG Version: 6.00 Build 0)  -->
<svg version="1.1" xmlns="http://www.w3.org/2000/svg" xmlns:xlink="http://www.w3.org/1999/xlink" x="0px" y="0px"
	 viewBox="0 0 2000 1200" style="enable-background:new 0 0 2000 1200;" xml:space="preserve">
<style type="text/css">
	.st0{fill:url(#XMLID_131_);}
	.st1{display:none;}
	.st2{fill:none;stroke:#4D566A;stroke-width:9;stroke-linecap:round;stroke-linejoin:round;stroke-miterlimit:10;}
	.st3{fill:none;stroke:#000000;stroke-linejoin:round;stroke-miterlimit:10;}
	.st4{fill:none;stroke:#4D566A;stroke-width:6;stroke-linecap:round;stroke-linejoin:round;stroke-miterlimit:10;}
	.st5{fill:none;}
	.st6{fill:none;stroke:#4D566A;stroke-width:5;stroke-linecap:round;stroke-linejoin:round;stroke-miterlimit:10;}
	.st7{fill:#D8DEE9;}
	.st8{fill:#4D566A;}
	.st9{fill:none;stroke:#4D566A;stroke-width:6;stroke-miterlimit:10;}
	.st10{fill:#2E3440;}
</style>
<g id="Ebene_2">
	<radialGradient id="XMLID_131_" cx="1000" cy="600" r="824.6212" gradientUnits="userSpaceOnUse">
		<stop  offset="0" style="stop-color:#434C5E"/>
		<stop  offset="1" style="stop-color:#2E3440"/>
	</radialGradient>
	<rect id="XMLID_34_" class="st0" width="2000" height="1200"/>
</g>
<g id="Ebene_3" class="st1">
</g>
<g id="Ebene_5">
	<line id="XMLID_79_" class="st2" x1="0" y1="977.8" x2="383.4" y2="977.8"/>
	<line id="XMLID_27_" class="st2" x1="1616.1" y1="977.8" x2="2000" y2="977.8"/>
	<g id="haus">
		<polyline id="XMLID_86_" class="st2" points="1616.1,535.9 1616.1,1205.9 383.9,1205.9 383.9,535.9 		"/>
		<polyline id="XMLID_87_" class="st2" points="383.4,535.9 330.3,535.9 1000,330 		"/>
		<polyline id="XMLID_28_" class="st2" points="1616.6,535.9 1669.7,535.9 1000,330 		"/>
	</g>
</g>
<g id="Ebene_1">
	<rect id="egbad" x="395.2" y="742.6" class="st3" width="242.1" height="229.5"/>
	<rect id="egwohnzimmer" x="637.3" y="742.6" class="st3" width="242.1" height="229.5"/>
	<rect id="egkuche" x="879.4" y="742.6" class="st3" width="242.1" height="229.5"/>
	<rect id="egflur" x="1121.5" y="742.6" class="st3" width="242.1" height="229.5"/>
	<rect id="egburo" x="1363.6" y="742.6" class="st3" width="242.1" height="229.5"/>
	<rect id="ogbad" x="395.2" y="535.3" class="st3" width="302.6" height="207.3"/>
	<rect id="ogschlafzimmer" x="698.3" y="535" class="st3" width="302.6" height="207.3"/>
	<rect id="ogkind1" x="1000.5" y="535.3" class="st3" width="302.6" height="207.3"/>
	<rect id="ogkind2" x="1303.1" y="535.3" class="st3" width="302.6" height="207.3"/>
	<rect id="heizung" x="395.2" y="972.5" class="st3" width="242" height="230"/>
	<rect id="batterie" x="637.2" y="972.5" class="st3" width="242" height="230"/>
	<rect id="luftung" x="879.2" y="972.1" class="st3" width="242" height="230"/>
	<rect id="ugburo" x="1121.3" y="972.1" class="st3" width="242" height="230"/>
	<rect id="ughobby" x="1363.3" y="972.1" class="st3" width="242" height="230"/>
	<g id="XMLID_41_">
		<polygon id="XMLID_76_" class="st4" points="159.5,978.1 159.5,897.1 146.4,897.1 146.4,885.5 298.5,885.5 298.5,897.1 
			285.4,897.1 285.4,978.1 		"/>
		<rect id="XMLID_78_" x="168" y="897.1" class="st4" width="108.2" height="81"/>
	</g>
	<g id="gewachshausShape">
		<polygon id="XMLID_81_" class="st4" points="1784.4,978.1 1784.4,857.7 1774.4,857.7 1880.4,784.3 1982.5,857.7 1976.5,857.7 
			1976.5,978.1 		"/>
		<polyline id="XMLID_82_" class="st4" points="1784.4,857.7 1926.4,857.7 1976.5,857.7 		"/>
		<polyline id="XMLID_84_" class="st4" points="1880.4,784.3 1798.4,857.7 1798.4,978.1 		"/>
		<polyline id="XMLID_83_" class="st4" points="1838.4,857.7 1880.4,784.3 1962.5,857.7 1962.5,978.1 		"/>
		<line id="XMLID_85_" class="st4" x1="1922.4" y1="857.7" x2="1880.4" y2="784.3"/>
	</g>
	<rect id="zisterne" x="35.7" y="989" class="st5" width="72.7" height="206"/>
	<rect id="gewachshaus" x="1798.4" y="857.7" class="st5" width="164.1" height="120.4"/>
	<polyline id="XMLID_26_" class="st6" points="383.4,804.6 250.6,824.2 250,820 383.4,800.5 	"/>
	<polyline id="XMLID_30_" class="st4" points="32.5,993 32.5,1198 110.8,1198 110.8,993 	"/>
</g>
<g id="Ebene_6">
	<g id="XMLID_139_">
		<path id="XMLID_144_" class="st7" d="M816.9,1006c-0.7,0.4-1.1,1.3-1,2l0.1,0.5l-5.9,0.1c-5.6,0.1-5.9,0.1-6.8,0.5
			c-1.4,0.6-2.7,2.1-3.4,3.7l-0.6,1.3v33.4v33.4l0.6,1.3c0.7,1.6,2,3.1,3.4,3.7l1,0.4h18.7h18.7l1-0.4c1.4-0.6,2.8-2.2,3.4-3.8
			l0.5-1.2v-33.4v-33.4l-0.6-1.3c-0.7-1.6-2-3.1-3.4-3.7c-0.9-0.4-1.2-0.4-6.3-0.5l-5.4-0.1l0.1-0.4c0.1-0.7-0.4-1.8-1.1-2.1
			C829,1005.5,817.7,1005.5,816.9,1006z M841.4,1012.7c0.7,0.3,1.2,0.9,1.6,1.8c0.3,0.7,0.3,2.1,0.3,33c0,35,0.1,32.9-0.9,34.1
			c-0.9,1.1,0.1,1-19.6,1c-20,0-18.8,0.1-19.7-1.2c-0.3-0.3-0.5-0.9-0.6-1.3c-0.2-1-0.2-64.2,0-65.2c0.2-0.9,0.9-1.9,1.6-2.2
			C804.9,1012.4,840.7,1012.4,841.4,1012.7z"/>
		<path id="batterie-icon-4" class="st8" d="M805.5,1023.7v6.7h17.4h17.4v-6.7v-6.7h-17.4h-17.4V1023.7z"/>
		<path id="batterie-icon-3" class="st8" d="M805.5,1039.6v6.7h17.4h17.4v-6.7v-6.7h-17.4h-17.4V1039.6z"/>
		<path id="batterie-icon-2" class="st8" d="M805.5,1055.4v6.7h17.4h17.4v-6.7v-6.7h-17.4h-17.4V1055.4z"/>
		<path id="batterie-icon-1" class="st8" d="M805.5,1071.3v6.7h17.4h17.4v-6.7v-6.7h-17.4h-17.4V1071.3z"/>
	</g>
	<g id="XMLID_35_">
		<path id="XMLID_1264_" class="st8" d="M1205.8,704c-2,0-3.5,0-5.3,0c-0.2-1.9-0.4-3.6-0.6-5.6c-1.3-0.1-2.5-0.3-3.8-0.3
			c-14.5,0-29.1,0-43.6,0c-6.5,0-10.5-2.1-14.4-7.4c0-8.9,0-17.8,0-27c-1.5,0-2.9,0-4.7,0c0,7.9,0,15.7,0,23.8
			c-1.2-0.2-1.9-0.3-2.9-0.4c0-7.8,0-15.4,0-23.3c-1.7,0-3,0-4.6,0c0,3,0,6.1,0,9.2c1.3,0.3,2.5,0.5,3.9,0.9c0,2.2,0,4.3,0,6.5
			c-1.2,0-2.2,0-3.6,0c-0.1-1.6-0.2-3.2-0.3-4.8c-0.1,0-0.3,0-0.4,0c0,3.7,0,7.3,0,11.2c-0.9,0.2-1.7,0.4-2.8,0.6c0-8,0-15.6,0-23.5
			c-1.8,0-3.3,0-5.1,0c0,8.5,0,17.1,0,26.2c-2.7,2.7-5.6,5.2-8.1,8.2c-1.3,1.6-1.9,3.8-3.4,5.9c-0.1-1.1-0.4-2.2-0.4-3.3
			c0-13.6,0-27.2,0-40.8c0-1.6-0.5-3.3-0.4-4.9c0.1-1.3,0.6-2.9,1.6-3.7c0.7-0.6,2.8-0.5,3.4,0.2c0.8,0.9,1.1,2.5,1.2,3.8
			c0.1,1.3-0.2,2.6-0.3,4c29.8,0,59.2,0,89,0c-0.2-1.4-0.5-2.7-0.4-3.9c0.2-1.4,0.4-3.1,1.3-4.1c0.6-0.6,2.8-0.7,3.4-0.1
			c0.9,0.9,1.3,2.6,1.5,3.9c0.2,1.1-0.3,2.4-0.3,3.5c0,13.9,0,27.8,0,41.7C1205.8,701.4,1205.8,702.5,1205.8,704z M1189,663.7
			c0,9,0,17.7,0,26.4c1.7,0,3.2,0,4.8,0c0-8.9,0-17.6,0-26.4C1192.1,663.7,1190.7,663.7,1189,663.7z M1170,690.3
			c0-9.1,0-17.9,0-26.6c-1.7,0-3.1,0-4.7,0c0,8.9,0,17.5,0,26.3c0.7,0.1,1.2,0.2,1.8,0.3C1167.9,690.3,1168.8,690.3,1170,690.3z
			 M1141.5,663.6c0,8.8,0,17.6,0,26.4c1.5,0,2.9,0,4.6,0c0-8.9,0-17.6,0-26.4C1144.6,663.6,1143.3,663.6,1141.5,663.6z
			 M1154.1,663.7c-1.6,0-3,0-4.7,0c0,8.9,0,17.6,0,26.3c1.7,0,3.2,0,4.7,0C1154.1,681.1,1154.1,672.5,1154.1,663.7z M1157.4,663.7
			c0,9,0,17.7,0,26.4c1.6,0,3,0,4.5,0c0-8.9,0-17.5,0-26.4C1160.3,663.7,1159,663.7,1157.4,663.7z M1181.2,663.6c0,9,0,17.6,0,26.4
			c1.6,0,3,0,4.5,0c0-8.9,0-17.5,0-26.4C1184.1,663.6,1182.7,663.6,1181.2,663.6z M1173.4,663.6c0,9,0,17.7,0,26.4
			c1.7,0,3.1,0,4.5,0c0-8.9,0-17.6,0-26.4C1176.3,663.6,1174.9,663.6,1173.4,663.6z M1114.4,690.1c0-9,0-17.7,0-26.6
			c-1.1,0.1-2,0.1-2.9,0.2c0,6,0,11.8,0,17.4c0.9,0.5,1.6,0.8,2.4,1.2c0,2.3,0,4.4,0,6.5c-0.8,0.4-1.4,0.7-2.6,1.3
			C1112.7,690.1,1113.5,690.1,1114.4,690.1z M1197.1,663.5c0,9,0,17.8,0,26.7c0.9,0,1.7,0,2.4,0c0-0.1,0.1-0.3,0.1-0.4
			c-0.7-0.3-1.4-0.5-2.2-0.8c0-2.3,0-4.5,0-6.7c0.9-0.4,1.7-0.8,2.4-1.2c0-5.8,0-11.4,0-17.2
			C1199.1,663.7,1198.4,663.6,1197.1,663.5z"/>
		<path id="XMLID_1228_" class="st8" d="M1148.9,709.4c-1.2,0.2-2.6,0.5-4.1,0.7c-3.7,5-8,5-11.6-0.1c-2.8,0-5.7,0-8.6,0
			c-4.1,5.8-8.8,4.4-11.5,0.2c-4.4-0.9-4.2-0.9-3.6-5.4c0.5-3.1,0.8-6,4.4-7.2c0.6-0.2,1-1.3,1.3-2c3.4-9.1,19.9-9.2,23.5-1
			c0.9,2,2.4,2.9,4.6,3.3C1148.1,698.7,1150.6,703.7,1148.9,709.4z M1128.1,697.9c3,0,5.6,0,8.3,0c-1.5-4.6-4.4-6.4-8.3-5.3
			C1128.1,694.2,1128.1,695.9,1128.1,697.9z M1125.4,698c0-2,0-3.8,0-5.6c-3.6-0.5-6.1,1.4-7.1,5.6
			C1120.6,698,1122.9,698,1125.4,698z M1118.8,711.6c1.1-1.6,2.3-2.6,2.2-3.3c-0.2-0.9-1.4-2.1-2.3-2.3c-0.6-0.1-2.1,1.3-2.1,2.1
			C1116.6,709.1,1117.7,710,1118.8,711.6z M1137.7,705.6c-0.4,0.4-0.8,0.8-1.2,1.1c0.4,1.1,0.5,2.5,1.2,3.3c0.4,0.4,2.1,0.2,2.8-0.3
			c0.5-0.4,0.8-2.2,0.5-2.5C1140.2,706.5,1138.9,706.1,1137.7,705.6z"/>
		<path id="XMLID_1211_" class="st8" d="M1195.9,621.3c-0.6,2.8-1.2,5.2-1.8,7.9c1,0.9,2.5,1.8,3.5,3.1c1.3,1.6,2.7,3.3,3.5,5.2
			c1.1,2.7-0.3,4.8-3,5.9c1,4.2,0.2,7.7-3.6,9.9c-2.9,1.6-5.5,0.8-7.7-1.6c-1.6,0-3,0-4.8,0c-2.2,2.4-5,3.4-8.1,1.3
			c-3.4-2.3-4.3-5.6-3.1-9.4c-4.2-2.9-4.5-5.8-1.2-9.8c1.5-1.8,3-3.8,5.1-6.5c-0.8-1.9-2.1-5.2-3.6-8.5c-1.1-2.4-0.7-5.1,1.6-6.9
			c2.5-2.1,4.9-1.4,7,0.3c3.1,0,6,0,9.5,0c3.3-2.1,5.9-2.1,8,0.5C1199.2,615.6,1198.8,618.3,1195.9,621.3z M1184.3,614.9
			c-4.5,0-8.1,3.4-8.2,7.9c-0.1,4.5,3.8,8.4,8.4,8.4c4.5,0,8.1-3.5,8.2-8C1192.7,618.5,1189.1,614.9,1184.3,614.9z M1176.2,640.7
			c4.9,0.9,6.1,4.4,6.8,8.3c1.2-0.1,2.2-0.2,3.2-0.2c0.1-4.2,2.3-6.7,6.3-8.5c-1-2.6-1.9-5.1-2.6-6.9c-4,0-7.1,0-10.9,0
			C1178.1,635.3,1177.2,637.8,1176.2,640.7z M1195.8,646.2c0-1.6-1.1-2.8-3.2-2.9c-1.9,0-3.8,2.3-3.8,4.7c0,1.8,0.6,3.3,2.7,3.5
			C1193.6,651.8,1195.8,649.2,1195.8,646.2z M1173.1,645.5c-0.1,3.4,1.9,6,3.9,6c2.1,0,2.9-1.3,3-3.2c0.1-2.5-1.8-5.1-3.9-4.7
			C1174.9,643.8,1173.8,645.1,1173.1,645.5z M1170,639.9c0.2,0.3,0.5,0.7,0.7,1c1.1-0.5,2.6-0.8,3.1-1.7c1.2-2.4,1.9-5,3-8.2
			C1173.4,633.7,1170.1,635.6,1170,639.9z M1198.1,640.8c1.2-3.3-1.7-7.5-6.2-8.9C1194.9,634.1,1192.6,640,1198.1,640.8z
			 M1194.4,618.3c0.4-0.1,0.7-0.1,1.1-0.2c-0.2-1.2,0-2.6-0.7-3.4c-0.5-0.7-2-0.6-3-0.8c-0.1,0.3-0.1,0.5-0.2,0.8
			C1192.6,615.9,1193.5,617.1,1194.4,618.3z M1173.3,618.1c0.3,0.1,0.5,0.1,0.8,0.2c1-1.3,2-2.5,3.1-3.8c-0.1-0.3-0.3-0.5-0.4-0.8
			c-1,0.4-2.4,0.5-3,1.2C1173.2,615.6,1173.4,617,1173.3,618.1z"/>
		<path id="XMLID_1190_" class="st8" d="M1161.6,650.9c-3.7,0-7.3,0-11.2,0c0-3.7,0-7.3,0-11.1c3.7,0,7.2,0,11.2,0
			C1161.6,643.4,1161.6,647,1161.6,650.9z"/>
		<path id="XMLID_1189_" class="st8" d="M1133.1,639.9c0,3.7,0,7.1,0,10.9c-3.8,0-7.4,0-11.3,0c0-3.7,0-7.1,0-10.9
			C1125.5,639.9,1129.1,639.9,1133.1,639.9z"/>
		<path id="XMLID_1188_" class="st8" d="M1136,615c3.7,0,7.2,0,11,0c0,3.6,0,7.1,0,11c-3.6,0-7.1,0-11,0
			C1136,622.5,1136,619,1136,615z"/>
		<path id="XMLID_1187_" class="st8" d="M1147.1,650.9c-3.6,0-7.1,0-10.9,0c0-3.7,0-7.2,0-11c3.6,0,7.1,0,10.9,0
			C1147.1,643.6,1147.1,647.1,1147.1,650.9z"/>
		<path id="XMLID_1186_" class="st8" d="M1140.3,627.5c0,3.8,0,7.2,0,10.8c-3.8,0-7.3,0-11.2,0c0-3.6,0-7.1,0-10.8
			C1132.8,627.5,1136.4,627.5,1140.3,627.5z"/>
		<path id="XMLID_1184_" class="st8" d="M1156.5,638.3c-5.2,0-9.6,0-14.7,0c2.4-4.4,4.5-8.3,6.7-12.1c0.3,0,0.7-0.1,1-0.1
			C1151.7,630,1153.9,633.8,1156.5,638.3z"/>
		<path id="XMLID_1084_" class="st8" d="M1137.6,681.9c0,2.6,0,4.9,0,7.6c-1.4-0.6-2.4-1.1-3.5-1.6c0-2,0-3.9,0-6
			C1135.3,681.9,1136.3,681.9,1137.6,681.9z"/>
		<path id="XMLID_1077_" class="st8" d="M1121.7,680.4c-1.1,0-2,0-3.1,0c0-2.1,0-4.1,0-6.4c1-0.1,1.9-0.2,3.1-0.4
			C1121.7,675.9,1121.7,677.9,1121.7,680.4z"/>
		<path id="XMLID_1074_" class="st8" d="M1121.7,681.9c0,1.8,0,3.5,0,5.5c-0.9,0.4-1.8,0.8-3.2,1.4c0-2.4,0-4.5,0-6.9
			C1119.5,681.9,1120.5,681.9,1121.7,681.9z"/>
		<path id="XMLID_1072_" class="st8" d="M1126.3,686.9c0-1.9,0-3.4,0-5c1.2,0,2.2,0,3.5,0c0,1.8,0,3.4,0,5
			C1128.6,686.9,1127.5,686.9,1126.3,686.9z"/>
		<path id="XMLID_1065_" class="st8" d="M1134.1,675c3.2,0.8,3.9,2.1,3,5.4c-0.5,0.1-1,0.2-1.5,0.2c-0.4,0-0.9-0.1-1.5-0.3
			C1134.1,678.5,1134.1,676.9,1134.1,675z"/>
		<path id="XMLID_1009_" class="st8" d="M1184.3,614.9c4.8,0,8.5,3.6,8.4,8.3c-0.1,4.4-3.7,7.9-8.2,8c-4.6,0-8.5-3.8-8.4-8.4
			C1176.1,618.3,1179.7,614.9,1184.3,614.9z M1184.2,627.9c1.1-0.8,2-1.4,2.9-2.1c-0.1-0.4-0.1-0.8-0.2-1.2
			c-1.6-0.1-3.1-0.2-4.7-0.3c-0.1,0.4-0.2,0.7-0.3,1.1C1182.6,626.2,1183.3,626.9,1184.2,627.9z"/>
		<path id="XMLID_1008_" class="st8" d="M1176.2,640.7c1-2.9,1.9-5.4,2.7-7.4c3.8,0,6.9,0,10.9,0c0.7,1.9,1.6,4.3,2.6,6.9
			c-4,1.8-6.1,4.3-6.3,8.5c-1,0.1-1.9,0.1-3.2,0.2C1182.3,645.1,1181.1,641.6,1176.2,640.7z"/>
		<path id="XMLID_976_" class="st8" d="M1193.3,681.9c0,2.5,0,4.7,0,7.2c-1.3,0-2.3,0-3.7,0c0-2.3,0-4.6,0-7.2
			C1190.8,681.9,1191.8,681.9,1193.3,681.9z"/>
		<path id="XMLID_975_" class="st8" d="M1165.7,689.2c0-2.5,0-4.8,0-7.4c1.3,0,2.3,0,3.7,0c0,2.5,0,4.8,0,7.4
			C1168.2,689.2,1167.2,689.2,1165.7,689.2z"/>
		<path id="XMLID_974_" class="st8" d="M1142.1,681.6c1.4,0.1,2.3,0.1,3.4,0.2c0,2.4,0,4.6,0,7.2c-1,0.1-2,0.1-3.4,0.2
			C1142.1,686.7,1142.1,684.3,1142.1,681.6z"/>
		<path id="XMLID_973_" class="st8" d="M1153.4,689.2c-1.4,0-2.3,0-3.4,0c0-2.4,0-4.7,0-7.3c1.1,0,2.1,0,3.4,0
			C1153.4,684.4,1153.4,686.7,1153.4,689.2z"/>
		<path id="XMLID_972_" class="st8" d="M1161.4,689.2c-1.2,0-2.3,0-3.5,0c0-2.5,0-4.8,0-7.3c1.2,0,2.2,0,3.5,0
			C1161.4,684.3,1161.4,686.5,1161.4,689.2z"/>
		<path id="XMLID_971_" class="st8" d="M1185.2,689.2c-1.2,0-2.2,0-3.4,0c0-2.4,0-4.7,0-7.3c1.1-0.1,2.1-0.1,3.4-0.2
			C1185.2,684.3,1185.2,686.6,1185.2,689.2z"/>
		<path id="XMLID_970_" class="st8" d="M1173.8,689.1c0-2.5,0-4.8,0-7.3c1.2,0,2.2,0,3.5,0c0,2.4,0,4.7,0,7.3
			C1176.1,689.1,1175.1,689.1,1173.8,689.1z"/>
		<path id="XMLID_969_" class="st8" d="M1184.2,627.9c-0.9-1-1.6-1.7-2.3-2.4c0.1-0.4,0.2-0.7,0.3-1.1c1.6,0.1,3.1,0.2,4.7,0.3
			c0.1,0.4,0.1,0.8,0.2,1.2C1186.2,626.5,1185.3,627.1,1184.2,627.9z"/>
	</g>
	<g id="XMLID_37_">
		<path id="XMLID_114_" class="st8" d="M1523.4,704c-2,0-3.5,0-5.3,0c-0.2-1.9-0.4-3.6-0.6-5.6c-1.3-0.1-2.5-0.3-3.8-0.3
			c-14.5,0-29.1,0-43.6,0c-6.5,0-10.5-2.1-14.4-7.4c0-8.9,0-17.8,0-27c-1.5,0-2.9,0-4.7,0c0,7.9,0,15.7,0,23.8
			c-1.2-0.2-1.9-0.3-2.9-0.4c0-7.8,0-15.4,0-23.3c-1.7,0-3,0-4.6,0c0,3,0,6.1,0,9.2c1.3,0.3,2.5,0.5,3.9,0.9c0,2.2,0,4.3,0,6.5
			c-1.2,0-2.2,0-3.6,0c-0.1-1.6-0.2-3.2-0.3-4.8c-0.1,0-0.3,0-0.4,0c0,3.7,0,7.3,0,11.2c-0.9,0.2-1.7,0.4-2.8,0.6c0-8,0-15.6,0-23.5
			c-1.8,0-3.3,0-5.1,0c0,8.5,0,17.1,0,26.2c-2.7,2.7-5.6,5.2-8.1,8.2c-1.3,1.6-1.9,3.8-3.4,5.9c-0.1-1.1-0.4-2.2-0.4-3.3
			c0-13.6,0-27.2,0-40.8c0-1.6-0.5-3.3-0.4-4.9c0.1-1.3,0.6-2.9,1.6-3.7c0.7-0.6,2.8-0.5,3.4,0.2c0.8,0.9,1.1,2.5,1.2,3.8
			c0.1,1.3-0.2,2.6-0.3,4c29.8,0,59.2,0,89,0c-0.2-1.4-0.5-2.7-0.4-3.9c0.2-1.4,0.4-3.1,1.3-4.1c0.6-0.6,2.8-0.7,3.4-0.1
			c0.9,0.9,1.3,2.6,1.5,3.9c0.2,1.1-0.3,2.4-0.3,3.5c0,13.9,0,27.8,0,41.7C1523.4,701.4,1523.4,702.5,1523.4,704z M1506.6,663.7
			c0,9,0,17.7,0,26.4c1.7,0,3.2,0,4.8,0c0-8.9,0-17.6,0-26.4C1509.8,663.7,1508.4,663.7,1506.6,663.7z M1487.6,690.3
			c0-9.1,0-17.9,0-26.6c-1.7,0-3.1,0-4.7,0c0,8.9,0,17.5,0,26.3c0.7,0.1,1.2,0.2,1.8,0.3C1485.5,690.3,1486.5,690.3,1487.6,690.3z
			 M1459.2,663.6c0,8.8,0,17.6,0,26.4c1.5,0,2.9,0,4.6,0c0-8.9,0-17.6,0-26.4C1462.2,663.6,1460.9,663.6,1459.2,663.6z
			 M1471.8,663.7c-1.6,0-3,0-4.7,0c0,8.9,0,17.6,0,26.3c1.7,0,3.2,0,4.7,0C1471.8,681.1,1471.8,672.5,1471.8,663.7z M1475.1,663.7
			c0,9,0,17.7,0,26.4c1.6,0,3,0,4.5,0c0-8.9,0-17.5,0-26.4C1478,663.7,1476.7,663.7,1475.1,663.7z M1498.8,663.6c0,9,0,17.6,0,26.4
			c1.6,0,3,0,4.5,0c0-8.9,0-17.5,0-26.4C1501.7,663.6,1500.4,663.6,1498.8,663.6z M1491,663.6c0,9,0,17.7,0,26.4c1.7,0,3.1,0,4.5,0
			c0-8.9,0-17.6,0-26.4C1493.9,663.6,1492.6,663.6,1491,663.6z M1432.1,690.1c0-9,0-17.7,0-26.6c-1.1,0.1-2,0.1-2.9,0.2
			c0,6,0,11.8,0,17.4c0.9,0.5,1.6,0.8,2.4,1.2c0,2.3,0,4.4,0,6.5c-0.8,0.4-1.4,0.7-2.6,1.3C1430.4,690.1,1431.1,690.1,1432.1,690.1z
			 M1514.8,663.5c0,9,0,17.8,0,26.7c0.9,0,1.7,0,2.4,0c0-0.1,0.1-0.3,0.1-0.4c-0.7-0.3-1.4-0.5-2.2-0.8c0-2.3,0-4.5,0-6.7
			c0.9-0.4,1.7-0.8,2.4-1.2c0-5.8,0-11.4,0-17.2C1516.8,663.7,1516.1,663.6,1514.8,663.5z"/>
		<path id="XMLID_108_" class="st8" d="M1466.5,709.4c-1.2,0.2-2.6,0.5-4.1,0.7c-3.7,5-8,5-11.6-0.1c-2.8,0-5.7,0-8.6,0
			c-4.1,5.8-8.8,4.4-11.5,0.2c-4.4-0.9-4.2-0.9-3.6-5.4c0.5-3.1,0.8-6,4.4-7.2c0.6-0.2,1-1.3,1.3-2c3.4-9.1,19.9-9.2,23.5-1
			c0.9,2,2.4,2.9,4.6,3.3C1465.7,698.7,1468.2,703.7,1466.5,709.4z M1445.8,697.9c3,0,5.6,0,8.3,0c-1.5-4.6-4.4-6.4-8.3-5.3
			C1445.8,694.2,1445.8,695.9,1445.8,697.9z M1443,698c0-2,0-3.8,0-5.6c-3.6-0.5-6.1,1.4-7.1,5.6C1438.3,698,1440.5,698,1443,698z
			 M1436.5,711.6c1.1-1.6,2.3-2.6,2.2-3.3c-0.2-0.9-1.4-2.1-2.3-2.3c-0.6-0.1-2.1,1.3-2.1,2.1C1434.2,709.1,1435.4,710,1436.5,711.6
			z M1455.4,705.6c-0.4,0.4-0.8,0.8-1.2,1.1c0.4,1.1,0.5,2.5,1.2,3.3c0.4,0.4,2.1,0.2,2.8-0.3c0.5-0.4,0.8-2.2,0.5-2.5
			C1457.8,706.5,1456.5,706.1,1455.4,705.6z"/>
		<path id="XMLID_98_" class="st8" d="M1513.5,621.3c-0.6,2.8-1.2,5.2-1.8,7.9c1,0.9,2.5,1.8,3.5,3.1c1.3,1.6,2.7,3.3,3.5,5.2
			c1.1,2.7-0.3,4.8-3,5.9c1,4.2,0.2,7.7-3.6,9.9c-2.9,1.6-5.5,0.8-7.7-1.6c-1.6,0-3,0-4.8,0c-2.2,2.4-5,3.4-8.1,1.3
			c-3.4-2.3-4.3-5.6-3.1-9.4c-4.2-2.9-4.5-5.8-1.2-9.8c1.5-1.8,3-3.8,5.1-6.5c-0.8-1.9-2.1-5.2-3.6-8.5c-1.1-2.4-0.7-5.1,1.6-6.9
			c2.5-2.1,4.9-1.4,7,0.3c3.1,0,6,0,9.5,0c3.3-2.1,5.9-2.1,8,0.5C1516.9,615.6,1516.4,618.3,1513.5,621.3z M1501.9,614.9
			c-4.5,0-8.1,3.4-8.2,7.9c-0.1,4.5,3.8,8.4,8.4,8.4c4.5,0,8.1-3.5,8.2-8C1510.4,618.5,1506.8,614.9,1501.9,614.9z M1493.8,640.7
			c4.9,0.9,6.1,4.4,6.8,8.3c1.2-0.1,2.2-0.2,3.2-0.2c0.1-4.2,2.3-6.7,6.3-8.5c-1-2.6-1.9-5.1-2.6-6.9c-4,0-7.1,0-10.9,0
			C1495.8,635.3,1494.9,637.8,1493.8,640.7z M1513.4,646.2c0-1.6-1.1-2.8-3.2-2.9c-1.9,0-3.8,2.3-3.8,4.7c0,1.8,0.6,3.3,2.7,3.5
			C1511.2,651.8,1513.4,649.2,1513.4,646.2z M1490.8,645.5c-0.1,3.4,1.9,6,3.9,6c2.1,0,2.9-1.3,3-3.2c0.1-2.5-1.8-5.1-3.9-4.7
			C1492.5,643.8,1491.4,645.1,1490.8,645.5z M1487.7,639.9c0.2,0.3,0.5,0.7,0.7,1c1.1-0.5,2.6-0.8,3.1-1.7c1.2-2.4,1.9-5,3-8.2
			C1491,633.7,1487.7,635.6,1487.7,639.9z M1515.7,640.8c1.2-3.3-1.7-7.5-6.2-8.9C1512.5,634.1,1510.2,640,1515.7,640.8z
			 M1512.1,618.3c0.4-0.1,0.7-0.1,1.1-0.2c-0.2-1.2,0-2.6-0.7-3.4c-0.5-0.7-2-0.6-3-0.8c-0.1,0.3-0.1,0.5-0.2,0.8
			C1510.2,615.9,1511.2,617.1,1512.1,618.3z M1491,618.1c0.3,0.1,0.5,0.1,0.8,0.2c1-1.3,2-2.5,3.1-3.8c-0.1-0.3-0.3-0.5-0.4-0.8
			c-1,0.4-2.4,0.5-3,1.2C1490.8,615.6,1491.1,617,1491,618.1z"/>
		<path id="XMLID_97_" class="st8" d="M1479.2,650.9c-3.7,0-7.3,0-11.2,0c0-3.7,0-7.3,0-11.1c3.7,0,7.2,0,11.2,0
			C1479.2,643.4,1479.2,647,1479.2,650.9z"/>
		<path id="XMLID_96_" class="st8" d="M1450.8,639.9c0,3.7,0,7.1,0,10.9c-3.8,0-7.4,0-11.3,0c0-3.7,0-7.1,0-10.9
			C1443.2,639.9,1446.8,639.9,1450.8,639.9z"/>
		<path id="XMLID_95_" class="st8" d="M1453.7,615c3.7,0,7.2,0,11,0c0,3.6,0,7.1,0,11c-3.6,0-7.1,0-11,0
			C1453.7,622.5,1453.7,619,1453.7,615z"/>
		<path id="XMLID_94_" class="st8" d="M1464.8,650.9c-3.6,0-7.1,0-10.9,0c0-3.7,0-7.2,0-11c3.6,0,7.1,0,10.9,0
			C1464.8,643.6,1464.8,647.1,1464.8,650.9z"/>
		<path id="XMLID_93_" class="st8" d="M1458,627.5c0,3.8,0,7.2,0,10.8c-3.8,0-7.3,0-11.2,0c0-3.6,0-7.1,0-10.8
			C1450.4,627.5,1454.1,627.5,1458,627.5z"/>
		<path id="XMLID_88_" class="st8" d="M1474.1,638.3c-5.2,0-9.6,0-14.7,0c2.4-4.4,4.5-8.3,6.7-12.1c0.3,0,0.7-0.1,1-0.1
			C1469.4,630,1471.6,633.8,1474.1,638.3z"/>
		<path id="XMLID_80_" class="st8" d="M1455.2,681.9c0,2.6,0,4.9,0,7.6c-1.4-0.6-2.4-1.1-3.5-1.6c0-2,0-3.9,0-6
			C1452.9,681.9,1453.9,681.9,1455.2,681.9z"/>
		<path id="XMLID_77_" class="st8" d="M1439.3,680.4c-1.1,0-2,0-3.1,0c0-2.1,0-4.1,0-6.4c1-0.1,1.9-0.2,3.1-0.4
			C1439.3,675.9,1439.3,677.9,1439.3,680.4z"/>
		<path id="XMLID_70_" class="st8" d="M1439.4,681.9c0,1.8,0,3.5,0,5.5c-0.9,0.4-1.8,0.8-3.2,1.4c0-2.4,0-4.5,0-6.9
			C1437.2,681.9,1438.2,681.9,1439.4,681.9z"/>
		<path id="XMLID_69_" class="st8" d="M1443.9,686.9c0-1.9,0-3.4,0-5c1.2,0,2.2,0,3.5,0c0,1.8,0,3.4,0,5
			C1446.2,686.9,1445.2,686.9,1443.9,686.9z"/>
		<path id="XMLID_68_" class="st8" d="M1451.8,675c3.2,0.8,3.9,2.1,3,5.4c-0.5,0.1-1,0.2-1.5,0.2c-0.4,0-0.9-0.1-1.5-0.3
			C1451.8,678.5,1451.8,676.9,1451.8,675z"/>
		<path id="XMLID_65_" class="st8" d="M1501.9,614.9c4.8,0,8.5,3.6,8.4,8.3c-0.1,4.4-3.7,7.9-8.2,8c-4.6,0-8.5-3.8-8.4-8.4
			C1493.8,618.3,1497.4,614.9,1501.9,614.9z M1501.8,627.9c1.1-0.8,2-1.4,2.9-2.1c-0.1-0.4-0.1-0.8-0.2-1.2
			c-1.6-0.1-3.1-0.2-4.7-0.3c-0.1,0.4-0.2,0.7-0.3,1.1C1500.2,626.2,1500.9,626.9,1501.8,627.9z"/>
		<path id="XMLID_64_" class="st8" d="M1493.8,640.7c1-2.9,1.9-5.4,2.7-7.4c3.8,0,6.9,0,10.9,0c0.7,1.9,1.6,4.3,2.6,6.9
			c-4,1.8-6.1,4.3-6.3,8.5c-1,0.1-1.9,0.1-3.2,0.2C1500,645.1,1498.8,641.6,1493.8,640.7z"/>
		<path id="XMLID_63_" class="st8" d="M1510.9,681.9c0,2.5,0,4.7,0,7.2c-1.3,0-2.3,0-3.7,0c0-2.3,0-4.6,0-7.2
			C1508.5,681.9,1509.5,681.9,1510.9,681.9z"/>
		<path id="XMLID_62_" class="st8" d="M1483.4,689.2c0-2.5,0-4.8,0-7.4c1.3,0,2.3,0,3.7,0c0,2.5,0,4.8,0,7.4
			C1485.8,689.2,1484.9,689.2,1483.4,689.2z"/>
		<path id="XMLID_61_" class="st8" d="M1459.7,681.6c1.4,0.1,2.3,0.1,3.4,0.2c0,2.4,0,4.6,0,7.2c-1,0.1-2,0.1-3.4,0.2
			C1459.7,686.7,1459.7,684.3,1459.7,681.6z"/>
		<path id="XMLID_60_" class="st8" d="M1471.1,689.2c-1.4,0-2.3,0-3.4,0c0-2.4,0-4.7,0-7.3c1.1,0,2.1,0,3.4,0
			C1471.1,684.4,1471.1,686.7,1471.1,689.2z"/>
		<path id="XMLID_59_" class="st8" d="M1479,689.2c-1.2,0-2.3,0-3.5,0c0-2.5,0-4.8,0-7.3c1.2,0,2.2,0,3.5,0
			C1479,684.3,1479,686.5,1479,689.2z"/>
		<path id="XMLID_57_" class="st8" d="M1502.9,689.2c-1.2,0-2.2,0-3.4,0c0-2.4,0-4.7,0-7.3c1.1-0.1,2.1-0.1,3.4-0.2
			C1502.9,684.3,1502.9,686.6,1502.9,689.2z"/>
		<path id="XMLID_56_" class="st8" d="M1491.4,689.1c0-2.5,0-4.8,0-7.3c1.2,0,2.2,0,3.5,0c0,2.4,0,4.7,0,7.3
			C1493.8,689.1,1492.8,689.1,1491.4,689.1z"/>
		<path id="XMLID_54_" class="st8" d="M1501.8,627.9c-0.9-1-1.6-1.7-2.3-2.4c0.1-0.4,0.2-0.7,0.3-1.1c1.6,0.1,3.1,0.2,4.7,0.3
			c0.1,0.4,0.1,0.8,0.2,1.2C1503.8,626.5,1502.9,627.1,1501.8,627.9z"/>
	</g>
	<g id="XMLID_38_">
		<path id="XMLID_40_" class="st8" d="M880.7,709.9c-2.1-0.8-3.5-1.4-5.3-2.1c-0.1,2-0.3,3.8-0.4,6c-2.1,0-4.1,0-6.4,0
			c-0.2-1.5-0.4-2.8-0.5-4.3c-25.3,0-50.6,0-76,0c-0.2,1.4-0.4,2.7-0.6,4.4c-2.2,0-4.3,0-6.7,0c-0.1-1.9-0.3-3.7-0.4-5.9
			c-1.6,0.6-3,1.2-5,2c-0.6-6.3-3.4-12.1,0.5-18.1c4.3-6.8,8.2-13.9,12.1-21c0.5-1,0.6-2.3,0.6-3.4c0-6.3,0-12.7,0-19
			c0-3.1,1.3-4.4,4.4-4.4c22.1,0,44.1,0,66.2,0c2.9,0,4.2,1.4,4.2,4.6c0.1,6.3,0,12.7,0.1,19c0,1.3,0.5,2.6,1.2,3.8
			c4.4,8.1,8.9,16.1,13.4,24.1c0.3,0.5,0.5,1.1,0.4,1.6C881.8,701.2,881.3,705.3,880.7,709.9z M878.1,705.2c1-4.3,2-8.2-0.6-11.9
			c-0.8-1.1-1.5-2.3-2-3.6c-1.4-3.4-4.1-5.2-7.6-5.6c-4.6-0.6-9.1-1.1-13.7-1.4c-19.8-1.3-39.5-0.8-59.2,0.8
			c-5.2,0.4-9.4,2.4-11.3,7.7c-0.4,1.2-1.2,2.3-1.8,3.4c-2,3.5-0.7,6.8,0.1,10.6c1.8-1,3.3-1.7,4.6-2.7c3.1-2.2,6.5-3,10.3-2.9
			c20.5,0.2,41,0.2,61.5,0c6.4-0.1,12.4,0.4,17.6,4.5C876.5,704.6,877.1,704.8,878.1,705.2z M826.5,664.7c0.2-3.5,0.4-6.9,0.6-10
			c-9,0-17.9,0-26.6,0c0,4.1,0,8.4,0,12.6C809,666.5,817.7,665.6,826.5,664.7z M859.4,654.6c-8.8,0-17.7,0-26.6,0
			c0.3,3.4,0.5,6.7,0.7,10.1c8.6,0.9,17.3,1.8,25.9,2.6C859.4,663.1,859.4,658.8,859.4,654.6z M792.6,674.4c0.2,0.2,0.3,0.5,0.5,0.7
			c24.9-3.6,49.7-4.3,74.5,0.4c-1.8-3.3-2.8-3.8-7.9-4.8c-14.3-2.7-28.6-3.4-43.1-2.1c-6.5,0.6-12.9,1.7-19.3,2.9
			C795.6,671.9,794.2,673.4,792.6,674.4z"/>
		<path id="XMLID_39_" class="st8" d="M878.2,646c1-0.1,1.6-0.3,2.2-0.3c3,0,6,0,9.5,0c1.5,4.9,3,9.8,4.7,15.3
			c-2.9,0.2-5.2,0.4-8,0.5c1.6,4.5,5.6,8.6,0.8,13.8c4.2,0,7.4,0,11,0c0,8.2,0,16,0,24.2c-1.1,0.1-2.3,0.3-3.8,0.4
			c-0.2-1.5-0.4-2.8-0.7-4.4c-3.3,0-6.5,0-9.6,0c-3.7-6.8-7.2-13.2-11-20.2c2.5-0.1,4.5-0.2,7-0.4c-3.4-4.8-0.5-9,1.6-13.5
			c-2.9-0.2-5.2-0.3-8.1-0.5C875.3,655.7,876.8,650.8,878.2,646z"/>
	</g>
	<g id="XMLID_32_">
		<path id="XMLID_1281_" class="st8" d="M1286.5,875.7c-2.8,1.8-5.6,2.4-8.3,0.4c-1.5-1.1-2.2-2.7-1.3-5.3c1.4,1,2.4,1.8,4,3
			c3.4,0.9,5.6-0.7,5.7-4.8c0-2,0-4.1,0-6.7c-1.8,0-3.5,0.1-5.1,0c-4.7-0.2-6.9-4.3-4.5-8.7c0.6,0.1,1.2,0.1,1.9,0.2
			c0.4,1.8,0.7,3.3,1.1,5c2.3,0,4.3,0,6.2,0c1.5-3.5-1.1-7.6,2.3-10.9c3.9,3.2,0.9,7.4,2.6,10.9c1.9,0,4,0,5.9,0
			c1.8-1.5-0.3-4.7,2.9-5.2c2.1,1.3,1.6,3.5,1,5.2c-1.7,5-6.3,3.1-10.1,3.7c0,3.2,0,6.5,0,9c0.1-1,0.3-2.8,0.4-4.6c0.3,0,0.7,0,1,0
			c0.3,2.2,0.6,4.5,1,6.8c1.6,0,2.7,0,3.7,0c0.8-1.1,1.6-2.1,2.5-3.4c1.6,2.4,1,3.8-0.4,5.1c-2.4,2.3-4.4,2.4-8.4,0.2
			c0,13.7,0,27.4,0,41.4c3.7,0,7.2,0,10.9,0c0,1.1,0,1.8,0,2.8c-3.2,0-6.2,0-9.5,0c1.4,5.2,6.5,5.1,9.7,7.1c-2,3.4-3.8,3-11.1-1.8
			c-0.2,1.3-0.4,2.4-0.7,3.9c-0.8,0.2-1.6,0.4-2.7,0.6c-0.4-1.6-0.7-3-1-4.3c-7.8,4.5-9.5,4.8-11,1.2c3.5-1.5,8-1.8,9.7-6.5
			c-0.8-0.1-1.5-0.2-2.2-0.2c-22,0-44,0-66,0c-2,0-3.5,0.6-4.9,2.1c-4.3,4.5-8.7,8.9-13.1,13.4c-0.8,0.8-1.7,1.5-3.1,2.7
			c-0.7-0.6-1.2-1.1-2.2-2c6.6-5.9,12.5-11.3,18-16.2c0-28.2,0-54.9,0-81.7c0.3-0.2,0.7-0.3,1-0.5c0.6,0.6,1.4,1.1,1.7,1.8
			c0.3,0.8,0.1,1.8,0.1,2.6c0,23.6,0,47.2,0,70.8c0,1.1,0,2.3,0,3.7c3.4,0,6.6,0,10.2,0c0-24.1,0-48.2,0-72.5c14.5,0,28.4,0,42.8,0
			c0,24.3,0,48.3,0,72.5c6.5,0,12.6,0,19,0C1286.5,903.1,1286.5,889.6,1286.5,875.7z M1263.2,883.5c-1.6-1.1-2.6-2.3-3.4-2.1
			c-0.9,0.2-2.1,1.5-2.1,2.4c0,0.7,1.4,2.1,2.3,2.1C1260.8,885.9,1261.7,884.7,1263.2,883.5z"/>
		<path id="XMLID_1247_" class="st8" d="M1215.8,935.2c2.8-3.9,5.5-7.8,8.4-11.6c0.5-0.7,1.9-0.9,2.9-0.9c12.8-0.1,25.7-0.1,38.5,0
			c0.9,0,2.2,0.2,2.7,0.8c2.9,3.9,5.7,7.9,8.9,12.5c-20.9,0-40.9,0-60.9,0C1216.2,935.7,1216,935.5,1215.8,935.2z"/>
	</g>
	<g id="XMLID_31_">
		<path id="XMLID_1256_" class="st8" d="M739.1,911.2c0-6.4-0.4-12.4-7.5-14.3c-1.4-9.5,0.8-13,9.2-14.9c8.4-1.9,16.8-1.9,25.2,0.4
			c6,1.7,7.9,4.1,8,10.2c0,1.4,0,2.7,0,4.2c-7.2,2.1-8.1,7.8-7.8,14.3C757,908.2,748.3,908.1,739.1,911.2z"/>
		<path id="XMLID_1250_" class="st8" d="M706.1,849.1c5.3,0,10.1,0,15.3,0c2.6,7.8,5.2,15.6,8.1,24c-5,0-9.4,0-14.1,0
			c0,20.1,0,39.7,0,59.3c2.4,2.4,7.1,1.6,9.6,5.6c-7.7,0-14.6,0-21.5,0c-0.1-0.3-0.3-0.5-0.4-0.8c2.1-3,6.3-2.5,9-4.7
			c0-19.5,0-39.1,0-59.3c-4.6,0-9,0-14,0C701,864.8,703.5,857,706.1,849.1z"/>
		<path id="XMLID_1207_" class="st8" d="M810.7,921.6c0,5.5,0,10.9,0,16.5c-8.6,0-16.8,0-25.3,0c-1-5.5-0.4-10.8-0.4-16.5
			C793.7,921.6,802.2,921.6,810.7,921.6z M798.2,925.4c-0.4,0.1-0.7,0.2-1.1,0.3c-0.1,0.8-0.3,1.6-0.5,2.7c1.1-0.1,1.8-0.1,3.2-0.2
			C799.1,926.9,798.6,926.1,798.2,925.4z"/>
		<path id="XMLID_1205_" class="st8" d="M727.4,913.3c-1.3-1.6-3.1-3-4-4.8c-1.7-3.4,0.2-7.8,3.7-9.2c3.7-1.5,7.6,0.1,9.1,3.9
			c0.5,1.2,0.7,2.5,0.7,3.8c0,9,0,18,0,27c0,1.3-0.4,2.7-0.6,4.1c-1.6,0-3,0-4.6,0c-0.1-1.7-0.2-3.3-0.3-5.1
			c-3.2-0.9-3.3-3.5-3.3-6.3c0.1-4.5,0-8.9,0-13.4C727.9,913.3,727.7,913.3,727.4,913.3z"/>
		<path id="XMLID_1204_" class="st8" d="M777.1,913.2c0,4.6-0.1,9,0,13.5c0,2.8-0.2,5.4-3.4,6.4c-0.1,1.7-0.2,3.2-0.3,5
			c-1.6,0-3,0-4.5,0c-0.2-1.3-0.6-2.5-0.6-3.6c-0.1-9.4-0.1-18.7,0-28.1c0-4.1,2.7-7,6.4-7.4c3.3-0.4,6.3,1.7,7.3,5.1
			c0.8,2.7-0.2,5.7-2.6,7.6C778.8,912.1,778.1,912.5,777.1,913.2z"/>
		<path id="XMLID_1200_" class="st8" d="M810.9,907.2c0,4.2,0,8.2,0,12.4c-8.7,0-17.1,0-25.7,0c0-4.2,0-8.1,0-12.4
			C793.8,907.2,802.2,907.2,810.9,907.2z M796.9,915c1-0.5,1.7-0.7,2.3-1.1c0.2-0.2,0-0.9,0-1.6c-0.8-0.1-1.5-0.1-2.3-0.2
			C796.9,913.1,796.9,913.8,796.9,915z"/>
		<path id="XMLID_1197_" class="st8" d="M739.2,922.8c9,0,17.8,0,26.9,0c0,3.3,0,6.5,0,10c-9,0-17.8,0-26.9,0
			C739.2,929.3,739.2,926.1,739.2,922.8z"/>
		<path id="XMLID_1195_" class="st8" d="M739.1,920.5c0-2.5,0-4.7,0-7.3c9-3.2,17.9-3.4,26.9,0c0,2.5,0,4.8,0,7.3
			C757.1,920.5,748.3,920.5,739.1,920.5z"/>
	</g>
	<g id="XMLID_33_">
		<path id="XMLID_1262_" class="st8" d="M1513.2,897.5c0-2.1,0-4,0-6c2.9,0.9,4.4,2.9,4.4,5.4c0,2.3,0.1,4.7,0,7
			c0,3.1-1.6,4.7-4.6,4.7c-19.1,0-38.1,0-57.2,0c-2.9,0-4.5-1.6-4.5-4.5c0-13,0-25.9,0-38.9c0-3,1.6-4.6,4.6-4.9
			c0.6-0.1,1.2,0,1.9,0c17.8,0,35.6,0,53.4,0c5.2,0,6.3,1.1,6.3,6.3c0,2.2,0,4.4,0,6.8c-1.3,0.6-2.4,1.1-4.1,1.9
			c-0.1-2.1-0.2-3.7-0.2-5.3c0-1.5,0-3.1,0-4.9c-19.3,0-38.2,0-57.4,0c0,10.8,0,21.5,0,32.4C1474.9,897.5,1493.8,897.5,1513.2,897.5
			z"/>
		<path id="XMLID_1251_" class="st8" d="M1461.7,922.2c0.8,0,1.6-0.1,2.4-0.1c13.6,0,27.2,0,40.7-0.1c2.3,0,3.6,0.7,4.3,3
			c0.9,3,2.1,5.9,3.1,8.8c1,2.9,0.2,4.2-2.9,4.2c-16.5,0-32.9,0-49.4,0c-3.1,0-4-1.3-3-4.2c1.3-3.6,2.7-7.2,4-10.7
			C1461.1,922.9,1461.3,922.7,1461.7,922.2z M1470.9,933.2c0,0.3,0,0.5,0,0.8c7.3,0,14.6,0,21.9,0c0-0.3,0-0.5,0-0.8
			C1485.5,933.2,1478.2,933.2,1470.9,933.2z M1462,933.3c0,0.2,0,0.4,0,0.7c1.8,0,3.7,0,5.5,0c0-0.2,0-0.4,0-0.7
			C1465.7,933.3,1463.9,933.3,1462,933.3z M1507,934c0-0.2,0-0.4,0-0.7c-1.6,0-3.2,0-4.8,0c0,0.2,0,0.4,0,0.7
			C1503.8,934,1505.4,934,1507,934z"/>
		<path id="XMLID_1221_" class="st8" d="M1518.8,893.6c-4.4-4.2-8.6-8.2-13.1-12.5c2.7-2.4,5.5-4,8.8-4.6c1.1-0.2,2.3-0.6,3.1-1.4
			c3.1-2.8,4.4-3.3,6.4-1.9c2,1.4,2.2,3,0.6,6.9c3.1,3.7,6.2,7.6,9.5,11.3c1,1.2,3.7,1.1,3.4,3.2c-0.2,1.3-1.8,2.4-2.6,3.7
			c-3.2,5.5-6.2,11.1-9.4,16.9c2.7,0.8,6,0.4,6.3,4.5c-5.7,0-11.3,0-17.2,0c1-4.6,4.7-3.8,7.8-4.3c3.2-5.9,6.6-11.8,9.7-17.8
			c0.5-1,0.1-2.6,0.1-4.1c-3-3.6-6.2-7.4-9.8-11.8C1522.2,886.3,1522,890.2,1518.8,893.6z"/>
		<path id="XMLID_1193_" class="st8" d="M1472.2,919.4c-0.5-2.9,2-2.8,3.5-4.1c0.4-1.3,0.8-2.9,1.4-4.7c4.9,0,9.9,0,15,0
			c0.2,0.8,0.5,1.6,0.7,2.4c0.3,1.7,1,3,2.8,3.7c0.8,0.3,1.3,1.4,1.9,2.1c-0.2,0.2-0.3,0.5-0.5,0.7
			C1488.7,919.4,1480.5,919.4,1472.2,919.4z"/>
		<path id="XMLID_1191_" class="st8" d="M1527.4,931.4c0,3.9-2.5,5.8-5.4,5.2c-3.2-0.7-6.5-5.6-5.9-8.8c0.6-3.2,4.9-4.7,7.6-2.2
			C1525.5,927.5,1526.5,930.1,1527.4,931.4z"/>
	</g>
	<g id="XMLID_15_">
		<path id="XMLID_1261_" class="st8" d="M960.9,919.9c0-9.8,0-19.3,0-29c20,0,39.8,0,59.8,0c0,9.7,0,19.2,0,29
			C1000.8,919.9,981,919.9,960.9,919.9z"/>
		<path id="XMLID_1246_" class="st8" d="M960.6,923.1c20.3,0,40.1,0,60.2,0c0,4.3,0.2,8.4-0.1,12.4c-0.1,2.3-2.2,2.5-4.1,2.5
			c-10.7,0-21.5,0-32.2,0c-6.4,0-12.8,0-19.2,0c-3.4,0-4.5-1.1-4.6-4.4C960.6,930.3,960.6,926.9,960.6,923.1z"/>
		<path id="XMLID_1239_" class="st8" d="M1021,887.9c-20.3,0-40,0-60.2,0c0-4.3-0.3-8.4,0.1-12.4c0.2-2.7,2.7-3.1,5.1-3.1
			c13.6,0,27.3,0,40.9,0c3.2,0,6.4,0,9.6,0c3.5,0.1,4.5,1.1,4.5,4.5C1021,880.5,1021,884,1021,887.9z M988,881.2
			c0-0.6-0.1-1.2-0.1-1.8c-1.3-0.6-2.6-1.6-3.8-1.6c-0.7,0-2,1.8-1.9,2.8c0,0.9,1.5,2.5,2.3,2.4C985.6,883,986.8,881.8,988,881.2z
			 M996.9,884.4c1.3-1.8,2.8-3,2.6-3.8c-0.2-1.1-1.7-2-2.6-3c-1,1-2.6,1.8-2.7,2.9C994.1,881.4,995.6,882.6,996.9,884.4z
			 M1013.1,880.7c-1.9-1.4-2.9-2.8-4-2.9c-0.9,0-1.9,1.6-2.8,2.5c0.9,1,1.7,2.4,2.8,2.7C1009.9,883.2,1011.1,881.9,1013.1,880.7z
			 M975.2,878.5c-0.4-0.3-0.8-0.6-1.2-0.9c-1.3,0.6-2.9,1-3.9,2c-0.4,0.4,0.1,2.6,0.8,3c0.9,0.5,2.9,0.5,3.4-0.1
			C975.1,881.5,975,879.8,975.2,878.5z"/>
		<path id="XMLID_1222_" class="st8" d="M1039.8,853.2c-0.7,1.1-1.3,2.4-2.2,3.5c-3.1,3.6-6.2,7.1-9.4,10.6
			c-1.6,1.7-3.4,2.9-5.4,0.9c-1.8-1.8-0.5-3.5,0.9-4.9c4.4-4.3,8.9-8.4,13.5-12.8c-0.3-0.2-0.9-0.6-1.6-0.9
			c-3.6-1.7-7.3-3.3-10.8-5.2c-2.1-1.2-4-2.7-5.5-4.5c-2.8-3.4-2.5-8.1,0.4-11c2.9-2.9,7.7-3.1,10.8,0.2c2.3,2.4,3.8,5.6,5.4,8.6
			c1.5,3,2.6,6.3,3.9,9.4c0.1,0.3,0.4,0.4,0.8,0.9c1.5-1.6,3-3.2,4.5-4.8c-0.3-0.1-0.6-0.2-0.8-0.3c0.7-2.5,0.7-5.4,2.1-7.3
			c2.5-3.4,5.9-6.1,9-9.1c0.4,0.4,0.8,0.8,1.2,1.2c-2.5,2.8-4.9,5.5-7.4,8.3c0.2,0.2,0.4,0.4,0.5,0.5c2.7-2.5,5.4-5.1,8.1-7.6
			c0.3,0.3,0.6,0.5,0.8,0.8c-1.1,3.8-5.3,5.4-7.2,9.3c4.2-1.6,5.3-6.5,9.3-7.3c0.3,0.3,0.5,0.5,0.8,0.8c-2.5,2.7-4.9,5.4-7.4,8.1
			c0.2,0.2,0.4,0.4,0.6,0.6c2.6-2.5,5.2-5,7.8-7.5c0.4,0.4,0.8,0.7,1.2,1.1c-2.3,2.6-4.6,5.2-6.8,7.8c-2.5,3-5.4,4.5-9.4,2.7
			c-1.7,1.8-3.3,3.5-4.8,5.1c4.4,4.1,8.6,7.9,12.7,11.8c0.3,0.3,0.6,0.5,0.9,0.8c1.6,1.6,3.5,3.4,1.3,5.6c-2.1,2-3.9,0.3-5.4-1.3
			C1048.1,862.6,1044.2,858.1,1039.8,853.2z M1033.6,843.4c-3.4-4.4-5.8-9.9-11.6-12C1023.8,837.2,1029,840,1033.6,843.4z
			 M1025,829.2c3.3,3.8,6.6,7.6,9.7,11.2C1032.9,833.3,1029.6,829.5,1025,829.2z M1019.5,834.1c1.2,6.6,6.5,8.5,11.7,11.1
			C1027.2,841.4,1023.6,838,1019.5,834.1z"/>
		<path id="XMLID_1199_" class="st8" d="M959.4,855.3c1.4-0.6,2.3-1.4,3.3-1.4c10.6-0.1,21.2,0,31.9,0c0.5,0,0.9,0.2,1.4,0.4
			c1.4,5.2-4.4,11.1-9.3,11.1c-5.5,0-11,0.2-16.5-0.1c-3.8-0.2-6.7-2.5-9-5.8c-3.5-0.9-7.2-1.8-10.8-2.8c-3.7-1-7.3-2-11.6-3.1
			c0.4-1.3,0.7-2.5,1.1-3.9C946.8,851.7,953.2,853.5,959.4,855.3z"/>
		<path id="XMLID_1181_" class="st8" d="M986.8,870.7c-6.2,0-12.3,0-18.8,0c-0.1-1-0.1-1.8-0.2-2.8c0.9-0.3,1.5-0.7,2.2-0.8
			c4.9-0.1,9.8-0.2,14.7-0.2C986.7,867.1,987.7,868.1,986.8,870.7z"/>
		<path id="XMLID_1172_" class="st8" d="M994.5,869.1c1.4-2.1,14.2-3,19.3-1.2c0,0.7,0.1,1.5,0.1,2.3
			C1008.5,872.1,995.8,871.3,994.5,869.1z"/>
	</g>
	<g id="XMLID">
		<path id="XMLID_1249_" class="st8" d="M499.6,923c1.1,5.2,2.1,10,3.2,15.1c-13.8,0-27.2,0-40.9,0c0-2.6,0-5,0-7.4
			c0-2-0.2-3.9,0-5.9c0.7-5.8-0.3-10.8-5.3-14.5c-1.3-0.9-1.9-2.8-3.1-4.8c7.2,0,13.5,0,20.1,0c0.6,6.4,3.6,11.5,8.8,15
			C487.5,923.9,493.3,924.3,499.6,923z"/>
		<path id="XMLID_1238_" class="st8" d="M454,870.3c6.5,0,12.7,0,19.3,0c0,10.9,0,21.6,0,32.5c-6.4,0-12.7,0-19.3,0
			C454,892.1,454,881.4,454,870.3z"/>
		<path id="XMLID_1234_" class="st8" d="M547.3,896.1c0.8,13.8,1.7,27.7,2.6,41.9c-5.8,0-11.2,0-17.1,0c0.8-14.1,1.6-28,2.3-41.9
			C539.1,896.1,542.8,896.1,547.3,896.1z"/>
		<path id="XMLID_1210_" class="st8" d="M519.9,877.3c14.2,0,28.3,0,42.4,0c0.9,7.7-9.3,16.3-19.5,16.8
			C530.8,894.7,519.7,886.7,519.9,877.3z"/>
		<path id="XMLID_1206_" class="st8" d="M475.8,905.5c12,0,23.8,0,35.9,0c-0.1,5.5-2.6,9.5-6.7,12.3c-6.6,4.6-13.7,5.4-20.8,1.3
			C479.3,916.2,476.2,911.8,475.8,905.5z"/>
		<path id="XMLID_1198_" class="st8" d="M492.4,879.8c5.9,0,11.3,0,17.4,0c0-10.7,0-21.1,0-32c-3.5,0-7.6,0-11.6,0
			c-9.8-0.1-8.8-0.3-8.8,8.7c0,6.7,0,13.4,0,20.5c-0.6,0.3-1.3,0.6-2.5,1.1c0-8.6,0-16.8,0-24.8c-2.3-0.5-4.2-0.9-6.1-1.3
			c0-0.5,0-1.1,0-1.6c1.8-0.3,3.7-0.7,6-1.1c1.3-4,4.9-4.1,8.8-4c4.4,0.1,8.8,0,13.1,0.1c1.5,0,3,0.5,4.5,0.8c0,1.3,0,2.2,0,3.1
			c1.9,0.2,3.7,0.5,6,0.8c-1,4-4.3,1.8-6.7,3.5c0,3,0,6.6,0,10.2c0,4.2,0.2,8.4,0.1,12.6c-0.1,4.7-1.4,5.9-6,6
			c-4.2,0.1-8.4,0.3-12.6,0.4c-1.3,0-2.5-0.1-3.6-0.2c-0.9-3.2,6.6-20.6,10-22.9c-0.1,1.4,0.1,2.5-0.2,3.3
			c-1.6,3.7-3.4,7.2-5.1,10.9C494.1,875.9,493.3,877.9,492.4,879.8z"/>
		<path id="XMLID_1185_" class="st8" d="M511.3,899.6c0.3,1.1,0.6,2,1,3.3c-12.3,0-24.1,0-35.9,0c-0.9-2.5-0.3-3.3,2.4-3.4
			c6,0,11.9,0,17.9,0C501.4,899.6,506.1,899.6,511.3,899.6z"/>
		<path id="XMLID_1133_" class="st8" d="M539,875.3c0-3.7-0.2-6.9,0.1-10.1c0.1-0.8,1.4-1.9,2.3-2.1c0.5-0.1,2,1.3,2,2.1
			c0.2,3.2,0.1,6.4,0.1,10C542,875.1,540.7,875.2,539,875.3z"/>
		<path id="XMLID_1071_" class="st8" d="M546.2,875.1c0-1.3,0-2.4,0-3.6c1.8,0,3.4,0,5.2,0c0,1.3,0,2.4,0,3.6
			C549.6,875.1,548,875.1,546.2,875.1z"/>
		<path id="XMLID_1070_" class="st8" d="M530.9,875c0-1.1,0-2.1,0-3.4c1.7,0,3.4,0,5.3,0c0,1.2,0,2.1,0,3.4
			C534.5,875,532.9,875,530.9,875z"/>
		<path id="XMLID_1137_" class="st8" d="M498,872.1c5.8-5.9,6.5-12.7,7.3-19.6c0.1-0.7,0.7-1.2,1.6-1.7c0.8,6.2-0.2,12.1-3,17.6
			C503,870.3,501.8,872.3,498,872.1z"/>
	</g>
	<g id="XMLID_36_">
		<path id="XMLID_1263_" class="st8" d="M539.2,682.6c-3.8,8.7-4.3,18.8-14,23c-0.9,3.2,4.6,4.5,1.6,8c-4.9,1.4-4.6-4-8-5.9
			c-11.8,0-24.4,0-37.6,0c-1.2,1.8-2.8,3.9-4.2,6c-1.2,0-2.2,0-3,0c-3-3.5,2.1-4.7,1.7-7.3c-9-6.3-9.6-9.6-14.2-23.8
			C487.3,682.6,513,682.6,539.2,682.6z"/>
		<path id="XMLID_1257_" class="st8" d="M582.9,670.6c0,1.1,0,1.9,0,2.8c-0.8,0.4-1.6,0.7-2.7,1.2c0,10.6,0,21.2,0,32.2
			c-1.6,0.1-2.9,0.2-4.6,0.3c-0.2-2.1-0.4-4-0.6-6.2c-6,0-11.9,0-18.3,0c0-9.2,0-17.9,0-26.7c-0.3,0-0.6,0-1,0c0,8.7,0,17.5,0,26.5
			c-7.2,0-14,0-20.8,0c2-5.5,3.9-11,6-16.3c0.3-0.8,1-1.5,1.7-2c1.7-1.2,2.8-2.9,1.8-4.7c-0.8-1.4-2.6-2.8-4.1-3
			c-3.5-0.4-7.2-0.1-10.7-0.2c-1.4,0-2.9-0.2-4.5-0.3c0-1.3,0-2.2,0-3.5C544.4,670.6,563.5,670.6,582.9,670.6z M552,683.5
			c-0.2,0-0.5,0-0.7,0c0,1.8,0,3.6,0,5.4c0.2,0,0.5,0,0.7,0C552,687.1,552,685.3,552,683.5z M560.5,689c0.4,0,0.8,0,1.1,0
			c-0.1-1.7-0.2-3.4-0.3-5.1c-0.3,0-0.6,0-0.9,0C560.5,685.6,560.5,687.3,560.5,689z"/>
		<path id="XMLID_1245_" class="st8" d="M457.9,679.9c0.6-5.2,5-2.7,7.4-4.2c0.1-1,0.2-2.2,0.2-3.3c0-11.7,0-23.4,0-35
			c0-4.2,1.1-8,4.1-11c6.9-7,18.5-4.1,21.2,5.3c0.3,0.9,0.5,1.7,0.8,2.8c5,0.4,6.3,4.7,8.9,7.7c-1.8,1.8-17,2.3-21,0.7
			c1.9-3.8,3.8-7.3,8.5-8.3c-0.2-3.3-1.6-5.8-4.2-7.4c-3.1-2-6.5-2.1-9.7-0.3c-3,1.7-5.1,4.2-5.1,7.7c-0.1,13.4-0.1,26.8-0.1,40.3
			c0,0.3,0.2,0.7,0.3,1.4c1.3,0.1,2.6,0.2,4,0.2c21.7,0,43.4,0,65.1,0c3.7,0,4.4,0.6,4,3.6C514.3,679.9,486.5,679.9,457.9,679.9z"/>
		<path id="XMLID_1235_" class="st8" d="M529.4,652.8c0-12,0-23.8,0-35.9c16.4,0,32.5,0,49,0c0,11.9,0,23.8,0,35.9
			C562.1,652.8,545.9,652.8,529.4,652.8z M533.4,620.7c0,9.6,0,18.8,0,28.1c13.9,0,27.4,0,41.1,0c0-9.5,0-18.7,0-28.1
			C560.7,620.7,547.1,620.7,533.4,620.7z"/>
		<path id="XMLID_1183_" class="st8" d="M578.4,664.8c-0.8,1.5-1.4,2.5-2,3.5c-6,0-11.8,0-18,0c-0.5-0.9-1.2-2-2.1-3.5
			C563.9,664.8,570.8,664.8,578.4,664.8z"/>
		<path id="XMLID_1182_" class="st8" d="M531.7,668.4c-0.6-1-1.2-2.1-2-3.6c7.4,0,14.3,0,21.8,0c-0.8,1.4-1.3,2.5-1.9,3.6
			C543.5,668.4,537.7,668.4,531.7,668.4z"/>
		<path id="XMLID_1085_" class="st8" d="M490.2,646.4c1.7,2.7,1.5,8.9-0.3,10.3C488,654.8,488.1,648.1,490.2,646.4z"/>
		<path id="XMLID_1075_" class="st8" d="M484.2,655.9c-2-1.1-1.4-6.7,0.9-9.5C486.7,647.6,486.3,652,484.2,655.9z"/>
		<path id="XMLID_1073_" class="st8" d="M494.7,646.3c2.4,2.8,3.1,8.5,1.2,9.5C494,653.3,493.3,648,494.7,646.3z"/>
		<path id="XMLID_1063_" class="st8" d="M539.6,663.4c0-2.3,0-4.1,0-6c2.5,0.2,2.9,1.2,2.1,5.6C541.2,663.1,540.5,663.2,539.6,663.4
			z"/>
		<path id="XMLID_1062_" class="st8" d="M568.4,663c-0.7,0.1-1.3,0.1-2.2,0.2c0-2,0-3.8,0-5.6C568.8,657.4,569.1,658,568.4,663z"/>
	</g>
	<g id="XMLID">
		<path id="XMLID_165_" class="st8" d="M1463.1,1098.2c-2-0.3-4.1-0.5-6.1-0.8c-2.3-0.3-4.7-0.4-7-0.7c-0.7-0.1-1.6-0.6-1.8-1.1
			c-0.2-0.5,0.3-1.5,0.7-1.9c6.6-5.9,13.2-11.7,19.8-17.5c0.7-0.6,1.7-0.9,2.7-1.1c3-0.7,6.1-1.1,9.1-1.8c1.5-0.4,3-1.1,4.2-2.1
			c10.5-9.4,22.6-15.4,36.3-18.3c1.9-0.4,3.8-0.8,5.8-0.9c2.8-0.2,4,1.1,3.5,3.8c-2.9,15-8.6,28.7-18.9,40.1
			c-1.9,2.1-2.9,4.3-3.4,6.9c-0.5,2.1-0.8,4.3-1.6,6.4c-0.7,1.9-1.5,3.8-2.8,5.2c-5,5.8-10.2,11.5-15.4,17.1c-0.6,0.7-1.6,1-2.4,1.4
			c-0.5-0.9-1.3-1.7-1.4-2.6c-0.3-3.1-0.4-6.2-0.6-9.2c0-0.6-0.4-1.2-0.6-1.8c-0.5,0.3-1.1,0.4-1.5,0.8c-1.2,1.5-2.2,0.9-3.1-0.3
			c-1.4-1.8-2.5-1.5-3.9,0.1c-3.3,3.8-2.6,3.9-6.4,0.2c-3-3-6-5.9-9.1-8.8c-1.1-1-1.2-1.8,0-2.7c0.6-0.5,1.1-1.1,1.6-1.6
			c1.5-1.3,2.7-2.5,0.4-4.2c-0.3-0.2-0.1-1.7,0.3-2.2c0.5-0.6,1.6-0.8,2.4-1.2C1463.6,1099.1,1463.3,1098.6,1463.1,1098.2z
			 M1521.9,1073.7c-0.4-0.3-0.8-0.9-1.2-1c-6-1.7-9.5-5.8-11.5-11.4c-0.4-1.1-1.1-1.5-2.3-0.8c-2.8,1.5-5.7,2.7-8.4,4.4
			c-12.3,7.3-21.4,17.7-28.2,30.2c-0.7,1.3-0.4,2.1,0.5,3c4.4,4.4,8.7,8.8,13,13.2c1.1,1.2,2.2,1.3,3.6,0.5
			c15.2-8.6,26.8-20.6,34-36.6C1521.5,1074.6,1521.6,1074.3,1521.9,1073.7z M1453.7,1093.5c0.1,0.2,0.2,0.5,0.3,0.7
			c3.8,0.3,7.6,0.8,11.4,0.9c0.8,0,1.8-0.9,2.3-1.7c3.4-4.9,6.8-9.9,10.1-14.9c0.3-0.5,0.6-1,0.8-1.4c-0.1-0.2-0.2-0.3-0.3-0.5
			c-3.1,1.2-6.7,0.7-9.5,3.2c-3.4,3.2-7,6.2-10.4,9.3C1456.9,1090.5,1455.3,1092,1453.7,1093.5z M1504.2,1104.2
			c-0.2-0.1-0.3-0.2-0.5-0.3c-0.6,0.4-1.1,0.8-1.7,1.2c-4.1,2.8-8,6-12.3,8.4c-2.7,1.5-3.7,3.1-3.1,6.1c0.5,2.5,0.5,5.1,0.7,8
			c0.7-0.4,1.1-0.6,1.4-0.9c4.4-4.9,9-9.7,13.3-14.8C1503.7,1109.8,1503.8,1106.9,1504.2,1104.2z M1527,1056.4
			c-0.6-0.4-1.2-1.2-1.7-1.1c-4,0.8-8,1.6-11.9,2.7c-0.6,0.2-1.4,1.3-1.4,1.9c0.1,4.1,5.6,9.7,9.7,9.7c0.7,0,1.8-0.6,2-1.2
			C1524.9,1064.6,1525.9,1060.7,1527,1056.4z M1467.4,1099.1c-0.9,0.8-1.8,1.5-2.4,2.4c-0.2,0.4,0.2,1.4,0.6,1.9
			c4.3,4.3,8.7,8.5,13,12.8c1,1,1.8,1.1,2.8,0c1-1.1,1.2-1.9,0.1-3.1c-4.2-4.2-8.3-8.5-12.5-12.7
			C1468.7,1100,1468.2,1099.7,1467.4,1099.1z M1474.2,1116.3c-0.4-0.7-0.7-1.2-1.1-1.6c-2.2-2.2-4.5-4.3-6.6-6.5
			c-1.3-1.3-2.1-0.5-3,0.4c-1,1-1.2,1.8-0.1,2.8c2.2,2.1,4.3,4.3,6.5,6.3c0.5,0.5,1.6,1,2.1,0.7
			C1472.8,1118.1,1473.4,1117.1,1474.2,1116.3z"/>
		<path id="XMLID_164_" class="st8" d="M1462.1,1120.9c-0.5,0.6-0.8,1.2-1.3,1.7c-8.2,8.1-16.5,16.1-24.7,24.1
			c-0.1,0.1-0.2,0.3-0.3,0.3c-0.8,0.1-1.7,0.2-2.5,0.3c0.2-0.8,0.1-1.8,0.5-2.2c3-3.1,6.1-6.1,9.2-9.1c5.3-5.2,10.7-10.4,16-15.6
			c0.5-0.5,1.4-0.7,2.1-0.7C1461.4,1119.7,1461.7,1120.4,1462.1,1120.9z"/>
		<path id="XMLID_163_" class="st8" d="M1441.5,1132.2c-0.5-0.4-1.1-0.7-1.2-1.1c-0.2-0.4-0.1-1.1,0.2-1.4c0.5-0.7,1.1-1.2,1.7-1.8
			c4.1-4.1,8.2-8.2,12.3-12.2c0.8-0.8,1.6-1.9,2.8-0.7c1.1,1.2,0,2-0.8,2.8c-4.4,4.4-8.9,8.8-13.3,13.2
			C1442.7,1131.4,1442.1,1131.7,1441.5,1132.2z"/>
		<path id="XMLID_162_" class="st8" d="M1451.6,1140.5c-0.5-0.4-1.1-0.6-1.2-1c-0.1-0.4,0-1.1,0.3-1.4c0.9-1,1.8-2,2.8-2.9
			c3.5-3.4,6.9-6.9,10.5-10.3c0.6-0.5,1.8-0.4,2.7-0.6c-0.2,0.8-0.1,1.9-0.6,2.5c-4.1,4.3-8.4,8.4-12.6,12.6
			C1452.9,1139.7,1452.3,1140,1451.6,1140.5z"/>
		<path id="XMLID_159_" class="st8" d="M1499.3,1072.3c4.6,0.1,8.8,4.3,8.8,8.9c0,4.6-4.4,9-9,8.9c-4.6-0.1-8.9-4.6-8.8-9.2
			C1490.3,1076.5,1494.7,1072.2,1499.3,1072.3z M1493.5,1081c-0.4,4,3.1,6.1,5.8,6.1c3,0,5.7-2.8,5.7-5.9c0-3.4-2.4-5.9-5.8-5.8
			C1495.7,1075.4,1493.5,1077.6,1493.5,1081z"/>
	</g>
	<g id="XMLID_134_">
		<path id="XMLID_193_" class="st8" d="M202.6,654.9c0-14.3,0-28.5,0-42.7c-0.2,0-0.3,0-0.5,0c-3.3,0-6.5,0-9.8,0
			c-1.6,0-2.8-0.7-3.4-2.2c-0.2-0.5-0.3-1.2-0.3-1.8c0-3.4,0-6.8,0-10.2c0-0.2,0-0.5,0-0.7c0-0.2-0.1-0.3-0.3-0.3c0,0-0.1,0-0.1,0
			c-0.6-0.1-1.1,0.1-1.6,0.6c-1.5,1.6-3,3.1-4.5,4.6c-0.4,0.4-0.9,0.6-1.5,0.6c-2,0-4,0-6,0c-1.1,0-1.5-0.8-1-1.7
			c0.9-1.6,1.8-3.2,2.8-4.8c0.1-0.2,0.1-0.4,0-0.6c-0.9-1.6-1.8-3.2-2.7-4.8c-0.1-0.1-0.1-0.2-0.2-0.3c-0.3-0.6,0-1.3,0.7-1.5
			c0.3-0.1,0.7,0,1,0c1.8,0,3.6,0,5.4,0c0.6,0,1.1,0.2,1.5,0.6c1.7,1.7,3.3,3.4,5,5c0.1,0.1,0.4,0.2,0.6,0.2c1.9,0,3.8,0,5.7,0
			c0.2,0,0.4-0.1,0.4-0.3c0.1-0.3,0.4-0.5,0.7-0.5c1.4,0,2.8,0,4.2,0c1.3,0,2,1,1.8,2.2c-0.1,0.5-0.4,0.9-0.9,1.1
			c-0.4,0.1-0.8,0.2-1.3,0.2c-1.2,0-2.4,0-3.6,0c-0.4,0-0.7-0.1-0.9-0.5c0-0.1-0.2-0.2-0.2-0.2c-1,0-2,0-3,0c0,0.1,0,0.3,0,0.4
			c0,3.6,0,7.3,0,10.9c0,1.2,0.6,1.8,1.8,1.8c3.2,0,6.5,0,9.7,0c0.4,0,0.4-0.1,0.4-0.4c0-0.4,0-0.8,0.1-1.2c0.3-1.4,1.6-2.4,3-2.3
			c1.4,0,2.6,1.1,2.8,2.5c0.1,0.4,0.1,0.9,0.1,1.4c0.1,0,0.2,0,0.3,0c2.8,0,5.6,0,8.4,0c0.3,0,0.4-0.1,0.4-0.4c0-1.1,0-2.3,0-3.4
			c0-0.7,0.4-1.1,1.1-1.2c0.3,0,0.4-0.1,0.4-0.4c0-0.9,0-1.7,0-2.6c0-1.7,0.7-3,2.3-3.6c0.1,0,0.2-0.1,0.2-0.2c0-1.6,0-3.1,0-4.7
			c-0.1,0-0.2,0-0.4,0c-1.1,0-2.1,0-3.2,0c-0.3,0-0.4,0.1-0.4,0.3c-0.5,1.6-1.5,2.8-3.1,3.4c-3.1,1.1-6.5-1.1-6.7-4.5
			c-0.1-2.3,1.1-4.3,3.1-5.1c2.8-1.2,6,0.4,6.8,3.3c0.1,0.4,0.2,0.4,0.6,0.4c0.9,0,1.8,0,2.7,0c0.2,0,0.4-0.1,0.5-0.3
			c0.6-0.9,1.8-0.9,2.5,0c0.2,0.2,0.3,0.3,0.6,0.3c0.9,0,1.8,0,2.7,0c0.3,0,0.4-0.1,0.4-0.3c0.6-2.1,2-3.4,4.1-3.8
			c2.9-0.5,5.6,1.7,5.8,4.6c0.2,2.9-1.6,4.7-3.5,5.3c-2.7,0.9-5.5-0.6-6.4-3.4c-0.1-0.4-0.3-0.4-0.6-0.4c-1,0-2,0-3,0
			c-0.3,0-0.4,0.1-0.4,0.4c0,1.4,0,2.8,0,4.3c0,0.2,0,0.3,0.2,0.4c1.5,0.7,2.2,2,2.2,3.6c0,0.9,0,1.8,0,2.6c0,0.2,0.1,0.3,0.3,0.3
			c0.8,0,1.2,0.4,1.1,1.2c0,0.9,0,1.8-0.1,2.6c-0.2,1.6-1.7,3-3.3,3.1c-0.3,0-0.7,0-1,0c-4.7,0-9.5,0-14.2,0c-0.1,0-0.3,0-0.5,0
			c0,8.5,0,16.9,0,25.4c0.1,0,0.2,0,0.3,0c2.6,0,5.2,0,7.9,0c0.3,0,0.4-0.1,0.4-0.4c0-0.4,0-0.7,0-1.2c-0.4,0-0.7,0-1,0
			c-0.2,0-0.4,0-0.6,0c-0.9,0-1.4-0.8-1-1.6c0.2-0.4,0.5-0.8,0.8-1.2c0.3-0.4,0.6-0.8,0.9-1.3c-0.3,0-0.4,0-0.6,0
			c-1,0-1.5-0.9-1-1.7c0.4-0.7,0.9-1.4,1.4-2.1c0.1-0.1,0.1-0.2,0.3-0.4c-0.3,0-0.5,0-0.8,0c-0.9,0-1.4-0.9-0.9-1.6
			c0.4-0.8,1-1.5,1.5-2.2c0.1-0.1,0.1-0.2,0.3-0.4c-0.3,0-0.5,0-0.7,0c-0.8,0-1.2-0.4-1.1-1.2c0.1-0.6,0.1-1.3,0.3-1.9
			c0.9-3,3.4-4.9,6.5-5c1.5,0,3-0.1,4.5,0c3.1,0.3,5.5,2.3,6.2,5.4c0.1,0.5,0.2,1,0.2,1.5c0.1,0.7-0.4,1.1-1.1,1.2
			c-0.2,0-0.5,0-0.8,0c0.4,0.6,0.8,1.1,1.2,1.7c0.2,0.3,0.4,0.6,0.5,0.8c0.4,0.8,0,1.6-1,1.7c-0.2,0-0.4,0-0.7,0
			c0.1,0.1,0.1,0.2,0.2,0.3c0.4,0.6,0.8,1.2,1.2,1.8c0.1,0.2,0.2,0.3,0.3,0.5c0.3,0.7-0.1,1.4-0.9,1.5c-0.2,0-0.5,0-0.8,0
			c0.1,0.2,0.2,0.3,0.2,0.4c0.4,0.7,0.9,1.3,1.3,2c0.2,0.3,0.3,0.6,0.2,0.9c0,0.5-0.4,0.9-1,0.9c-0.5,0-1,0-1.6,0c0,0.4,0,0.7,0,1.1
			c0,0.6,0,1.2,0,1.8c0,1.3-0.9,2.3-2.2,2.5c-0.3,0-0.6,0.1-0.9,0.1c-2.2,0-4.5,0-6.7,0c-1.2,0-2.1-0.4-2.6-1.6
			c0-0.1-0.3-0.2-0.4-0.2c-2.3,0-4.6,0-6.9,0c-0.4,0-0.7,0-1.1,0c-0.3,0-0.4,0.1-0.4,0.4c0,2.2,0,4.4,0,6.6c0,2.6,0,5.2,0,7.8
			c0,0.1,0,0.2,0,0.4c0.1,0,0.3,0,0.4,0c1.2,0,2.3,0,3.5,0c1.3,0.1,2.3,0.8,2.7,2.1c0.1,0.4,0.2,0.8,0.2,1.3c0,0.8,0,1.6,0,2.4
			c0.2,0,0.5,0,0.7,0c1.7,0,3.3,0,5,0c0.6,0,1,0.3,1.1,0.8c0.2,0.7-0.3,1.3-1.1,1.3c-3,0-5.9,0-8.9,0c-7.3,0-14.6,0-21.9,0
			c-0.5,0-0.9-0.2-1.1-0.7c-0.2-0.4,0-1,0.3-1.2c0.2-0.2,0.6-0.2,0.8-0.2c1.8,0,3.5,0,5.3,0c0.4,0,0.4-0.1,0.4-0.4
			c0-0.8,0-1.5,0-2.3c0-1.6,1.2-3,2.9-3.1c1.1-0.1,2.2,0,3.3,0C202.3,654.9,202.4,654.9,202.6,654.9z M206.5,631.9
			C206.5,631.9,206.5,631.9,206.5,631.9c0-5.9,0-11.7,0-17.6c0-1.7,0-3.4,0-5c0-0.6-0.3-1-0.7-1c-0.6-0.1-1.1,0.3-1.1,1
			c0,3.3,0,6.7,0,10c0,11.7,0,23.3,0,35c0,0.2,0,0.3,0,0.5c0,0.2,0.1,0.3,0.3,0.3c0.3,0,0.7,0,1,0c0.5,0,0.5,0,0.5-0.5
			C206.5,646.9,206.5,639.4,206.5,631.9z M205.5,660.8C205.5,660.8,205.5,660.8,205.5,660.8c2.4,0,4.8,0,7.2,0
			c0.3,0,0.4-0.1,0.4-0.4c0-0.7,0-1.5,0-2.2c0-0.7-0.4-1.1-1.1-1.1c-4.3,0-8.6,0-12.9,0c-0.7,0-1.1,0.4-1.1,1.1c0,0.7,0,1.5,0,2.2
			c0,0.3,0.1,0.4,0.4,0.4C200.8,660.8,203.2,660.8,205.5,660.8z M230,621.5c0-0.1,0-0.2,0-0.3c-0.5-2.1-2.3-3.6-4.4-3.6
			c-1.4,0-2.9,0-4.3,0c-2.2,0-4.1,1.5-4.6,3.7c0,0.1,0,0.1,0,0.2C221.1,621.5,225.5,621.5,230,621.5z M227.6,636.1
			c-2.9,0-5.7,0-8.6,0c0,0.9,0,1.8,0,2.7c0,0.5,0.2,0.7,0.7,0.7c0.9,0,1.7,0,2.6,0c1.5,0,3.1,0,4.6,0c0.4,0,0.7-0.1,0.7-0.5
			C227.7,638,227.6,637.1,227.6,636.1z M232.5,595.5c1.6,0,2.9-1.3,2.9-2.9c0-1.6-1.3-3-2.9-3c-1.6,0-3,1.4-3,3
			C229.6,594.2,230.9,595.5,232.5,595.5z M209.9,592.5c0,1.7,1.2,2.9,2.9,2.9c1.6,0,2.9-1.3,2.9-2.9c0-1.6-1.3-2.9-2.9-2.9
			C211.2,589.6,209.9,590.9,209.9,592.5z M229.7,634c-0.4-0.7-0.8-1.4-1.3-2c0-0.1-0.2-0.1-0.3-0.1c-3.2,0-6.5,0-9.7,0
			c-0.1,0-0.3,0-0.3,0.1c-0.4,0.6-0.8,1.3-1.3,2C221.2,634,225.4,634,229.7,634z M216.9,625.7c4.3,0,8.5,0,12.7,0c0-0.1,0-0.1,0-0.1
			c-0.4-0.6-0.7-1.2-1.1-1.8c-0.1-0.1-0.2-0.1-0.4-0.1c-0.8,0-1.5,0-2.3,0c-2.4,0-4.8,0-7.2,0c-0.2,0-0.4,0-0.5,0.2
			C217.7,624.4,217.3,625,216.9,625.7z M229.7,629.9c-0.4-0.7-0.8-1.3-1.2-2c-0.1-0.1-0.2-0.1-0.3-0.1c-3.2,0-6.5,0-9.7,0
			c-0.1,0-0.3,0-0.3,0.1c-0.4,0.6-0.8,1.3-1.3,2C221.2,629.9,225.4,629.9,229.7,629.9z M176.3,591.2c0,0.1,0.1,0.1,0.1,0.2
			c0.7,1.1,1.3,2.3,2,3.4c0.1,0.1,0.2,0.2,0.4,0.2c1.8,0,3.5,0,5.3,0c0.1,0,0.2,0,0.4,0c0-0.1-0.1-0.1-0.1-0.1
			c-1.1-1.1-2.3-2.3-3.4-3.4c-0.1-0.1-0.3-0.2-0.5-0.2c-1.2,0-2.5,0-3.7,0C176.5,591.2,176.4,591.2,176.3,591.2z M176.3,600.7
			c0.1,0,0.2,0,0.2,0c1.3,0,2.6,0,4,0c0.2,0,0.3-0.1,0.5-0.2c1.1-1.1,2.1-2.1,3.2-3.2c0.1-0.1,0.1-0.1,0.2-0.3c-0.2,0-0.3,0-0.5,0
			c-1.4,0-2.9,0.1-4.3,0c-0.9,0-1.4,0.2-1.8,1C177.4,598.9,176.8,599.8,176.3,600.7z M219.7,610.1c0.1,0,0.3,0,0.4,0
			c1.1,0,2.2,0,3.2,0c0.2,0,0.4,0,0.5,0c1-0.1,1.7-0.7,1.7-1.8c0-0.3,0-0.5,0-0.8c0-0.3-0.1-0.4-0.4-0.4c-1.7,0-3.4,0-5.1,0
			c-0.1,0-0.2,0-0.4,0C219.7,608.2,219.7,609.2,219.7,610.1z M221.2,605.2c0.9,0,1.7,0,2.6,0c0.2,0,0.3-0.1,0.3-0.3c0-1,0-2,0-3
			c0-0.9-0.7-1.5-1.4-1.5c-0.8,0-1.4,0.7-1.4,1.5c0,0.9,0,1.7,0,2.6C221.2,604.8,221.2,605,221.2,605.2z"/>
	</g>
</g>
<g id="Ebene_7">
	<rect id="heizungboiler" x="534" y="1079.8" class="st5" width="57" height="93.9"/>
	<g id="XMLID_132_">
		<path id="XMLID_130_" class="st9" d="M537.4,1076.5h49.9c3.4,0,6.2,2.8,6.2,6.2v87.3c0,3.4-2.8,6.2-6.2,6.2h-49.9
			c-3.4,0-6.2-2.8-6.2-6.2v-87.3C531.2,1079.3,534,1076.5,537.4,1076.5z"/>
		<path id="XMLID_135_" class="st9" d="M553,1064h18.7 M562.4,1064v12.5"/>
		<path id="XMLID_127_" class="st9" d="M512.5,1095.2h18.7"/>
		<path id="XMLID_126_" class="st9" d="M512.5,1157.6h18.7"/>
		<path id="XMLID_125_" class="st9" d="M593.6,1126.4h18.7"/>
	</g>
	<polygon id="feld2" class="st10" points="0,454 289,454 900,266 900,0 0,0 	"/>
	<polygon id="feld1" class="st10" points="2000,454 1711,454 1100,266 1100,0 2000,0 	"/>
	<rect id="stromnutzung" x="10" y="10" class="st5" width="700" height="381.5"/>
	<rect id="stromnutzunginfo" x="720" y="10" class="st5" width="170" height="250"/>
	<rect id="stromverteilunginfo" x="1110" y="10" class="st5" width="170" height="250"/>
	<rect id="stromverteilung2" x="1605" y="11" class="st5" width="379" height="380.7"/>
	<rect id="stromverteilung" x="1290" y="11.2" class="st5" width="350" height="381.5"/>
	<rect id="pvgarage" x="146.4" y="873.1" class="st7" width="152.1" height="5"/>
	
		<rect id="pvost" x="999.9" y="367.9" transform="matrix(0.9557 0.2943 -0.2943 0.9557 160.949 -328.5563)" class="st7" width="344" height="5"/>
	
		<rect id="pvwest" x="1338.2" y="471.9" transform="matrix(0.9557 0.2943 -0.2943 0.9557 206.5531 -423.5254)" class="st7" width="344" height="5"/>
	<rect id="eingang" x="301.7" y="822.5" class="st5" width="74.7" height="99.8"/>
	<rect id="stromog" x="1630.1" y="617.5" class="st5" width="130" height="80"/>
	<rect id="stromeg" x="1630.1" y="820.4" class="st5" width="130" height="80"/>
	<rect id="stromug" x="1640" y="1055.1" class="st5" width="130" height="80"/>
	<rect id="stromgarage" x="157.5" y="974.9" class="st5" width="130" height="80"/>
	<rect id="wetterstation" y="515" class="st5" width="279.7" height="250"/>
	<rect id="garage" x="172" y="900.8" class="st5" width="100.5" height="72.6"/>
	<rect id="mull" x="32.5" y="879" class="st5" width="59.8" height="94.4"/>
</g>
<g id="Ebene_8">
	<polyline id="energy_bat_eg1" class="st5" points="758.2,1119.7 758.2,1176.3 1616.1,1176.3 1616.1,742.6 987.2,742.6 
		987.2,758.7 	"/>
	<polyline id="energy_bat_eg2" class="st5" points="758.2,1119.7 758.2,1176.3 1616.1,1176.3 1616.1,742.6 1247.8,742.6 
		1247.8,758.7 	"/>
	<polyline id="energy_bat_eg3" class="st5" points="758.2,1119.7 758.2,1176.3 1616.1,1176.3 1616.1,742.6 1489.3,742.6 
		1489.3,758.7 	"/>
	<polyline id="energy_bat_eg4" class="st5" points="758.2,1119.7 758.2,1176.3 1616.1,1176.3 1616.1,742.6 752.6,742.6 
		752.6,758.7 	"/>
	<polyline id="energy_bat_eg5" class="st5" points="758.2,1119.7 758.2,1176.3 1616.1,1176.3 1616.1,742.6 507.2,742.6 
		507.2,758.7 	"/>
</g>
</svg>
