<?xml version="1.0" encoding="utf-8"?>
<!-- Generator: Adobe Illustrator 19.0.0, SVG Export Plug-In . SVG Version: 6.00 Build 0)  -->
<svg version="1.1" xmlns="http://www.w3.org/2000/svg" xmlns:xlink="http://www.w3.org/1999/xlink" x="0px" y="0px"
	 viewBox="0 0 2000 1200" style="enable-background:new 0 0 2000 1200;" xml:space="preserve">
<style type="text/css">
	.st0{fill:url(#XMLID_136_);}
	.st1{display:none;}
	.st2{fill:none;stroke:#4D566A;stroke-width:9;stroke-linecap:round;stroke-linejoin:round;stroke-miterlimit:10;}
	.st3{fill:none;stroke:#000000;stroke-linejoin:round;stroke-miterlimit:10;}
	.st4{fill:none;stroke:#4D566A;stroke-width:6;stroke-linecap:round;stroke-linejoin:round;stroke-miterlimit:10;}
	.st5{fill:none;}
	.st6{fill:none;stroke:#4D566A;stroke-width:5;stroke-linecap:round;stroke-linejoin:round;stroke-miterlimit:10;}
	.st7{fill:#D8DEE9;}
	.st8{fill:#4D566A;}
	.st9{fill:none;stroke:#4D566A;stroke-width:6;stroke-miterlimit:10;}
	.st10{fill:#2E3440;}
</style>
<g id="Ebene_2">
	<radialGradient id="XMLID_136_" cx="1000" cy="600" r="824.6212" gradientUnits="userSpaceOnUse">
		<stop  offset="0" style="stop-color:#434C5E"/>
		<stop  offset="1" style="stop-color:#2E3440"/>
	</radialGradient>
	<rect id="XMLID_34_" class="st0" width="2000" height="1200"/>
</g>
<g id="Ebene_3" class="st1">
</g>
<g id="Ebene_5">
	<line id="XMLID_79_" class="st2" x1="0" y1="977.8" x2="337.3" y2="977.8"/>
	<line id="XMLID_27_" class="st2" x1="1662.7" y1="977.8" x2="2000" y2="977.8"/>
	<g id="haus">
		<polyline id="XMLID_86_" class="st2" points="1662.7,441.3 1662.7,1204 337.3,1204 337.3,441.3 		"/>
		<polyline id="XMLID_87_" class="st2" points="336.8,441.3 279.7,441.3 1000,207 		"/>
		<polyline id="XMLID_28_" class="st2" points="1663.2,441.3 1720.3,441.3 1000,207 		"/>
	</g>
</g>
<g id="Ebene_1">
	<rect id="egbad" x="349.4" y="676.7" class="st3" width="260.4" height="261.2"/>
	<rect id="egwohnzimmer" x="609.8" y="676.7" class="st3" width="260.4" height="261.2"/>
	<rect id="egkuche" x="870.3" y="676.7" class="st3" width="260.4" height="261.2"/>
	<rect id="egflur" x="1130.7" y="676.7" class="st3" width="260.4" height="261.2"/>
	<rect id="egburo" x="1391.1" y="676.7" class="st3" width="260.4" height="261.2"/>
	<rect id="ogbad" x="349.4" y="440.6" class="st3" width="325.5" height="236"/>
	<rect id="ogschlafzimmer" x="675.4" y="440.4" class="st3" width="325.5" height="236"/>
	<rect id="ogkind1" x="1000.5" y="440.6" class="st3" width="325.5" height="236"/>
	<rect id="ogkind2" x="1326" y="440.6" class="st3" width="325.5" height="236"/>
	<rect id="heizung" x="349.4" y="938.3" class="st3" width="260.4" height="261.7"/>
	<rect id="batterie" x="609.8" y="938.3" class="st3" width="260.4" height="261.7"/>
	<rect id="luftung" x="870.1" y="937.9" class="st3" width="260.4" height="261.7"/>
	<rect id="ugburo" x="1130.4" y="937.9" class="st3" width="260.4" height="261.7"/>
	<rect id="ughobby" x="1390.8" y="937.9" class="st3" width="260.4" height="261.7"/>
	<g id="XMLID_41_">
		<polygon id="XMLID_76_" class="st4" points="159.5,978.1 159.5,897.1 146.4,897.1 146.4,885.5 298.5,885.5 298.5,897.1 
			285.4,897.1 285.4,978.1 		"/>
		<rect id="XMLID_78_" x="168" y="897.1" class="st4" width="108.2" height="81"/>
	</g>
	<g id="gewachshausShape">
		<polygon id="XMLID_81_" class="st4" points="1784.4,978.1 1784.4,857.7 1774.4,857.7 1880.4,784.3 1982.5,857.7 1976.5,857.7 
			1976.5,978.1 		"/>
		<polyline id="XMLID_82_" class="st4" points="1784.4,857.7 1926.4,857.7 1976.5,857.7 		"/>
		<polyline id="XMLID_84_" class="st4" points="1880.4,784.3 1798.4,857.7 1798.4,978.1 		"/>
		<polyline id="XMLID_83_" class="st4" points="1838.4,857.7 1880.4,784.3 1962.5,857.7 1962.5,978.1 		"/>
		<line id="XMLID_85_" class="st4" x1="1922.4" y1="857.7" x2="1880.4" y2="784.3"/>
	</g>
	<rect id="zisterne" x="35.7" y="989" class="st5" width="72.7" height="206"/>
	<rect id="gewachshaus" x="1798.4" y="857.7" class="st5" width="164.1" height="120.4"/>
	<polyline id="XMLID_26_" class="st6" points="337.3,773 204.5,792.7 203.9,788.5 337.3,768.9 	"/>
	<polyline id="XMLID_30_" class="st4" points="32.5,993 32.5,1198 110.8,1198 110.8,993 	"/>
</g>
<g id="Ebene_6">
	<g id="XMLID_139_">
		<path id="XMLID_144_" class="st7" d="M808.6,956.2c-0.7,0.4-1.1,1.3-1,2l0.1,0.5l-5.9,0.1c-5.6,0.1-5.9,0.1-6.8,0.5
			c-1.4,0.6-2.7,2.1-3.4,3.7l-0.6,1.3v33.4v33.4l0.6,1.3c0.7,1.6,2,3.1,3.4,3.7l1,0.4h18.7h18.7l1-0.4c1.4-0.6,2.8-2.2,3.4-3.8
			l0.5-1.2v-33.4v-33.4l-0.6-1.3c-0.7-1.6-2-3.1-3.4-3.7c-0.9-0.4-1.2-0.4-6.3-0.5l-5.4-0.1l0.1-0.4c0.1-0.7-0.4-1.8-1.1-2.1
			C820.7,955.7,809.4,955.7,808.6,956.2z M833.1,962.9c0.7,0.3,1.2,0.9,1.6,1.8c0.3,0.7,0.3,2.1,0.3,33c0,35,0.1,32.9-0.9,34.1
			c-0.9,1.1,0.1,1-19.6,1c-20,0-18.8,0.1-19.7-1.2c-0.3-0.3-0.5-0.9-0.6-1.3c-0.2-1-0.2-64.2,0-65.2c0.2-0.9,0.9-1.9,1.6-2.2
			C796.6,962.6,832.4,962.6,833.1,962.9z"/>
		<path id="batterie-icon-4" class="st8" d="M797.2,974v6.7h17.4H832V974v-6.7h-17.4h-17.4V974z"/>
		<path id="batterie-icon-3" class="st8" d="M797.2,989.8v6.7h17.4H832v-6.7V983h-17.4h-17.4V989.8z"/>
		<path id="batterie-icon-2" class="st8" d="M797.2,1005.6v6.7h17.4H832v-6.7v-6.7h-17.4h-17.4V1005.6z"/>
		<path id="batterie-icon-1" class="st8" d="M797.2,1021.5v6.7h17.4H832v-6.7v-6.7h-17.4h-17.4V1021.5z"/>
	</g>
	<g id="XMLID_35_">
		<path id="XMLID_1264_" class="st8" d="M1208.7,628.3c-2,0-3.5,0-5.3,0c-0.2-1.9-0.4-3.6-0.6-5.6c-1.3-0.1-2.5-0.3-3.8-0.3
			c-14.5,0-29.1,0-43.6,0c-6.5,0-10.5-2.1-14.4-7.4c0-8.9,0-17.8,0-27c-1.5,0-2.9,0-4.7,0c0,7.9,0,15.7,0,23.8
			c-1.2-0.2-1.9-0.3-2.9-0.4c0-7.8,0-15.4,0-23.3c-1.7,0-3,0-4.6,0c0,3,0,6.1,0,9.2c1.3,0.3,2.5,0.5,3.9,0.9c0,2.2,0,4.3,0,6.5
			c-1.2,0-2.2,0-3.6,0c-0.1-1.6-0.2-3.2-0.3-4.8c-0.1,0-0.3,0-0.4,0c0,3.7,0,7.3,0,11.2c-0.9,0.2-1.7,0.4-2.8,0.6c0-8,0-15.6,0-23.5
			c-1.8,0-3.3,0-5.1,0c0,8.5,0,17.1,0,26.2c-2.7,2.7-5.6,5.2-8.1,8.2c-1.3,1.6-1.9,3.8-3.4,5.9c-0.1-1.1-0.4-2.2-0.4-3.3
			c0-13.6,0-27.2,0-40.8c0-1.6-0.5-3.3-0.4-4.9c0.1-1.3,0.6-2.9,1.6-3.7c0.7-0.6,2.8-0.5,3.4,0.2c0.8,0.9,1.1,2.5,1.2,3.8
			c0.1,1.3-0.2,2.6-0.3,4c29.8,0,59.2,0,89,0c-0.2-1.4-0.5-2.7-0.4-3.9c0.2-1.4,0.4-3.1,1.3-4.1c0.6-0.6,2.8-0.7,3.4-0.1
			c0.9,0.9,1.3,2.6,1.5,3.9c0.2,1.1-0.3,2.4-0.3,3.5c0,13.9,0,27.8,0,41.7C1208.7,625.8,1208.7,626.9,1208.7,628.3z M1191.9,588
			c0,9,0,17.7,0,26.4c1.7,0,3.2,0,4.8,0c0-8.9,0-17.6,0-26.4C1195.1,588,1193.7,588,1191.9,588z M1172.9,614.6c0-9.1,0-17.9,0-26.6
			c-1.7,0-3.1,0-4.7,0c0,8.9,0,17.5,0,26.3c0.7,0.1,1.2,0.2,1.8,0.3C1170.8,614.6,1171.8,614.6,1172.9,614.6z M1144.5,587.9
			c0,8.8,0,17.6,0,26.4c1.5,0,2.9,0,4.6,0c0-8.9,0-17.6,0-26.4C1147.5,587.9,1146.2,587.9,1144.5,587.9z M1157.1,588.1
			c-1.6,0-3,0-4.7,0c0,8.9,0,17.6,0,26.3c1.7,0,3.2,0,4.7,0C1157.1,605.4,1157.1,596.8,1157.1,588.1z M1160.4,588c0,9,0,17.7,0,26.4
			c1.6,0,3,0,4.5,0c0-8.9,0-17.5,0-26.4C1163.3,588,1162,588,1160.4,588z M1184.1,588c0,9,0,17.6,0,26.4c1.6,0,3,0,4.5,0
			c0-8.9,0-17.5,0-26.4C1187,588,1185.7,588,1184.1,588z M1176.3,588c0,9,0,17.7,0,26.4c1.7,0,3.1,0,4.5,0c0-8.9,0-17.6,0-26.4
			C1179.2,588,1177.9,588,1176.3,588z M1117.4,614.5c0-9,0-17.7,0-26.6c-1.1,0.1-2,0.1-2.9,0.2c0,6,0,11.8,0,17.4
			c0.9,0.5,1.6,0.8,2.4,1.2c0,2.3,0,4.4,0,6.5c-0.8,0.4-1.4,0.7-2.6,1.3C1115.7,614.5,1116.4,614.5,1117.4,614.5z M1200.1,587.8
			c0,9,0,17.8,0,26.7c0.9,0,1.7,0,2.4,0c0-0.1,0.1-0.3,0.1-0.4c-0.7-0.3-1.4-0.5-2.2-0.8c0-2.3,0-4.5,0-6.7c0.9-0.4,1.7-0.8,2.4-1.2
			c0-5.8,0-11.4,0-17.2C1202.1,588,1201.4,588,1200.1,587.8z"/>
		<path id="XMLID_1228_" class="st8" d="M1151.8,633.7c-1.2,0.2-2.6,0.5-4.1,0.7c-3.7,5-8,5-11.6-0.1c-2.8,0-5.7,0-8.6,0
			c-4.1,5.8-8.8,4.4-11.5,0.2c-4.4-0.9-4.2-0.9-3.6-5.4c0.5-3.1,0.8-6,4.4-7.2c0.6-0.2,1-1.3,1.3-2c3.4-9.1,19.9-9.2,23.5-1
			c0.9,2,2.4,2.9,4.6,3.3C1151,623,1153.5,628.1,1151.8,633.7z M1131.1,622.3c3,0,5.6,0,8.3,0c-1.5-4.6-4.4-6.4-8.3-5.3
			C1131.1,618.6,1131.1,620.3,1131.1,622.3z M1128.3,622.4c0-2,0-3.8,0-5.6c-3.6-0.5-6.1,1.4-7.1,5.6
			C1123.6,622.4,1125.8,622.4,1128.3,622.4z M1121.8,636c1.1-1.6,2.3-2.6,2.2-3.3c-0.2-0.9-1.4-2.1-2.3-2.3
			c-0.6-0.1-2.1,1.3-2.1,2.1C1119.5,633.5,1120.7,634.4,1121.8,636z M1140.7,630c-0.4,0.4-0.8,0.8-1.2,1.1c0.4,1.1,0.5,2.5,1.2,3.3
			c0.4,0.4,2.1,0.2,2.8-0.3c0.5-0.4,0.8-2.2,0.5-2.5C1143.1,630.8,1141.8,630.5,1140.7,630z"/>
		<path id="XMLID_1211_" class="st8" d="M1198.8,545.6c-0.6,2.8-1.2,5.2-1.8,7.9c1,0.9,2.5,1.8,3.5,3.1c1.3,1.6,2.7,3.3,3.5,5.2
			c1.1,2.7-0.3,4.8-3,5.9c1,4.2,0.2,7.7-3.6,9.9c-2.9,1.6-5.5,0.8-7.7-1.6c-1.6,0-3,0-4.8,0c-2.2,2.4-5,3.4-8.1,1.3
			c-3.4-2.3-4.3-5.6-3.1-9.4c-4.2-2.9-4.5-5.8-1.2-9.8c1.5-1.8,3-3.8,5.1-6.5c-0.8-1.9-2.1-5.2-3.6-8.5c-1.1-2.4-0.7-5.1,1.6-6.9
			c2.5-2.1,4.9-1.4,7,0.3c3.1,0,6,0,9.5,0c3.3-2.1,5.9-2.1,8,0.5C1202.2,539.9,1201.7,542.6,1198.8,545.6z M1187.2,539.2
			c-4.5,0-8.1,3.4-8.2,7.9c-0.1,4.5,3.8,8.4,8.4,8.4c4.5,0,8.1-3.5,8.2-8C1195.7,542.8,1192.1,539.3,1187.2,539.2z M1179.1,565.1
			c4.9,0.9,6.1,4.4,6.8,8.3c1.2-0.1,2.2-0.2,3.2-0.2c0.1-4.2,2.3-6.7,6.3-8.5c-1-2.6-1.9-5.1-2.6-6.9c-4,0-7.1,0-10.9,0
			C1181.1,559.7,1180.2,562.2,1179.1,565.1z M1198.7,570.6c0-1.6-1.1-2.8-3.2-2.9c-1.9,0-3.8,2.3-3.8,4.7c0,1.8,0.6,3.3,2.7,3.5
			C1196.5,576.1,1198.7,573.5,1198.7,570.6z M1176.1,569.9c-0.1,3.4,1.9,6,3.9,6c2.1,0,2.9-1.3,3-3.2c0.1-2.5-1.8-5.1-3.9-4.7
			C1177.8,568.2,1176.7,569.4,1176.1,569.9z M1173,564.2c0.2,0.3,0.5,0.7,0.7,1c1.1-0.5,2.6-0.8,3.1-1.7c1.2-2.4,1.9-5,3-8.2
			C1176.4,558.1,1173,559.9,1173,564.2z M1201,565.1c1.2-3.3-1.7-7.5-6.2-8.9C1197.8,558.4,1195.5,564.4,1201,565.1z M1197.4,542.6
			c0.4-0.1,0.7-0.1,1.1-0.2c-0.2-1.2,0-2.6-0.7-3.4c-0.5-0.7-2-0.6-3-0.8c-0.1,0.3-0.1,0.5-0.2,0.8
			C1195.5,540.2,1196.5,541.4,1197.4,542.6z M1176.3,542.4c0.3,0.1,0.5,0.1,0.8,0.2c1-1.3,2-2.5,3.1-3.8c-0.1-0.3-0.3-0.5-0.4-0.8
			c-1,0.4-2.4,0.5-3,1.2C1176.1,539.9,1176.4,541.3,1176.3,542.4z"/>
		<path id="XMLID_1190_" class="st8" d="M1164.5,575.3c-3.7,0-7.3,0-11.2,0c0-3.7,0-7.3,0-11.1c3.7,0,7.2,0,11.2,0
			C1164.5,567.7,1164.5,571.4,1164.5,575.3z"/>
		<path id="XMLID_1189_" class="st8" d="M1136.1,564.3c0,3.7,0,7.1,0,10.9c-3.8,0-7.4,0-11.3,0c0-3.7,0-7.1,0-10.9
			C1128.5,564.3,1132.1,564.3,1136.1,564.3z"/>
		<path id="XMLID_1188_" class="st8" d="M1139,539.3c3.7,0,7.2,0,11,0c0,3.6,0,7.1,0,11c-3.6,0-7.1,0-11,0
			C1139,546.8,1139,543.3,1139,539.3z"/>
		<path id="XMLID_1187_" class="st8" d="M1150.1,575.3c-3.6,0-7.1,0-10.9,0c0-3.7,0-7.2,0-11c3.6,0,7.1,0,10.9,0
			C1150.1,567.9,1150.1,571.5,1150.1,575.3z"/>
		<path id="XMLID_1186_" class="st8" d="M1143.3,551.9c0,3.8,0,7.2,0,10.8c-3.8,0-7.3,0-11.2,0c0-3.6,0-7.1,0-10.8
			C1135.7,551.9,1139.4,551.9,1143.3,551.9z"/>
		<path id="XMLID_1184_" class="st8" d="M1159.4,562.7c-5.2,0-9.6,0-14.7,0c2.4-4.4,4.5-8.3,6.7-12.1c0.3,0,0.7-0.1,1-0.1
			C1154.7,554.3,1156.9,558.2,1159.4,562.7z"/>
		<path id="XMLID_1084_" class="st8" d="M1140.5,606.3c0,2.6,0,4.9,0,7.6c-1.4-0.6-2.4-1.1-3.5-1.6c0-2,0-3.9,0-6
			C1138.2,606.3,1139.2,606.3,1140.5,606.3z"/>
		<path id="XMLID_1077_" class="st8" d="M1124.7,604.7c-1.1,0-2,0-3.1,0c0-2.1,0-4.1,0-6.4c1-0.1,1.9-0.2,3.1-0.4
			C1124.7,600.2,1124.7,602.3,1124.7,604.7z"/>
		<path id="XMLID_1074_" class="st8" d="M1124.7,606.3c0,1.8,0,3.5,0,5.5c-0.9,0.4-1.8,0.8-3.2,1.4c0-2.4,0-4.5,0-6.9
			C1122.5,606.3,1123.5,606.3,1124.7,606.3z"/>
		<path id="XMLID_1072_" class="st8" d="M1129.2,611.3c0-1.9,0-3.4,0-5c1.2,0,2.2,0,3.5,0c0,1.8,0,3.4,0,5
			C1131.5,611.3,1130.5,611.3,1129.2,611.3z"/>
		<path id="XMLID_1065_" class="st8" d="M1137.1,599.3c3.2,0.8,3.9,2.1,3,5.4c-0.5,0.1-1,0.2-1.5,0.2c-0.4,0-0.9-0.1-1.5-0.3
			C1137.1,602.9,1137.1,601.2,1137.1,599.3z"/>
		<path id="XMLID_1009_" class="st8" d="M1187.2,539.2c4.8,0,8.5,3.6,8.4,8.3c-0.1,4.4-3.7,7.9-8.2,8c-4.6,0-8.5-3.8-8.4-8.4
			C1179.1,542.7,1182.7,539.2,1187.2,539.2z M1187.1,552.3c1.1-0.8,2-1.4,2.9-2.1c-0.1-0.4-0.1-0.8-0.2-1.2
			c-1.6-0.1-3.1-0.2-4.7-0.3c-0.1,0.4-0.2,0.7-0.3,1.1C1185.5,550.6,1186.2,551.3,1187.1,552.3z"/>
		<path id="XMLID_1008_" class="st8" d="M1179.1,565.1c1-2.9,1.9-5.4,2.7-7.4c3.8,0,6.9,0,10.9,0c0.7,1.9,1.6,4.3,2.6,6.9
			c-4,1.8-6.1,4.3-6.3,8.5c-1,0.1-1.9,0.1-3.2,0.2C1185.3,569.4,1184.1,566,1179.1,565.1z"/>
		<path id="XMLID_976_" class="st8" d="M1196.2,606.3c0,2.5,0,4.7,0,7.2c-1.3,0-2.3,0-3.7,0c0-2.3,0-4.6,0-7.2
			C1193.8,606.3,1194.8,606.3,1196.2,606.3z"/>
		<path id="XMLID_975_" class="st8" d="M1168.7,613.5c0-2.5,0-4.8,0-7.4c1.3,0,2.3,0,3.7,0c0,2.5,0,4.8,0,7.4
			C1171.1,613.5,1170.2,613.5,1168.7,613.5z"/>
		<path id="XMLID_974_" class="st8" d="M1145,606c1.4,0.1,2.3,0.1,3.4,0.2c0,2.4,0,4.6,0,7.2c-1,0.1-2,0.1-3.4,0.2
			C1145,611,1145,608.7,1145,606z"/>
		<path id="XMLID_973_" class="st8" d="M1156.4,613.6c-1.4,0-2.3,0-3.4,0c0-2.4,0-4.7,0-7.3c1.1,0,2.1,0,3.4,0
			C1156.4,608.8,1156.4,611,1156.4,613.6z"/>
		<path id="XMLID_972_" class="st8" d="M1164.3,613.5c-1.2,0-2.3,0-3.5,0c0-2.5,0-4.8,0-7.3c1.2,0,2.2,0,3.5,0
			C1164.3,608.7,1164.3,610.9,1164.3,613.5z"/>
		<path id="XMLID_971_" class="st8" d="M1188.2,613.6c-1.2,0-2.2,0-3.4,0c0-2.4,0-4.7,0-7.3c1.1-0.1,2.1-0.1,3.4-0.2
			C1188.2,608.7,1188.2,611,1188.2,613.6z"/>
		<path id="XMLID_970_" class="st8" d="M1176.8,613.5c0-2.5,0-4.8,0-7.3c1.2,0,2.2,0,3.5,0c0,2.4,0,4.7,0,7.3
			C1179.1,613.5,1178.1,613.5,1176.8,613.5z"/>
		<path id="XMLID_969_" class="st8" d="M1187.1,552.3c-0.9-1-1.6-1.7-2.3-2.4c0.1-0.4,0.2-0.7,0.3-1.1c1.6,0.1,3.1,0.2,4.7,0.3
			c0.1,0.4,0.1,0.8,0.2,1.2C1189.1,550.8,1188.2,551.4,1187.1,552.3z"/>
	</g>
	<g id="XMLID_37_">
		<path id="XMLID_114_" class="st8" d="M1538.9,636.5c-2,0-3.5,0-5.3,0c-0.2-1.9-0.4-3.6-0.6-5.6c-1.3-0.1-2.5-0.3-3.8-0.3
			c-14.5,0-29.1,0-43.6,0c-6.5,0-10.5-2.1-14.4-7.4c0-8.9,0-17.8,0-27c-1.5,0-2.9,0-4.7,0c0,7.9,0,15.7,0,23.8
			c-1.2-0.2-1.9-0.3-2.9-0.4c0-7.8,0-15.4,0-23.3c-1.7,0-3,0-4.6,0c0,3,0,6.1,0,9.2c1.3,0.3,2.5,0.5,3.9,0.9c0,2.2,0,4.3,0,6.5
			c-1.2,0-2.2,0-3.6,0c-0.1-1.6-0.2-3.2-0.3-4.8c-0.1,0-0.3,0-0.4,0c0,3.7,0,7.3,0,11.2c-0.9,0.2-1.7,0.4-2.8,0.6c0-8,0-15.6,0-23.5
			c-1.8,0-3.3,0-5.1,0c0,8.5,0,17.1,0,26.2c-2.7,2.7-5.6,5.2-8.1,8.2c-1.3,1.6-1.9,3.8-3.4,5.9c-0.1-1.1-0.4-2.2-0.4-3.3
			c0-13.6,0-27.2,0-40.8c0-1.6-0.5-3.3-0.4-4.9c0.1-1.3,0.6-2.9,1.6-3.7c0.7-0.6,2.8-0.5,3.4,0.2c0.8,0.9,1.1,2.5,1.2,3.8
			c0.1,1.3-0.2,2.6-0.3,4c29.8,0,59.2,0,89,0c-0.2-1.4-0.5-2.7-0.4-3.9c0.2-1.4,0.4-3.1,1.3-4.1c0.6-0.6,2.8-0.7,3.4-0.1
			c0.9,0.9,1.3,2.6,1.5,3.9c0.2,1.1-0.3,2.4-0.3,3.5c0,13.9,0,27.8,0,41.7C1538.9,634,1538.9,635.1,1538.9,636.5z M1522.1,596.2
			c0,9,0,17.7,0,26.4c1.7,0,3.2,0,4.8,0c0-8.9,0-17.6,0-26.4C1525.2,596.2,1523.8,596.2,1522.1,596.2z M1503.1,622.9
			c0-9.1,0-17.9,0-26.6c-1.7,0-3.1,0-4.7,0c0,8.9,0,17.5,0,26.3c0.7,0.1,1.2,0.2,1.8,0.3C1501,622.9,1501.9,622.9,1503.1,622.9z
			 M1474.6,596.2c0,8.8,0,17.6,0,26.4c1.5,0,2.9,0,4.6,0c0-8.9,0-17.6,0-26.4C1477.7,596.2,1476.4,596.2,1474.6,596.2z
			 M1487.2,596.3c-1.6,0-3,0-4.7,0c0,8.9,0,17.6,0,26.3c1.7,0,3.2,0,4.7,0C1487.2,613.7,1487.2,605.1,1487.2,596.3z M1490.5,596.3
			c0,9,0,17.7,0,26.4c1.6,0,3,0,4.5,0c0-8.9,0-17.5,0-26.4C1493.4,596.3,1492.1,596.3,1490.5,596.3z M1514.3,596.2
			c0,9,0,17.6,0,26.4c1.6,0,3,0,4.5,0c0-8.9,0-17.5,0-26.4C1517.2,596.2,1515.8,596.2,1514.3,596.2z M1506.5,596.2
			c0,9,0,17.7,0,26.4c1.7,0,3.1,0,4.5,0c0-8.9,0-17.6,0-26.4C1509.4,596.2,1508,596.2,1506.5,596.2z M1447.5,622.7
			c0-9,0-17.7,0-26.6c-1.1,0.1-2,0.1-2.9,0.2c0,6,0,11.8,0,17.4c0.9,0.5,1.6,0.8,2.4,1.2c0,2.3,0,4.4,0,6.5
			c-0.8,0.4-1.4,0.7-2.6,1.3C1445.8,622.7,1446.6,622.7,1447.5,622.7z M1530.2,596.1c0,9,0,17.8,0,26.7c0.9,0,1.7,0,2.4,0
			c0-0.1,0.1-0.3,0.1-0.4c-0.7-0.3-1.4-0.5-2.2-0.8c0-2.3,0-4.5,0-6.7c0.9-0.4,1.7-0.8,2.4-1.2c0-5.8,0-11.4,0-17.2
			C1532.2,596.3,1531.5,596.2,1530.2,596.1z"/>
		<path id="XMLID_108_" class="st8" d="M1482,642c-1.2,0.2-2.6,0.5-4.1,0.7c-3.7,5-8,5-11.6-0.1c-2.8,0-5.7,0-8.6,0
			c-4.1,5.8-8.8,4.4-11.5,0.2c-4.4-0.9-4.2-0.9-3.6-5.4c0.5-3.1,0.8-6,4.4-7.2c0.6-0.2,1-1.3,1.3-2c3.4-9.1,19.9-9.2,23.5-1
			c0.9,2,2.4,2.9,4.6,3.3C1481.2,631.2,1483.7,636.3,1482,642z M1461.2,630.5c3,0,5.6,0,8.3,0c-1.5-4.6-4.4-6.4-8.3-5.3
			C1461.2,626.8,1461.2,628.5,1461.2,630.5z M1458.5,630.6c0-2,0-3.8,0-5.6c-3.6-0.5-6.1,1.4-7.1,5.6
			C1453.7,630.6,1456,630.6,1458.5,630.6z M1451.9,644.2c1.1-1.6,2.3-2.6,2.2-3.3c-0.2-0.9-1.4-2.1-2.3-2.3
			c-0.6-0.1-2.1,1.3-2.1,2.1C1449.7,641.7,1450.8,642.6,1451.9,644.2z M1470.8,638.2c-0.4,0.4-0.8,0.8-1.2,1.1
			c0.4,1.1,0.5,2.5,1.2,3.3c0.4,0.4,2.1,0.2,2.8-0.3c0.5-0.4,0.8-2.2,0.5-2.5C1473.3,639.1,1472,638.7,1470.8,638.2z"/>
		<path id="XMLID_98_" class="st8" d="M1529,553.9c-0.6,2.8-1.2,5.2-1.8,7.9c1,0.9,2.5,1.8,3.5,3.1c1.3,1.6,2.7,3.3,3.5,5.2
			c1.1,2.7-0.3,4.8-3,5.9c1,4.2,0.2,7.7-3.6,9.9c-2.9,1.6-5.5,0.8-7.7-1.6c-1.6,0-3,0-4.8,0c-2.2,2.4-5,3.4-8.1,1.3
			c-3.4-2.3-4.3-5.6-3.1-9.4c-4.2-2.9-4.5-5.8-1.2-9.8c1.5-1.8,3-3.8,5.1-6.5c-0.8-1.9-2.1-5.2-3.6-8.5c-1.1-2.4-0.7-5.1,1.6-6.9
			c2.5-2.1,4.9-1.4,7,0.3c3.1,0,6,0,9.5,0c3.3-2.1,5.9-2.1,8,0.5C1532.3,548.2,1531.9,550.9,1529,553.9z M1517.4,547.5
			c-4.5,0-8.1,3.4-8.2,7.9c-0.1,4.5,3.8,8.4,8.4,8.4c4.5,0,8.1-3.5,8.2-8C1525.8,551.1,1522.2,547.5,1517.4,547.5z M1509.3,573.3
			c4.9,0.9,6.1,4.4,6.8,8.3c1.2-0.1,2.2-0.2,3.2-0.2c0.1-4.2,2.3-6.7,6.3-8.5c-1-2.6-1.9-5.1-2.6-6.9c-4,0-7.1,0-10.9,0
			C1511.2,567.9,1510.3,570.4,1509.3,573.3z M1528.9,578.8c0-1.6-1.1-2.8-3.2-2.9c-1.9,0-3.8,2.3-3.8,4.7c0,1.8,0.6,3.3,2.7,3.5
			C1526.7,584.4,1528.9,581.8,1528.9,578.8z M1506.2,578.1c-0.1,3.4,1.9,6,3.9,6c2.1,0,2.9-1.3,3-3.2c0.1-2.5-1.8-5.1-3.9-4.7
			C1508,576.4,1506.9,577.7,1506.2,578.1z M1503.1,572.4c0.2,0.3,0.5,0.7,0.7,1c1.1-0.5,2.6-0.8,3.1-1.7c1.2-2.4,1.9-5,3-8.2
			C1506.5,566.3,1503.2,568.2,1503.1,572.4z M1531.2,573.3c1.2-3.3-1.7-7.5-6.2-8.9C1528,566.7,1525.7,572.6,1531.2,573.3z
			 M1527.5,550.9c0.4-0.1,0.7-0.1,1.1-0.2c-0.2-1.2,0-2.6-0.7-3.4c-0.5-0.7-2-0.6-3-0.8c-0.1,0.3-0.1,0.5-0.2,0.8
			C1525.7,548.5,1526.6,549.7,1527.5,550.9z M1506.4,550.7c0.3,0.1,0.5,0.1,0.8,0.2c1-1.3,2-2.5,3.1-3.8c-0.1-0.3-0.3-0.5-0.4-0.8
			c-1,0.4-2.4,0.5-3,1.2C1506.3,548.2,1506.5,549.6,1506.4,550.7z"/>
		<path id="XMLID_97_" class="st8" d="M1494.7,583.5c-3.7,0-7.3,0-11.2,0c0-3.7,0-7.3,0-11.1c3.7,0,7.2,0,11.2,0
			C1494.7,576,1494.7,579.6,1494.7,583.5z"/>
		<path id="XMLID_96_" class="st8" d="M1466.2,572.5c0,3.7,0,7.1,0,10.9c-3.8,0-7.4,0-11.3,0c0-3.7,0-7.1,0-10.9
			C1458.6,572.5,1462.2,572.5,1466.2,572.5z"/>
		<path id="XMLID_95_" class="st8" d="M1469.1,547.6c3.7,0,7.2,0,11,0c0,3.6,0,7.1,0,11c-3.6,0-7.1,0-11,0
			C1469.1,555.1,1469.1,551.6,1469.1,547.6z"/>
		<path id="XMLID_94_" class="st8" d="M1480.2,583.5c-3.6,0-7.1,0-10.9,0c0-3.7,0-7.2,0-11c3.6,0,7.1,0,10.9,0
			C1480.2,576.2,1480.2,579.7,1480.2,583.5z"/>
		<path id="XMLID_93_" class="st8" d="M1473.4,560.1c0,3.8,0,7.2,0,10.8c-3.8,0-7.3,0-11.2,0c0-3.6,0-7.1,0-10.8
			C1465.9,560.1,1469.5,560.1,1473.4,560.1z"/>
		<path id="XMLID_88_" class="st8" d="M1489.6,570.9c-5.2,0-9.6,0-14.7,0c2.4-4.4,4.5-8.3,6.7-12.1c0.3,0,0.7-0.1,1-0.1
			C1484.8,562.6,1487,566.4,1489.6,570.9z"/>
		<path id="XMLID_80_" class="st8" d="M1470.7,614.5c0,2.6,0,4.9,0,7.6c-1.4-0.6-2.4-1.1-3.5-1.6c0-2,0-3.9,0-6
			C1468.4,614.5,1469.4,614.5,1470.7,614.5z"/>
		<path id="XMLID_77_" class="st8" d="M1454.8,612.9c-1.1,0-2,0-3.1,0c0-2.1,0-4.1,0-6.4c1-0.1,1.9-0.2,3.1-0.4
			C1454.8,608.5,1454.8,610.5,1454.8,612.9z"/>
		<path id="XMLID_70_" class="st8" d="M1454.8,614.5c0,1.8,0,3.5,0,5.5c-0.9,0.4-1.8,0.8-3.2,1.4c0-2.4,0-4.5,0-6.9
			C1452.6,614.5,1453.6,614.5,1454.8,614.5z"/>
		<path id="XMLID_69_" class="st8" d="M1459.4,619.5c0-1.9,0-3.4,0-5c1.2,0,2.2,0,3.5,0c0,1.8,0,3.4,0,5
			C1461.7,619.5,1460.6,619.5,1459.4,619.5z"/>
		<path id="XMLID_68_" class="st8" d="M1467.2,607.5c3.2,0.8,3.9,2.1,3,5.4c-0.5,0.1-1,0.2-1.5,0.2c-0.4,0-0.9-0.1-1.5-0.3
			C1467.2,611.1,1467.2,609.5,1467.2,607.5z"/>
		<path id="XMLID_65_" class="st8" d="M1517.4,547.5c4.8,0,8.5,3.6,8.4,8.3c-0.1,4.4-3.7,7.9-8.2,8c-4.6,0-8.5-3.8-8.4-8.4
			C1509.2,550.9,1512.8,547.5,1517.4,547.5z M1517.3,560.5c1.1-0.8,2-1.4,2.9-2.1c-0.1-0.4-0.1-0.8-0.2-1.2
			c-1.6-0.1-3.1-0.2-4.7-0.3c-0.1,0.4-0.2,0.7-0.3,1.1C1515.7,558.8,1516.4,559.5,1517.3,560.5z"/>
		<path id="XMLID_64_" class="st8" d="M1509.3,573.3c1-2.9,1.9-5.4,2.7-7.4c3.8,0,6.9,0,10.9,0c0.7,1.9,1.6,4.3,2.6,6.9
			c-4,1.8-6.1,4.3-6.3,8.5c-1,0.1-1.9,0.1-3.2,0.2C1515.4,577.7,1514.2,574.2,1509.3,573.3z"/>
		<path id="XMLID_63_" class="st8" d="M1526.4,614.5c0,2.5,0,4.7,0,7.2c-1.3,0-2.3,0-3.7,0c0-2.3,0-4.6,0-7.2
			C1523.9,614.5,1524.9,614.5,1526.4,614.5z"/>
		<path id="XMLID_62_" class="st8" d="M1498.8,621.8c0-2.5,0-4.8,0-7.4c1.3,0,2.3,0,3.7,0c0,2.5,0,4.8,0,7.4
			C1501.3,621.8,1500.3,621.8,1498.8,621.8z"/>
		<path id="XMLID_61_" class="st8" d="M1475.2,614.2c1.4,0.1,2.3,0.1,3.4,0.2c0,2.4,0,4.6,0,7.2c-1,0.1-2,0.1-3.4,0.2
			C1475.2,619.3,1475.2,616.9,1475.2,614.2z"/>
		<path id="XMLID_60_" class="st8" d="M1486.5,621.8c-1.4,0-2.3,0-3.4,0c0-2.4,0-4.7,0-7.3c1.1,0,2.1,0,3.4,0
			C1486.5,617,1486.5,619.3,1486.5,621.8z"/>
		<path id="XMLID_59_" class="st8" d="M1494.5,621.7c-1.2,0-2.3,0-3.5,0c0-2.5,0-4.8,0-7.3c1.2,0,2.2,0,3.5,0
			C1494.5,616.9,1494.5,619.1,1494.5,621.7z"/>
		<path id="XMLID_57_" class="st8" d="M1518.3,621.8c-1.2,0-2.2,0-3.4,0c0-2.4,0-4.7,0-7.3c1.1-0.1,2.1-0.1,3.4-0.2
			C1518.3,616.9,1518.3,619.2,1518.3,621.8z"/>
		<path id="XMLID_56_" class="st8" d="M1506.9,621.7c0-2.5,0-4.8,0-7.3c1.2,0,2.2,0,3.5,0c0,2.4,0,4.7,0,7.3
			C1509.2,621.7,1508.2,621.7,1506.9,621.7z"/>
		<path id="XMLID_54_" class="st8" d="M1517.3,560.5c-0.9-1-1.6-1.7-2.3-2.4c0.1-0.4,0.2-0.7,0.3-1.1c1.6,0.1,3.1,0.2,4.7,0.3
			c0.1,0.4,0.1,0.8,0.2,1.2C1519.3,559.1,1518.4,559.7,1517.3,560.5z"/>
	</g>
	<g id="XMLID_38_">
		<path id="XMLID_40_" class="st8" d="M871.2,634.3c-2.1-0.8-3.5-1.4-5.3-2.1c-0.1,2-0.3,3.8-0.4,6c-2.1,0-4.1,0-6.4,0
			c-0.2-1.5-0.4-2.8-0.5-4.3c-25.3,0-50.6,0-76,0c-0.2,1.4-0.4,2.7-0.6,4.4c-2.2,0-4.3,0-6.7,0c-0.1-1.9-0.3-3.7-0.4-5.9
			c-1.6,0.6-3,1.2-5,2c-0.6-6.3-3.4-12.1,0.5-18.1c4.3-6.8,8.2-13.9,12.1-21c0.5-1,0.6-2.3,0.6-3.4c0-6.3,0-12.7,0-19
			c0-3.1,1.3-4.4,4.4-4.4c22.1,0,44.1,0,66.2,0c2.9,0,4.2,1.4,4.2,4.6c0.1,6.3,0,12.7,0.1,19c0,1.3,0.5,2.6,1.2,3.8
			c4.4,8.1,8.9,16.1,13.4,24.1c0.3,0.5,0.5,1.1,0.4,1.6C872.3,625.5,871.8,629.7,871.2,634.3z M868.6,629.5c1-4.3,2-8.2-0.6-11.9
			c-0.8-1.1-1.5-2.3-2-3.6c-1.4-3.4-4.1-5.2-7.6-5.6c-4.6-0.6-9.1-1.1-13.7-1.4c-19.8-1.3-39.5-0.8-59.2,0.8
			c-5.2,0.4-9.4,2.4-11.3,7.7c-0.4,1.2-1.2,2.3-1.8,3.4c-2,3.5-0.7,6.8,0.1,10.6c1.8-1,3.3-1.7,4.6-2.7c3.1-2.2,6.5-3,10.3-2.9
			c20.5,0.2,41,0.2,61.5,0c6.4-0.1,12.4,0.4,17.6,4.5C867,628.9,867.6,629.1,868.6,629.5z M817,589.1c0.2-3.5,0.4-6.9,0.6-10
			c-9,0-17.9,0-26.6,0c0,4.1,0,8.4,0,12.6C799.5,590.8,808.2,589.9,817,589.1z M849.8,579c-8.8,0-17.7,0-26.6,0
			c0.3,3.4,0.5,6.7,0.7,10.1c8.6,0.9,17.3,1.8,25.9,2.6C849.8,587.5,849.8,583.2,849.8,579z M783.1,598.8c0.2,0.2,0.3,0.5,0.5,0.7
			c24.9-3.6,49.7-4.3,74.5,0.4c-1.8-3.3-2.8-3.8-7.9-4.8c-14.3-2.7-28.6-3.4-43.1-2.1c-6.5,0.6-12.9,1.7-19.3,2.9
			C786.1,596.2,784.6,597.8,783.1,598.8z"/>
		<path id="XMLID_39_" class="st8" d="M868.7,570.4c1-0.1,1.6-0.3,2.2-0.3c3,0,6,0,9.5,0c1.5,4.9,3,9.8,4.7,15.3
			c-2.9,0.2-5.2,0.4-8,0.5c1.6,4.5,5.6,8.6,0.8,13.8c4.2,0,7.4,0,11,0c0,8.2,0,16,0,24.2c-1.1,0.1-2.3,0.3-3.8,0.4
			c-0.2-1.5-0.4-2.8-0.7-4.4c-3.3,0-6.5,0-9.6,0c-3.7-6.8-7.2-13.2-11-20.2c2.5-0.1,4.5-0.2,7-0.4c-3.4-4.8-0.5-9,1.6-13.5
			c-2.9-0.2-5.2-0.3-8.1-0.5C865.8,580,867.3,575.2,868.7,570.4z"/>
	</g>
	<g id="XMLID_32_">
		<path id="XMLID_1281_" class="st8" d="M1305.6,831.8c-2.8,1.8-5.6,2.4-8.3,0.4c-1.5-1.1-2.2-2.7-1.3-5.3c1.4,1,2.4,1.8,4,3
			c3.4,0.9,5.6-0.7,5.7-4.8c0-2,0-4.1,0-6.7c-1.8,0-3.5,0.1-5.1,0c-4.7-0.2-6.9-4.3-4.5-8.7c0.6,0.1,1.2,0.1,1.9,0.2
			c0.4,1.8,0.7,3.3,1.1,5c2.3,0,4.3,0,6.2,0c1.5-3.5-1.1-7.6,2.3-10.9c3.9,3.2,0.9,7.4,2.6,10.9c1.9,0,4,0,5.9,0
			c1.8-1.5-0.3-4.7,2.9-5.2c2.1,1.3,1.6,3.5,1,5.2c-1.7,5-6.3,3.1-10.1,3.7c0,3.2,0,6.5,0,9c0.1-1,0.3-2.8,0.4-4.6c0.3,0,0.7,0,1,0
			c0.3,2.2,0.6,4.5,1,6.8c1.6,0,2.7,0,3.7,0c0.8-1.1,1.6-2.1,2.5-3.4c1.6,2.4,1,3.8-0.4,5.1c-2.4,2.3-4.4,2.4-8.4,0.2
			c0,13.7,0,27.4,0,41.4c3.7,0,7.2,0,10.9,0c0,1.1,0,1.8,0,2.8c-3.2,0-6.2,0-9.5,0c1.4,5.2,6.5,5.1,9.7,7.1c-2,3.4-3.8,3-11.1-1.8
			c-0.2,1.3-0.4,2.4-0.7,3.9c-0.8,0.2-1.6,0.4-2.7,0.6c-0.4-1.6-0.7-3-1-4.3c-7.8,4.5-9.5,4.8-11,1.2c3.5-1.5,8-1.8,9.7-6.5
			c-0.8-0.1-1.5-0.2-2.2-0.2c-22,0-44,0-66,0c-2,0-3.5,0.6-4.9,2.1c-4.3,4.5-8.7,8.9-13.1,13.4c-0.8,0.8-1.7,1.5-3.1,2.7
			c-0.7-0.6-1.2-1.1-2.2-2c6.6-5.9,12.5-11.3,18-16.2c0-28.2,0-54.9,0-81.7c0.3-0.2,0.7-0.3,1-0.5c0.6,0.6,1.4,1.1,1.7,1.8
			c0.3,0.8,0.1,1.8,0.1,2.6c0,23.6,0,47.2,0,70.8c0,1.1,0,2.3,0,3.7c3.4,0,6.6,0,10.2,0c0-24.1,0-48.2,0-72.5c14.5,0,28.4,0,42.8,0
			c0,24.3,0,48.3,0,72.5c6.5,0,12.6,0,19,0C1305.6,859.2,1305.6,845.7,1305.6,831.8z M1282.2,839.6c-1.6-1.1-2.6-2.3-3.4-2.1
			c-0.9,0.2-2.1,1.5-2.1,2.4c0,0.7,1.4,2.1,2.3,2.1C1279.8,842,1280.7,840.8,1282.2,839.6z"/>
		<path id="XMLID_1247_" class="st8" d="M1234.9,891.3c2.8-3.9,5.5-7.8,8.4-11.6c0.5-0.7,1.9-0.9,2.9-0.9c12.8-0.1,25.7-0.1,38.5,0
			c0.9,0,2.2,0.2,2.7,0.8c2.9,3.9,5.7,7.9,8.9,12.5c-20.9,0-40.9,0-60.9,0C1235.2,891.8,1235.1,891.6,1234.9,891.3z"/>
	</g>
	<g id="XMLID_31_">
		<path id="XMLID_1256_" class="st8" d="M724.6,871.8c0-6.4-0.4-12.4-7.5-14.3c-1.4-9.5,0.8-13,9.2-14.9c8.4-1.9,16.8-1.9,25.2,0.4
			c6,1.7,7.9,4.1,8,10.2c0,1.4,0,2.7,0,4.2c-7.2,2.1-8.1,7.8-7.8,14.3C742.5,868.7,733.9,868.6,724.6,871.8z"/>
		<path id="XMLID_1250_" class="st8" d="M691.7,809.7c5.3,0,10.1,0,15.3,0c2.6,7.8,5.2,15.6,8.1,24c-5,0-9.4,0-14.1,0
			c0,20.1,0,39.7,0,59.3c2.4,2.4,7.1,1.6,9.6,5.6c-7.7,0-14.6,0-21.5,0c-0.1-0.3-0.3-0.5-0.4-0.8c2.1-3,6.3-2.5,9-4.7
			c0-19.5,0-39.1,0-59.3c-4.6,0-9,0-14,0C686.5,825.4,689,817.6,691.7,809.7z"/>
		<path id="XMLID_1207_" class="st8" d="M796.2,882.2c0,5.5,0,10.9,0,16.5c-8.6,0-16.8,0-25.3,0c-1-5.5-0.4-10.8-0.4-16.5
			C779.2,882.2,787.7,882.2,796.2,882.2z M783.7,886c-0.4,0.1-0.7,0.2-1.1,0.3c-0.1,0.8-0.3,1.6-0.5,2.7c1.1-0.1,1.8-0.1,3.2-0.2
			C784.6,887.5,784.1,886.7,783.7,886z"/>
		<path id="XMLID_1205_" class="st8" d="M712.9,873.9c-1.3-1.6-3.1-3-4-4.8c-1.7-3.4,0.2-7.8,3.7-9.2c3.7-1.5,7.6,0.1,9.1,3.9
			c0.5,1.2,0.7,2.5,0.7,3.8c0,9,0,18,0,27c0,1.3-0.4,2.7-0.6,4.1c-1.6,0-3,0-4.6,0c-0.1-1.7-0.2-3.3-0.3-5.1
			c-3.2-0.9-3.3-3.5-3.3-6.3c0.1-4.5,0-8.9,0-13.4C713.4,873.9,713.2,873.9,712.9,873.9z"/>
		<path id="XMLID_1204_" class="st8" d="M762.6,873.7c0,4.6-0.1,9,0,13.5c0,2.8-0.2,5.4-3.4,6.4c-0.1,1.7-0.2,3.2-0.3,5
			c-1.6,0-3,0-4.5,0c-0.2-1.3-0.6-2.5-0.6-3.6c-0.1-9.4-0.1-18.7,0-28.1c0-4.1,2.7-7,6.4-7.4c3.3-0.4,6.3,1.7,7.3,5.1
			c0.8,2.7-0.2,5.7-2.6,7.6C764.3,872.6,763.6,873.1,762.6,873.7z"/>
		<path id="XMLID_1200_" class="st8" d="M796.4,867.7c0,4.2,0,8.2,0,12.4c-8.7,0-17.1,0-25.7,0c0-4.2,0-8.1,0-12.4
			C779.3,867.7,787.7,867.7,796.4,867.7z M782.4,875.6c1-0.5,1.7-0.7,2.3-1.1c0.2-0.2,0-0.9,0-1.6c-0.8-0.1-1.5-0.1-2.3-0.2
			C782.4,873.7,782.4,874.4,782.4,875.6z"/>
		<path id="XMLID_1197_" class="st8" d="M724.7,883.4c9,0,17.8,0,26.9,0c0,3.3,0,6.5,0,10c-9,0-17.8,0-26.9,0
			C724.7,889.9,724.7,886.7,724.7,883.4z"/>
		<path id="XMLID_1195_" class="st8" d="M724.6,881.1c0-2.5,0-4.7,0-7.3c9-3.2,17.9-3.4,26.9,0c0,2.5,0,4.8,0,7.3
			C742.6,881.1,733.8,881.1,724.6,881.1z"/>
	</g>
	<g id="XMLID_33_">
		<path id="XMLID_1262_" class="st8" d="M1548,856c0-2.1,0-4,0-6c2.9,0.9,4.4,2.9,4.4,5.4c0,2.3,0.1,4.7,0,7c0,3.1-1.6,4.7-4.6,4.7
			c-19.1,0-38.1,0-57.2,0c-2.9,0-4.5-1.6-4.5-4.5c0-13,0-25.9,0-38.9c0-3,1.6-4.6,4.6-4.9c0.6-0.1,1.2,0,1.9,0c17.8,0,35.6,0,53.4,0
			c5.2,0,6.3,1.1,6.3,6.3c0,2.2,0,4.4,0,6.8c-1.3,0.6-2.4,1.1-4.1,1.9c-0.1-2.1-0.2-3.7-0.2-5.3c0-1.5,0-3.1,0-4.9
			c-19.3,0-38.2,0-57.4,0c0,10.8,0,21.5,0,32.4C1509.8,856,1528.7,856,1548,856z"/>
		<path id="XMLID_1251_" class="st8" d="M1496.6,880.7c0.8,0,1.6-0.1,2.4-0.1c13.6,0,27.2,0,40.7-0.1c2.3,0,3.6,0.7,4.3,3
			c0.9,3,2.1,5.9,3.1,8.8c1,2.9,0.2,4.2-2.9,4.2c-16.5,0-32.9,0-49.4,0c-3.1,0-4-1.3-3-4.2c1.3-3.6,2.7-7.2,4-10.7
			C1495.9,881.4,1496.2,881.2,1496.6,880.7z M1505.7,891.7c0,0.3,0,0.5,0,0.8c7.3,0,14.6,0,21.9,0c0-0.3,0-0.5,0-0.8
			C1520.3,891.7,1513,891.7,1505.7,891.7z M1496.9,891.8c0,0.2,0,0.4,0,0.7c1.8,0,3.7,0,5.5,0c0-0.2,0-0.4,0-0.7
			C1500.6,891.8,1498.7,891.8,1496.9,891.8z M1541.8,892.5c0-0.2,0-0.4,0-0.7c-1.6,0-3.2,0-4.8,0c0,0.2,0,0.4,0,0.7
			C1538.6,892.5,1540.2,892.5,1541.8,892.5z"/>
		<path id="XMLID_1221_" class="st8" d="M1553.6,852.1c-4.4-4.2-8.6-8.2-13.1-12.5c2.7-2.4,5.5-4,8.8-4.6c1.1-0.2,2.3-0.6,3.1-1.4
			c3.1-2.8,4.4-3.3,6.4-1.9c2,1.4,2.2,3,0.6,6.9c3.1,3.7,6.2,7.6,9.5,11.3c1,1.2,3.7,1.1,3.4,3.2c-0.2,1.3-1.8,2.4-2.6,3.7
			c-3.2,5.5-6.2,11.1-9.4,16.9c2.7,0.8,6,0.4,6.3,4.5c-5.7,0-11.3,0-17.2,0c1-4.6,4.7-3.8,7.8-4.3c3.2-5.9,6.6-11.8,9.7-17.8
			c0.5-1,0.1-2.6,0.1-4.1c-3-3.6-6.2-7.4-9.8-11.8C1557.1,844.8,1556.9,848.7,1553.6,852.1z"/>
		<path id="XMLID_1193_" class="st8" d="M1507,877.9c-0.5-2.9,2-2.8,3.5-4.1c0.4-1.3,0.8-2.9,1.4-4.7c4.9,0,9.9,0,15,0
			c0.2,0.8,0.5,1.6,0.7,2.4c0.3,1.7,1,3,2.8,3.7c0.8,0.3,1.3,1.4,1.9,2.1c-0.2,0.2-0.3,0.5-0.5,0.7
			C1523.6,877.9,1515.3,877.9,1507,877.9z"/>
		<path id="XMLID_1191_" class="st8" d="M1562.2,889.9c0,3.9-2.5,5.8-5.4,5.2c-3.2-0.7-6.5-5.6-5.9-8.8c0.6-3.2,4.9-4.7,7.6-2.2
			C1560.3,886,1561.4,888.6,1562.2,889.9z"/>
	</g>
	<g id="XMLID_15_">
		<path id="XMLID_1261_" class="st8" d="M964.1,882.6c0-9.8,0-19.3,0-29c20,0,39.8,0,59.8,0c0,9.7,0,19.2,0,29
			C1004,882.6,984.3,882.6,964.1,882.6z"/>
		<path id="XMLID_1246_" class="st8" d="M963.9,885.8c20.3,0,40.1,0,60.2,0c0,4.3,0.2,8.4-0.1,12.4c-0.1,2.3-2.2,2.5-4.1,2.5
			c-10.7,0-21.5,0-32.2,0c-6.4,0-12.8,0-19.2,0c-3.4,0-4.5-1.1-4.6-4.4C963.9,892.9,963.9,889.5,963.9,885.8z"/>
		<path id="XMLID_1239_" class="st8" d="M1024.3,850.6c-20.3,0-40,0-60.2,0c0-4.3-0.3-8.4,0.1-12.4c0.2-2.7,2.7-3.1,5.1-3.1
			c13.6,0,27.3,0,40.9,0c3.2,0,6.4,0,9.6,0c3.5,0.1,4.5,1.1,4.5,4.5C1024.3,843.1,1024.3,846.6,1024.3,850.6z M991.3,843.9
			c0-0.6-0.1-1.2-0.1-1.8c-1.3-0.6-2.6-1.6-3.8-1.6c-0.7,0-2,1.8-1.9,2.8c0,0.9,1.5,2.5,2.3,2.4
			C988.9,845.6,990.1,844.5,991.3,843.9z M1000.2,847.1c1.3-1.8,2.8-3,2.6-3.8c-0.2-1.1-1.7-2-2.6-3c-1,1-2.6,1.8-2.7,2.9
			C997.4,844.1,998.9,845.3,1000.2,847.1z M1016.4,843.3c-1.9-1.4-2.9-2.8-4-2.9c-0.9,0-1.9,1.6-2.8,2.5c0.9,1,1.7,2.4,2.8,2.7
			C1013.2,845.9,1014.4,844.6,1016.4,843.3z M978.5,841.1c-0.4-0.3-0.8-0.6-1.2-0.9c-1.3,0.6-2.9,1-3.9,2c-0.4,0.4,0.1,2.6,0.8,3
			c0.9,0.5,2.9,0.5,3.4-0.1C978.4,844.2,978.2,842.5,978.5,841.1z"/>
		<path id="XMLID_1222_" class="st8" d="M1043,815.9c-0.7,1.1-1.3,2.4-2.2,3.5c-3.1,3.6-6.2,7.1-9.4,10.6c-1.6,1.7-3.4,2.9-5.4,0.9
			c-1.8-1.8-0.5-3.5,0.9-4.9c4.4-4.3,8.9-8.4,13.5-12.8c-0.3-0.2-0.9-0.6-1.6-0.9c-3.6-1.7-7.3-3.3-10.8-5.2c-2.1-1.2-4-2.7-5.5-4.5
			c-2.8-3.4-2.5-8.1,0.4-11c2.9-2.9,7.7-3.1,10.8,0.2c2.3,2.4,3.8,5.6,5.4,8.6c1.5,3,2.6,6.3,3.9,9.4c0.1,0.3,0.4,0.4,0.8,0.9
			c1.5-1.6,3-3.2,4.5-4.8c-0.3-0.1-0.6-0.2-0.8-0.3c0.7-2.5,0.7-5.4,2.1-7.3c2.5-3.4,5.9-6.1,9-9.1c0.4,0.4,0.8,0.8,1.2,1.2
			c-2.5,2.8-4.9,5.5-7.4,8.3c0.2,0.2,0.4,0.4,0.5,0.5c2.7-2.5,5.4-5.1,8.1-7.6c0.3,0.3,0.6,0.5,0.8,0.8c-1.1,3.8-5.3,5.4-7.2,9.3
			c4.2-1.6,5.3-6.5,9.3-7.3c0.3,0.3,0.5,0.5,0.8,0.8c-2.5,2.7-4.9,5.4-7.4,8.1c0.2,0.2,0.4,0.4,0.6,0.6c2.6-2.5,5.2-5,7.8-7.5
			c0.4,0.4,0.8,0.7,1.2,1.1c-2.3,2.6-4.6,5.2-6.8,7.8c-2.5,3-5.4,4.5-9.4,2.7c-1.7,1.8-3.3,3.5-4.8,5.1c4.4,4.1,8.6,7.9,12.7,11.8
			c0.3,0.3,0.6,0.5,0.9,0.8c1.6,1.6,3.5,3.4,1.3,5.6c-2.1,2-3.9,0.3-5.4-1.3C1051.4,825.3,1047.4,820.8,1043,815.9z M1036.8,806
			c-3.4-4.4-5.8-9.9-11.6-12C1027.1,799.9,1032.3,802.7,1036.8,806z M1028.3,791.9c3.3,3.8,6.6,7.6,9.7,11.2
			C1036.2,796,1032.9,792.2,1028.3,791.9z M1022.8,796.8c1.2,6.6,6.5,8.5,11.7,11.1C1030.5,804.1,1026.8,800.7,1022.8,796.8z"/>
		<path id="XMLID_1199_" class="st8" d="M962.7,817.9c1.4-0.6,2.3-1.4,3.3-1.4c10.6-0.1,21.2,0,31.9,0c0.5,0,0.9,0.2,1.4,0.4
			c1.4,5.2-4.4,11.1-9.3,11.1c-5.5,0-11,0.2-16.5-0.1c-3.8-0.2-6.7-2.5-9-5.8c-3.5-0.9-7.2-1.8-10.8-2.8c-3.7-1-7.3-2-11.6-3.1
			c0.4-1.3,0.7-2.5,1.1-3.9C950.1,814.4,956.5,816.2,962.7,817.9z"/>
		<path id="XMLID_1181_" class="st8" d="M990.1,833.4c-6.2,0-12.3,0-18.8,0c-0.1-1-0.1-1.8-0.2-2.8c0.9-0.3,1.5-0.7,2.2-0.8
			c4.9-0.1,9.8-0.2,14.7-0.2C990,829.8,991,830.7,990.1,833.4z"/>
		<path id="XMLID_1172_" class="st8" d="M997.8,831.7c1.4-2.1,14.2-3,19.3-1.2c0,0.7,0.1,1.5,0.1,2.3
			C1011.7,834.8,999.1,834,997.8,831.7z"/>
	</g>
	<g id="XMLID">
		<path id="XMLID_1249_" class="st8" d="M471.3,881.8c1.1,5.2,2.1,10,3.2,15.1c-13.8,0-27.2,0-40.9,0c0-2.6,0-5,0-7.4
			c0-2-0.2-3.9,0-5.9c0.7-5.8-0.3-10.8-5.3-14.5c-1.3-0.9-1.9-2.8-3.1-4.8c7.2,0,13.5,0,20.1,0c0.6,6.4,3.6,11.5,8.8,15
			C459.2,882.8,465,883.2,471.3,881.8z"/>
		<path id="XMLID_1238_" class="st8" d="M425.7,829.2c6.5,0,12.7,0,19.3,0c0,10.9,0,21.6,0,32.5c-6.4,0-12.7,0-19.3,0
			C425.7,850.9,425.7,840.3,425.7,829.2z"/>
		<path id="XMLID_1234_" class="st8" d="M519,854.9c0.8,13.8,1.7,27.7,2.6,41.9c-5.8,0-11.2,0-17.1,0c0.8-14.1,1.6-28,2.3-41.9
			C510.8,854.9,514.5,854.9,519,854.9z"/>
		<path id="XMLID_1210_" class="st8" d="M491.6,836.2c14.2,0,28.3,0,42.4,0c0.9,7.7-9.3,16.3-19.5,16.8
			C502.6,853.6,491.4,845.5,491.6,836.2z"/>
		<path id="XMLID_1206_" class="st8" d="M447.6,864.4c12,0,23.8,0,35.9,0c-0.1,5.5-2.6,9.5-6.7,12.3c-6.6,4.6-13.7,5.4-20.8,1.3
			C451,875.1,448,870.6,447.6,864.4z"/>
		<path id="XMLID_1198_" class="st8" d="M464.2,838.7c5.9,0,11.3,0,17.4,0c0-10.7,0-21.1,0-32c-3.5,0-7.6,0-11.6,0
			c-9.8-0.1-8.8-0.3-8.8,8.7c0,6.7,0,13.4,0,20.5c-0.6,0.3-1.3,0.6-2.5,1.1c0-8.6,0-16.8,0-24.8c-2.3-0.5-4.2-0.9-6.1-1.3
			c0-0.5,0-1.1,0-1.6c1.8-0.3,3.7-0.7,6-1.1c1.3-4,4.9-4.1,8.8-4c4.4,0.1,8.8,0,13.1,0.1c1.5,0,3,0.5,4.5,0.8c0,1.3,0,2.2,0,3.1
			c1.9,0.2,3.7,0.5,6,0.8c-1,4-4.3,1.8-6.7,3.5c0,3,0,6.6,0,10.2c0,4.2,0.2,8.4,0.1,12.6c-0.1,4.7-1.4,5.9-6,6
			c-4.2,0.1-8.4,0.3-12.6,0.4c-1.3,0-2.5-0.1-3.6-0.2c-0.9-3.2,6.6-20.6,10-22.9c-0.1,1.4,0.1,2.5-0.2,3.3
			c-1.6,3.7-3.4,7.2-5.1,10.9C465.8,834.8,465,836.7,464.2,838.7z"/>
		<path id="XMLID_1185_" class="st8" d="M483,858.5c0.3,1.1,0.6,2,1,3.3c-12.3,0-24.1,0-35.9,0c-0.9-2.5-0.3-3.3,2.4-3.4
			c6,0,11.9,0,17.9,0C473.1,858.5,477.8,858.5,483,858.5z"/>
		<path id="XMLID_1133_" class="st8" d="M510.7,834.1c0-3.7-0.2-6.9,0.1-10.1c0.1-0.8,1.4-1.9,2.3-2.1c0.5-0.1,2,1.3,2,2.1
			c0.2,3.2,0.1,6.4,0.1,10C513.7,834,512.4,834,510.7,834.1z"/>
		<path id="XMLID_1071_" class="st8" d="M517.9,833.9c0-1.3,0-2.4,0-3.6c1.8,0,3.4,0,5.2,0c0,1.3,0,2.4,0,3.6
			C521.3,833.9,519.7,833.9,517.9,833.9z"/>
		<path id="XMLID_1070_" class="st8" d="M502.6,833.8c0-1.1,0-2.1,0-3.4c1.7,0,3.4,0,5.3,0c0,1.2,0,2.1,0,3.4
			C506.3,833.8,504.7,833.8,502.6,833.8z"/>
		<path id="XMLID_1137_" class="st8" d="M469.7,830.9c5.8-5.9,6.5-12.7,7.3-19.6c0.1-0.7,0.7-1.2,1.6-1.7c0.8,6.2-0.2,12.1-3,17.6
			C474.7,829.2,473.5,831.2,469.7,830.9z"/>
	</g>
	<g id="XMLID_36_">
		<path id="XMLID_1263_" class="st8" d="M517.2,615.2c-3.8,8.7-4.3,18.8-14,23c-0.9,3.2,4.6,4.5,1.6,8c-4.9,1.4-4.6-4-8-5.9
			c-11.8,0-24.4,0-37.6,0c-1.2,1.8-2.8,3.9-4.2,6c-1.2,0-2.2,0-3,0c-3-3.5,2.1-4.7,1.7-7.3c-9-6.3-9.6-9.6-14.2-23.8
			C465.3,615.2,491,615.2,517.2,615.2z"/>
		<path id="XMLID_1257_" class="st8" d="M560.9,603.2c0,1.1,0,1.9,0,2.8c-0.8,0.4-1.6,0.7-2.7,1.2c0,10.6,0,21.2,0,32.2
			c-1.6,0.1-2.9,0.2-4.6,0.3c-0.2-2.1-0.4-4-0.6-6.2c-6,0-11.9,0-18.3,0c0-9.2,0-17.9,0-26.7c-0.3,0-0.6,0-1,0c0,8.7,0,17.5,0,26.5
			c-7.2,0-14,0-20.8,0c2-5.5,3.9-11,6-16.3c0.3-0.8,1-1.5,1.7-2c1.7-1.2,2.8-2.9,1.8-4.7c-0.8-1.4-2.6-2.8-4.1-3
			c-3.5-0.4-7.2-0.1-10.7-0.2c-1.4,0-2.9-0.2-4.5-0.3c0-1.3,0-2.2,0-3.5C522.3,603.2,541.5,603.2,560.9,603.2z M529.9,616.1
			c-0.2,0-0.5,0-0.7,0c0,1.8,0,3.6,0,5.4c0.2,0,0.5,0,0.7,0C529.9,619.7,529.9,617.9,529.9,616.1z M538.5,621.6c0.4,0,0.8,0,1.1,0
			c-0.1-1.7-0.2-3.4-0.3-5.1c-0.3,0-0.6,0-0.9,0C538.5,618.2,538.5,619.9,538.5,621.6z"/>
		<path id="XMLID_1245_" class="st8" d="M435.8,612.5c0.6-5.2,5-2.7,7.4-4.2c0.1-1,0.2-2.2,0.2-3.3c0-11.7,0-23.4,0-35
			c0-4.2,1.1-8,4.1-11c6.9-7,18.5-4.1,21.2,5.3c0.3,0.9,0.5,1.7,0.8,2.8c5,0.4,6.3,4.7,8.9,7.7c-1.8,1.8-17,2.3-21,0.7
			c1.9-3.8,3.8-7.3,8.5-8.3c-0.2-3.3-1.6-5.8-4.2-7.4c-3.1-2-6.5-2.1-9.7-0.3c-3,1.7-5.1,4.2-5.1,7.7c-0.1,13.4-0.1,26.8-0.1,40.3
			c0,0.3,0.2,0.7,0.3,1.4c1.3,0.1,2.6,0.2,4,0.2c21.7,0,43.4,0,65.1,0c3.7,0,4.4,0.6,4,3.6C492.3,612.5,464.4,612.5,435.8,612.5z"/>
		<path id="XMLID_1235_" class="st8" d="M507.4,585.4c0-12,0-23.8,0-35.9c16.4,0,32.5,0,49,0c0,11.9,0,23.8,0,35.9
			C540.1,585.4,523.8,585.4,507.4,585.4z M511.4,553.3c0,9.6,0,18.8,0,28.1c13.9,0,27.4,0,41.1,0c0-9.5,0-18.7,0-28.1
			C538.6,553.3,525.1,553.3,511.4,553.3z"/>
		<path id="XMLID_1183_" class="st8" d="M556.3,597.4c-0.8,1.5-1.4,2.5-2,3.5c-6,0-11.8,0-18,0c-0.5-0.9-1.2-2-2.1-3.5
			C541.8,597.4,548.8,597.4,556.3,597.4z"/>
		<path id="XMLID_1182_" class="st8" d="M509.7,601c-0.6-1-1.2-2.1-2-3.6c7.4,0,14.3,0,21.8,0c-0.8,1.4-1.3,2.5-1.9,3.6
			C521.5,601,515.7,601,509.7,601z"/>
		<path id="XMLID_1085_" class="st8" d="M468.2,579c1.7,2.7,1.5,8.9-0.3,10.3C466,587.4,466.1,580.7,468.2,579z"/>
		<path id="XMLID_1075_" class="st8" d="M462.2,588.5c-2-1.1-1.4-6.7,0.9-9.5C464.7,580.2,464.3,584.6,462.2,588.5z"/>
		<path id="XMLID_1073_" class="st8" d="M472.7,578.9c2.4,2.8,3.1,8.5,1.2,9.5C472,585.8,471.2,580.6,472.7,578.9z"/>
		<path id="XMLID_1063_" class="st8" d="M517.6,596c0-2.3,0-4.1,0-6c2.5,0.2,2.9,1.2,2.1,5.6C519.1,595.7,518.5,595.8,517.6,596z"/>
		<path id="XMLID_1062_" class="st8" d="M546.4,595.6c-0.7,0.1-1.3,0.1-2.2,0.2c0-2,0-3.8,0-5.6C546.8,590,547,590.6,546.4,595.6z"
			/>
	</g>
	<g id="XMLID">
		<path id="XMLID_165_" class="st8" d="M1501.4,1098.7c-2-0.3-4.1-0.5-6.1-0.8c-2.3-0.3-4.7-0.4-7-0.7c-0.7-0.1-1.6-0.6-1.8-1.1
			c-0.2-0.5,0.3-1.5,0.7-1.9c6.6-5.9,13.2-11.7,19.8-17.5c0.7-0.6,1.7-0.9,2.7-1.1c3-0.7,6.1-1.1,9.1-1.8c1.5-0.4,3-1.1,4.2-2.1
			c10.5-9.4,22.6-15.4,36.3-18.3c1.9-0.4,3.8-0.8,5.8-0.9c2.8-0.2,4,1.1,3.5,3.8c-2.9,15-8.6,28.7-18.9,40.1
			c-1.9,2.1-2.9,4.3-3.4,6.9c-0.5,2.1-0.8,4.3-1.6,6.4c-0.7,1.9-1.5,3.8-2.8,5.2c-5,5.8-10.2,11.5-15.4,17.1c-0.6,0.7-1.6,1-2.4,1.4
			c-0.5-0.9-1.3-1.7-1.4-2.6c-0.3-3.1-0.4-6.2-0.6-9.2c0-0.6-0.4-1.2-0.6-1.8c-0.5,0.3-1.1,0.4-1.5,0.8c-1.2,1.5-2.2,0.9-3.1-0.3
			c-1.4-1.8-2.5-1.5-3.9,0.1c-3.3,3.8-2.6,3.9-6.4,0.2c-3-3-6-5.9-9.1-8.8c-1.1-1-1.2-1.8,0-2.7c0.6-0.5,1.1-1.1,1.6-1.6
			c1.5-1.3,2.7-2.5,0.4-4.2c-0.3-0.2-0.1-1.7,0.3-2.2c0.5-0.6,1.6-0.8,2.4-1.2C1501.9,1099.6,1501.7,1099.1,1501.4,1098.7z
			 M1560.2,1074.1c-0.4-0.3-0.8-0.9-1.2-1c-6-1.7-9.5-5.8-11.5-11.4c-0.4-1.1-1.1-1.5-2.3-0.8c-2.8,1.5-5.7,2.7-8.4,4.4
			c-12.3,7.3-21.4,17.7-28.2,30.2c-0.7,1.3-0.4,2.1,0.5,3c4.4,4.4,8.7,8.8,13,13.2c1.1,1.2,2.2,1.3,3.6,0.5
			c15.2-8.6,26.8-20.6,34-36.6C1559.8,1075.1,1559.9,1074.8,1560.2,1074.1z M1492,1093.9c0.1,0.2,0.2,0.5,0.3,0.7
			c3.8,0.3,7.6,0.8,11.4,0.9c0.8,0,1.8-0.9,2.3-1.7c3.4-4.9,6.8-9.9,10.1-14.9c0.3-0.5,0.6-1,0.8-1.4c-0.1-0.2-0.2-0.3-0.3-0.5
			c-3.1,1.2-6.7,0.7-9.5,3.2c-3.4,3.2-7,6.2-10.4,9.3C1495.2,1091,1493.6,1092.5,1492,1093.9z M1542.5,1104.7
			c-0.2-0.1-0.3-0.2-0.5-0.3c-0.6,0.4-1.1,0.8-1.7,1.2c-4.1,2.8-8,6-12.3,8.4c-2.7,1.5-3.7,3.1-3.1,6.1c0.5,2.5,0.5,5.1,0.7,8
			c0.7-0.4,1.1-0.6,1.4-0.9c4.4-4.9,9-9.7,13.3-14.8C1542.1,1110.2,1542.1,1107.4,1542.5,1104.7z M1565.3,1056.9
			c-0.6-0.4-1.2-1.2-1.7-1.1c-4,0.8-8,1.6-11.9,2.7c-0.6,0.2-1.4,1.3-1.4,1.9c0.1,4.1,5.6,9.7,9.7,9.7c0.7,0,1.8-0.6,2-1.2
			C1563.2,1065.1,1564.2,1061.2,1565.3,1056.9z M1505.8,1099.6c-0.9,0.8-1.8,1.5-2.4,2.4c-0.2,0.4,0.2,1.4,0.6,1.9
			c4.3,4.3,8.7,8.5,13,12.8c1,1,1.8,1.1,2.8,0c1-1.1,1.2-1.9,0.1-3.1c-4.2-4.2-8.3-8.5-12.5-12.7
			C1507,1100.4,1506.5,1100.1,1505.8,1099.6z M1512.5,1116.8c-0.4-0.7-0.7-1.2-1.1-1.6c-2.2-2.2-4.5-4.3-6.6-6.5
			c-1.3-1.3-2.1-0.5-3,0.4c-1,1-1.2,1.8-0.1,2.8c2.2,2.1,4.3,4.3,6.5,6.3c0.5,0.5,1.6,1,2.1,0.7
			C1511.1,1118.6,1511.7,1117.6,1512.5,1116.8z"/>
		<path id="XMLID_164_" class="st8" d="M1500.5,1121.4c-0.5,0.6-0.8,1.2-1.3,1.7c-8.2,8.1-16.5,16.1-24.7,24.1
			c-0.1,0.1-0.2,0.3-0.3,0.3c-0.8,0.1-1.7,0.2-2.5,0.3c0.2-0.8,0.1-1.8,0.5-2.2c3-3.1,6.1-6.1,9.2-9.1c5.3-5.2,10.7-10.4,16-15.6
			c0.5-0.5,1.4-0.7,2.1-0.7C1499.7,1120.1,1500.1,1120.9,1500.5,1121.4z"/>
		<path id="XMLID_163_" class="st8" d="M1479.8,1132.7c-0.5-0.4-1.1-0.7-1.2-1.1c-0.2-0.4-0.1-1.1,0.2-1.4c0.5-0.7,1.1-1.2,1.7-1.8
			c4.1-4.1,8.2-8.2,12.3-12.2c0.8-0.8,1.6-1.9,2.8-0.7c1.1,1.2,0,2-0.8,2.8c-4.4,4.4-8.9,8.8-13.3,13.2
			C1481,1131.9,1480.5,1132.2,1479.8,1132.7z"/>
		<path id="XMLID_162_" class="st8" d="M1490,1141c-0.5-0.4-1.1-0.6-1.2-1c-0.1-0.4,0-1.1,0.3-1.4c0.9-1,1.8-2,2.8-2.9
			c3.5-3.4,6.9-6.9,10.5-10.3c0.6-0.5,1.8-0.4,2.7-0.6c-0.2,0.8-0.1,1.9-0.6,2.5c-4.1,4.3-8.4,8.4-12.6,12.6
			C1491.2,1140.2,1490.6,1140.5,1490,1141z"/>
		<path id="XMLID_159_" class="st8" d="M1537.6,1072.8c4.6,0.1,8.8,4.3,8.8,8.9c0,4.6-4.4,9-9,8.9c-4.6-0.1-8.9-4.6-8.8-9.2
			C1528.6,1077,1533,1072.7,1537.6,1072.8z M1531.8,1081.5c-0.4,4,3.1,6.1,5.8,6.1c3,0,5.7-2.8,5.7-5.9c0-3.4-2.4-5.9-5.8-5.8
			C1534,1075.9,1531.8,1078.1,1531.8,1081.5z"/>
	</g>
	<g id="lufter">
		<g id="XMLID_29_">
			<path id="XMLID_149_" class="st8" d="M992,1110.9c0.1,4.7,1.1,9.3,1.8,13.9c0.4,2.3,0.9,4.6,0.9,6.9c0,4.3-2.2,7.4-6,9.4
				c-3.6,1.8-7.4,1.8-11.2,0.8c-5.3-1.3-9.6-4.3-13.6-8c-3.6-3.3-6.6-7-8.8-11.4c-3.5-7.1-3.8-14.1,0.9-20.8c2.1-3,5.1-4.8,8.3-6.3
				c4.4-2.1,8.9-3.7,13.7-4.6c1.9-0.4,3.8-0.8,5.8-1.2c0.7-0.1,1.1-0.5,1.2-1.3c0.3-2.9,1.4-5.5,3.4-7.7c1-1.1,1-1.3-0.2-2.3
				c-4.1-3.5-8.8-6.2-13.8-8.1c-3.3-1.3-6.5-2.6-9.8-3.7c-6-1.9-9.5-8.3-6.8-15.2c1.5-3.8,4.1-6.7,7.3-9c4-2.9,8.6-4.6,13.4-5.7
				c3.5-0.8,7-1.3,10.6-1.2c4.8,0.2,9.3,1.3,13,4.4c5.3,4.3,7.2,10.1,6.6,16.8c-0.6,6.9-2.2,13.5-4.6,19.9c-0.5,1.3-0.4,1.5,0.8,2.4
				c2.1,1.6,3.7,3.5,4.5,6c0.6,1.7,0.8,1.7,2.6,1.1c4.4-1.6,8.5-3.9,12.2-6.8c3.1-2.4,6-4.9,9-7.4c2.4-2,5-3.3,8.1-3.2
				c4,0.1,6.9,2.1,9.2,5.2c2.6,3.5,3.6,7.4,3.7,11.6c0.3,7.1-1.4,13.7-4.5,20c-2,4.1-4.7,7.7-8.6,10.3c-6,3.9-13.8,4.1-20.5-0.6
				c-5.9-4.1-11-8.9-15.6-14.3c-0.9-1.1-1.1-1.2-2.4-0.6c-2.5,1.2-5.1,1.3-7.8,0.8c-1.5-0.3-1.7-0.1-1.9,1.3
				C992.6,1105.3,992.3,1108.1,992,1110.9z M997.6,1083.6c-3.3,0-5.6,2.3-5.6,5.6c0,2.8,2.5,5.3,5.5,5.3c3,0,5.5-2.4,5.5-5.4
				C1003,1086.1,1000.7,1083.6,997.6,1083.6z"/>
		</g>
		<rect id="XMLID_131_" x="940" y="1031.9" class="st5" width="115" height="115"/>
	</g>
	<g id="XMLID_134_">
		<path id="XMLID_193_" class="st8" d="M121.4,625.8c0-17.6,0-35.1,0-52.7c-0.2,0-0.4,0-0.6,0c-4,0-8.1,0-12.1,0
			c-1.9,0-3.4-0.9-4.2-2.7c-0.3-0.7-0.4-1.4-0.4-2.2c0-4.2,0-8.4,0-12.6c0-0.3,0-0.6,0-0.9c0-0.3-0.1-0.4-0.3-0.4c0,0-0.1,0-0.1,0
			c-0.8-0.1-1.4,0.2-1.9,0.8c-1.8,1.9-3.7,3.8-5.6,5.7c-0.5,0.5-1.1,0.8-1.9,0.8c-2.5,0-4.9,0-7.4,0c-1.3,0-1.9-1-1.2-2.1
			c1.1-2,2.3-4,3.4-6c0.2-0.3,0.2-0.5,0-0.8c-1.1-2-2.2-3.9-3.4-5.9c-0.1-0.1-0.2-0.3-0.2-0.4c-0.4-0.8,0.1-1.7,0.9-1.8
			c0.4-0.1,0.9-0.1,1.3-0.1c2.2,0,4.4,0,6.7,0c0.8,0,1.3,0.3,1.8,0.8c2,2.1,4.1,4.2,6.2,6.2c0.2,0.2,0.5,0.3,0.7,0.3
			c2.4,0,4.7,0,7.1,0c0.3,0,0.5-0.1,0.5-0.4c0.1-0.4,0.4-0.6,0.9-0.6c1.7,0,3.5,0,5.2,0c1.6,0.1,2.5,1.2,2.2,2.7
			c-0.1,0.6-0.5,1.1-1.1,1.3c-0.5,0.2-1,0.3-1.6,0.3c-1.5,0-3,0-4.4,0c-0.5,0-0.9-0.1-1.1-0.6c-0.1-0.1-0.2-0.2-0.3-0.2
			c-1.2,0-2.5,0-3.7,0c0,0.2,0,0.3,0,0.5c0,4.5,0,8.9,0,13.4c0,1.5,0.8,2.3,2.3,2.3c4,0,8,0,12,0c0.4,0,0.5-0.1,0.5-0.6
			c0-0.5,0-1,0.1-1.5c0.3-1.7,1.9-2.9,3.7-2.9c1.7,0.1,3.2,1.4,3.4,3.1c0.1,0.6,0.1,1.1,0.1,1.7c0.1,0,0.3,0,0.4,0
			c3.5,0,6.9,0,10.4,0c0.4,0,0.5-0.1,0.5-0.5c0-1.4,0-2.8,0-4.2c0-0.9,0.5-1.4,1.4-1.4c0.4,0,0.5-0.1,0.4-0.5c0-1.1,0-2.1,0-3.2
			c0-2.1,0.8-3.6,2.8-4.5c0.1,0,0.2-0.2,0.2-0.3c0-1.9,0-3.8,0-5.8c-0.2,0-0.3,0-0.4,0c-1.3,0-2.6,0-4,0c-0.3,0-0.5,0.1-0.5,0.4
			c-0.6,2-1.9,3.5-3.9,4.2c-3.8,1.4-8.1-1.4-8.3-5.5c-0.1-2.8,1.3-5.3,3.8-6.3c3.4-1.5,7.4,0.5,8.4,4.1c0.1,0.4,0.3,0.6,0.7,0.5
			c1.1,0,2.2,0,3.3,0c0.3,0,0.5-0.1,0.7-0.3c0.7-1.1,2.3-1.1,3.1,0c0.2,0.3,0.4,0.4,0.8,0.4c1.1,0,2.3,0,3.4,0
			c0.3,0,0.4-0.1,0.5-0.4c0.8-2.6,2.4-4.2,5.1-4.7c3.5-0.6,6.9,2.1,7.2,5.7c0.2,3.5-2,5.8-4.3,6.6c-3.3,1.1-6.8-0.8-7.9-4.1
			c-0.1-0.4-0.3-0.6-0.8-0.5c-1.2,0-2.5,0-3.7,0c-0.3,0-0.5,0.1-0.5,0.5c0,1.7,0,3.5,0,5.2c0,0.2,0,0.4,0.3,0.5
			c1.9,0.9,2.7,2.4,2.7,4.4c0,1.1,0,2.2,0,3.2c0,0.3,0.1,0.4,0.4,0.4c1,0.1,1.4,0.5,1.4,1.5c0,1.1,0,2.2-0.1,3.2
			c-0.2,2-2.1,3.7-4.1,3.9c-0.4,0-0.8,0-1.2,0c-5.8,0-11.7,0-17.5,0c-0.2,0-0.3,0-0.6,0c0,10.5,0,20.9,0,31.4c0.1,0,0.3,0,0.4,0
			c3.2,0,6.5,0,9.7,0c0.4,0,0.5-0.1,0.5-0.5c0-0.5,0-0.9,0-1.4c-0.4,0-0.9,0-1.3,0c-0.2,0-0.5,0-0.7,0c-1.1,0-1.7-1-1.2-2
			c0.3-0.5,0.6-1,1-1.5c0.3-0.5,0.7-1,1.1-1.6c-0.3,0-0.5,0-0.8,0c-1.3,0-1.9-1.1-1.2-2.2c0.5-0.9,1.1-1.7,1.7-2.6
			c0.1-0.1,0.2-0.2,0.3-0.4c-0.4,0-0.7,0-0.9,0c-1.1,0-1.7-1.1-1.1-2c0.5-0.9,1.2-1.8,1.8-2.7c0.1-0.1,0.2-0.2,0.3-0.4
			c-0.4,0-0.6,0-0.9,0c-0.9,0-1.5-0.5-1.4-1.4c0.1-0.8,0.2-1.6,0.4-2.4c1.1-3.7,4.2-6.1,8.1-6.2c1.8,0,3.7-0.1,5.6,0
			c3.9,0.3,6.8,2.9,7.7,6.7c0.1,0.6,0.2,1.2,0.3,1.8c0.1,0.9-0.5,1.4-1.3,1.4c-0.3,0-0.6,0-0.9,0c0.5,0.7,1,1.4,1.4,2.1
			c0.2,0.3,0.5,0.7,0.7,1c0.5,1,0,2-1.2,2c-0.2,0-0.5,0-0.8,0c0.1,0.2,0.2,0.3,0.3,0.4c0.5,0.7,1,1.5,1.5,2.2
			c0.1,0.2,0.3,0.4,0.4,0.7c0.4,0.9-0.2,1.8-1.1,1.9c-0.3,0-0.6,0-1,0c0.1,0.2,0.2,0.3,0.3,0.4c0.6,0.8,1.1,1.6,1.6,2.4
			c0.2,0.3,0.3,0.7,0.3,1.1c0,0.6-0.5,1.1-1.3,1.1c-0.6,0-1.3,0-2,0c0,0.5,0,0.9,0,1.3c0,0.7,0,1.5,0,2.2c0,1.6-1.1,2.8-2.7,3.1
			c-0.4,0-0.7,0.1-1.1,0.1c-2.8,0-5.5,0-8.3,0c-1.4,0-2.6-0.5-3.2-1.9c-0.1-0.1-0.3-0.2-0.5-0.2c-2.8,0-5.7,0-8.5,0
			c-0.5,0-0.9,0-1.4,0c-0.4,0-0.4,0.1-0.4,0.5c0,2.7,0,5.5,0,8.2c0,3.2,0,6.4,0,9.6c0,0.1,0,0.3,0,0.5c0.2,0,0.3,0,0.5,0
			c1.4,0,2.8-0.1,4.3,0c1.6,0.1,2.8,1,3.4,2.6c0.2,0.5,0.2,1,0.2,1.6c0,1,0,2,0,3c0.3,0,0.6,0,0.9,0c2.1,0,4.1,0,6.2,0
			c0.7,0,1.2,0.4,1.4,1c0.2,0.9-0.4,1.6-1.4,1.6c-3.6,0-7.3,0-10.9,0c-9,0-18,0-27.1,0c-0.7,0-1.1-0.3-1.3-0.8
			c-0.2-0.5-0.1-1.2,0.4-1.5c0.3-0.2,0.7-0.3,1-0.3c2.2,0,4.3,0,6.5,0c0.4,0,0.6-0.1,0.5-0.5c0-0.9,0-1.9,0-2.8c0-2,1.5-3.7,3.6-3.8
			c1.4-0.1,2.8,0,4.1,0C121,625.8,121.2,625.8,121.4,625.8z M126.2,597.3C126.2,597.3,126.2,597.3,126.2,597.3c0-7.2,0-14.5,0-21.7
			c0-2.1,0-4.1,0-6.2c0-0.7-0.3-1.2-0.9-1.3c-0.8-0.1-1.4,0.4-1.4,1.3c0,4.1,0,8.2,0,12.3c0,14.4,0,28.8,0,43.2c0,0.2,0,0.4,0,0.6
			c0,0.3,0.1,0.4,0.4,0.4c0.4,0,0.9,0,1.3,0c0.6,0,0.6,0,0.6-0.6C126.2,615.9,126.2,606.6,126.2,597.3z M125,632.9
			C125,632.9,125,632.9,125,632.9c3,0,5.9,0,8.9,0c0.4,0,0.5-0.1,0.5-0.5c0-0.9,0-1.8,0-2.8c0-0.9-0.5-1.4-1.4-1.4
			c-5.3,0-10.6,0-16,0c-0.9,0-1.4,0.5-1.4,1.4c0,0.9,0,1.8,0,2.8c0,0.4,0.1,0.5,0.5,0.5C119.2,632.9,122.1,632.9,125,632.9z
			 M155.2,584.5c0-0.1,0-0.2-0.1-0.3c-0.6-2.6-2.8-4.4-5.5-4.5c-1.8,0-3.5,0-5.3,0c-2.7,0-5,1.9-5.7,4.5c0,0.1,0,0.2,0,0.3
			C144.2,584.5,149.7,584.5,155.2,584.5z M152.3,602.5c-3.6,0-7.1,0-10.6,0c0,1.1,0,2.2,0,3.3c0,0.6,0.3,0.9,0.9,0.9
			c1.1,0,2.1,0,3.2,0c1.9,0,3.8,0,5.7,0c0.5,0,0.8-0.2,0.8-0.6C152.3,604.9,152.3,603.7,152.3,602.5z M158.3,552.4
			c2,0,3.6-1.6,3.6-3.6c0-2-1.6-3.7-3.6-3.7c-2,0-3.7,1.7-3.7,3.7C154.7,550.7,156.4,552.4,158.3,552.4z M130.4,548.8
			c0,2.1,1.5,3.6,3.6,3.6c2,0,3.5-1.6,3.5-3.6c0-2-1.6-3.6-3.6-3.6C132,545.1,130.4,546.8,130.4,548.8z M154.9,599.9
			c-0.5-0.9-1-1.7-1.6-2.5c-0.1-0.1-0.3-0.1-0.4-0.1c-4,0-8,0-12,0c-0.1,0-0.3,0-0.4,0.1c-0.5,0.8-1,1.6-1.6,2.4
			C144.3,599.9,149.6,599.9,154.9,599.9z M139,589.6c5.3,0,10.5,0,15.7,0c0-0.1,0-0.1,0-0.2c-0.4-0.8-0.9-1.5-1.4-2.2
			c-0.1-0.1-0.3-0.2-0.4-0.2c-0.9,0-1.9,0-2.8,0c-3,0-6,0-8.9,0c-0.2,0-0.5,0.1-0.6,0.2C140,588,139.6,588.8,139,589.6z
			 M154.9,594.8c-0.5-0.9-1-1.6-1.5-2.4c-0.1-0.1-0.3-0.2-0.4-0.2c-4,0-8,0-12,0c-0.1,0-0.4,0-0.4,0.1c-0.5,0.8-1,1.6-1.6,2.4
			C144.3,594.8,149.6,594.8,154.9,594.8z M88.9,547.1c0,0.1,0.1,0.2,0.1,0.2c0.8,1.4,1.6,2.8,2.4,4.2c0.1,0.1,0.3,0.2,0.5,0.2
			c2.2,0,4.4,0,6.6,0c0.1,0,0.3,0,0.4,0c-0.1-0.1-0.1-0.1-0.1-0.2c-1.4-1.4-2.8-2.8-4.2-4.2c-0.1-0.1-0.4-0.2-0.6-0.2
			c-1.5,0-3.1,0-4.6,0C89.2,547.1,89.1,547.1,88.9,547.1z M89,558.8c0.1,0,0.2,0,0.2,0c1.6,0,3.3,0,4.9,0c0.2,0,0.4-0.1,0.6-0.3
			c1.3-1.3,2.6-2.6,3.9-3.9c0.1-0.1,0.1-0.2,0.3-0.3c-0.2,0-0.4,0-0.6,0c-1.8,0-3.6,0.1-5.3,0c-1.1-0.1-1.7,0.2-2.2,1.2
			C90.3,556.6,89.6,557.7,89,558.8z M142.5,570.4c0.2,0,0.3,0,0.5,0c1.3,0,2.7,0,4,0c0.2,0,0.4,0,0.7,0c1.3-0.1,2.1-0.9,2.1-2.2
			c0-0.3,0-0.6,0-0.9c0-0.4-0.1-0.5-0.5-0.5c-2.1,0-4.2,0-6.3,0c-0.1,0-0.3,0-0.5,0C142.5,568.1,142.5,569.2,142.5,570.4z
			 M144.4,564.4c1.1,0,2.2,0,3.2,0c0.3,0,0.3-0.1,0.3-0.3c0-1.2,0-2.5,0-3.7c0-1.1-0.8-1.9-1.8-1.8c-0.9,0-1.7,0.8-1.7,1.9
			c0,1,0,2.1,0,3.1C144.4,563.8,144.4,564.1,144.4,564.4z"/>
	</g>
</g>
<g id="Ebene_7">
	<rect id="heizungboiler" x="514.7" y="1082.4" class="st5" width="59.2" height="96.6"/>
	<g id="XMLID_132_">
		<path id="XMLID_130_" class="st9" d="M519.2,1081h49.9c3.4,0,6.2,2.8,6.2,6.2v87.3c0,3.4-2.8,6.2-6.2,6.2h-49.9
			c-3.4,0-6.2-2.8-6.2-6.2v-87.3C513,1083.8,515.8,1081,519.2,1081z"/>
		<path id="XMLID_135_" class="st9" d="M534.8,1068.5h18.7 M544.2,1068.5v12.5"/>
		<path id="XMLID_127_" class="st9" d="M494.3,1099.7H513"/>
		<path id="XMLID_126_" class="st9" d="M494.3,1162.1H513"/>
		<path id="XMLID_125_" class="st9" d="M575.4,1130.9h18.7"/>
	</g>
	<polygon id="feld2" class="st10" points="0,400.3 289,400.3 900,199.3 900,0 0,0 	"/>
	<polygon id="feld1" class="st10" points="2000,400.3 1711,400.3 1100,199.3 1100,0 2000,0 	"/>
	<rect id="stromnutzung" x="10" y="10" class="st5" width="700" height="320"/>
	<rect id="stromnutzunginfo" x="720" y="10" class="st5" width="170" height="180"/>
	<rect id="stromverteilunginfo" x="1110" y="10" class="st5" width="170" height="180"/>
	<rect id="stromverteilung2" x="1605" y="11" class="st5" width="379" height="380.7"/>
	<rect id="stromverteilung" x="1290" y="11" class="st5" width="350" height="320"/>
	<rect id="pvgarage" x="146.4" y="873.1" class="st7" width="152.1" height="5"/>
	
		<rect id="pvost" x="1002.5" y="253.5" transform="matrix(0.9515 0.3077 -0.3077 0.9515 136.3055 -352.3909)" class="st7" width="366.1" height="5"/>
	
		<rect id="pvwest" x="1360.8" y="369.2" transform="matrix(0.9515 0.3077 -0.3077 0.9515 189.3089 -457.0581)" class="st7" width="366.1" height="5"/>
	<rect id="eingang" x="255.7" y="789" class="st5" width="74.7" height="99.8"/>
	<rect id="stromog" x="1668.1" y="522.6" class="st5" width="130" height="80"/>
	<rect id="stromeg" x="1668.1" y="772.4" class="st5" width="130" height="80"/>
	<rect id="stromug" x="1668.1" y="1052.4" class="st5" width="130" height="80"/>
	<rect id="stromgarage" x="157.5" y="991.9" class="st5" width="130" height="80"/>
	<rect id="wetterstation" y="470" class="st5" width="250" height="250"/>
	<rect id="garage" x="172" y="900.8" class="st5" width="100.5" height="72.6"/>
	<rect id="mull" x="32.5" y="879" class="st5" width="59.8" height="94.4"/>
</g>
</svg>
