<?xml version="1.0" encoding="utf-8"?>
<!-- Generator: Adobe Illustrator 19.0.0, SVG Export Plug-In . SVG Version: 6.00 Build 0)  -->
<svg version="1.1" xmlns="http://www.w3.org/2000/svg" xmlns:xlink="http://www.w3.org/1999/xlink" x="0px" y="0px"
	 viewBox="0 0 2400 1600" style="enable-background:new 0 0 2400 1600;" xml:space="preserve">
<style type="text/css">
	.st0{fill:url(#XMLID_29_);}
	.st1{display:none;}
	.st2{fill:none;stroke:#4D566A;stroke-width:9;stroke-linecap:round;stroke-linejoin:round;stroke-miterlimit:10;}
	.st3{fill:none;stroke:#000000;stroke-linejoin:round;stroke-miterlimit:10;}
	.st4{fill:none;stroke:#4D566A;stroke-width:6;stroke-linecap:round;stroke-linejoin:round;stroke-miterlimit:10;}
	.st5{fill:none;}
	.st6{fill:none;stroke:#4D566A;stroke-width:5;stroke-linecap:round;stroke-linejoin:round;stroke-miterlimit:10;}
	.st7{fill:#D8DEE9;}
	.st8{fill:#4D566A;}
	.st9{fill:none;stroke:#4D566A;stroke-width:6;stroke-miterlimit:10;}
	.st10{fill:#2E3440;}
</style>
<g id="Ebene_2">
	
		<radialGradient id="XMLID_29_" cx="1200" cy="720" r="989.5453" gradientTransform="matrix(1 0 0 1.1111 0 0)" gradientUnits="userSpaceOnUse">
		<stop  offset="0" style="stop-color:#434C5E"/>
		<stop  offset="1" style="stop-color:#2E3440"/>
	</radialGradient>
	<rect id="XMLID_34_" class="st0" width="2400" height="1600"/>
</g>
<g id="Ebene_3" class="st1">
</g>
<g id="Ebene_5">
	<line id="XMLID_79_" class="st2" x1="0" y1="1257.4" x2="460" y2="1257.4"/>
	<line id="XMLID_27_" class="st2" x1="1939.4" y1="1257.4" x2="2400" y2="1257.4"/>
	<g id="haus">
		<polyline id="XMLID_86_" class="st2" points="1939.4,727.1 1939.4,1531.1 460.6,1531.1 460.6,727.1 		"/>
		<polyline id="XMLID_87_" class="st2" points="460.1,727.1 396.4,727.1 1200,480 		"/>
		<polyline id="XMLID_28_" class="st2" points="1939.9,727.1 2003.6,727.1 1200,480 		"/>
	</g>
</g>
<g id="Ebene_1">
	<rect id="egbad" x="474.2" y="975.2" class="st3" width="290.5" height="275.4"/>
	<rect id="egwohnzimmer" x="764.7" y="975.2" class="st3" width="290.5" height="275.4"/>
	<rect id="egkuche" x="1055.3" y="975.2" class="st3" width="290.5" height="275.4"/>
	<rect id="egflur" x="1345.8" y="975.2" class="st3" width="290.5" height="275.4"/>
	<rect id="egburo" x="1636.4" y="975.2" class="st3" width="290.5" height="275.4"/>
	<rect id="ogbad" x="474.2" y="726.3" class="st3" width="363.2" height="248.8"/>
	<rect id="ogschlafzimmer" x="837.9" y="726" class="st3" width="363.2" height="248.8"/>
	<rect id="ogkind1" x="1200.5" y="726.3" class="st3" width="363.2" height="248.8"/>
	<rect id="ogkind2" x="1563.7" y="726.3" class="st3" width="363.2" height="248.8"/>
	<rect id="heizung" x="474.2" y="1250.9" class="st3" width="290.4" height="276"/>
	<rect id="batterie" x="764.6" y="1250.9" class="st3" width="290.4" height="276"/>
	<rect id="luftung" x="1055.1" y="1250.5" class="st3" width="290.4" height="276"/>
	<rect id="ugburo" x="1345.5" y="1250.5" class="st3" width="290.4" height="276"/>
	<rect id="ughobby" x="1636" y="1250.5" class="st3" width="290.4" height="276"/>
	<g id="XMLID_443_">
		<polygon id="XMLID_445_" class="st4" points="191.4,1257.7 191.4,1160.5 175.7,1160.5 175.7,1146.7 358.2,1146.7 358.2,1160.5 
			342.5,1160.5 342.5,1257.7 		"/>
		<rect id="XMLID_444_" x="201.6" y="1160.5" class="st4" width="129.8" height="97.2"/>
	</g>
	<g id="gewachshausShape">
		<polygon id="XMLID_442_" class="st4" points="2141.2,1257.7 2141.2,1113.3 2129.2,1113.3 2256.5,1025.2 2379,1113.3 
			2371.8,1113.3 2371.8,1257.7 		"/>
		<polyline id="XMLID_441_" class="st4" points="2141.2,1113.3 2311.7,1113.3 2371.8,1113.3 		"/>
		<polyline id="XMLID_440_" class="st4" points="2256.5,1025.2 2158,1113.3 2158,1257.7 		"/>
		<polyline id="XMLID_439_" class="st4" points="2206.1,1113.3 2256.5,1025.2 2355,1113.3 2355,1257.7 		"/>
		<line id="XMLID_438_" class="st4" x1="2306.9" y1="1113.3" x2="2256.5" y2="1025.2"/>
	</g>
	<rect id="zisterne" x="42.8" y="1270.8" class="st5" width="87.3" height="247.2"/>
	<rect id="gewachshaus" x="2158" y="1113.3" class="st5" width="196.9" height="144.5"/>
	<polyline id="XMLID_437_" class="st6" points="460,1049.5 300.7,1073.1 300,1068 460,1044.6 	"/>
	<polyline id="XMLID_436_" class="st4" points="39,1275.6 39,1521.6 132.9,1521.6 132.9,1275.6 	"/>
</g>
<g id="Ebene_6">
	<g id="XMLID_139_">
		<path id="XMLID_144_" class="st7" d="M980.3,1291.2c-0.8,0.4-1.3,1.5-1.2,2.4l0.1,0.7l-7,0.1c-6.7,0.1-7.1,0.1-8.2,0.6
			c-1.7,0.7-3.2,2.5-4.1,4.4l-0.7,1.6v40.1v40.1l0.7,1.6c0.8,1.9,2.4,3.7,4.1,4.5l1.2,0.5h22.4h22.4l1.2-0.5
			c1.7-0.8,3.4-2.7,4.1-4.6l0.6-1.5v-40.1V1301l-0.7-1.6c-0.8-1.9-2.4-3.7-4.1-4.4c-1.1-0.5-1.5-0.5-7.6-0.6l-6.4-0.1l0.1-0.5
			c0.1-0.8-0.5-2.1-1.3-2.6C994.8,1290.6,981.3,1290.6,980.3,1291.2z M1009.7,1299.3c0.8,0.4,1.5,1.1,1.9,2.2
			c0.4,0.9,0.4,2.5,0.4,39.6c0,42,0.1,39.5-1.1,40.9c-1,1.3,0.2,1.2-23.5,1.2c-24.1,0-22.5,0.1-23.6-1.4c-0.3-0.4-0.6-1.1-0.8-1.6
			c-0.3-1.2-0.3-77,0-78.2c0.3-1.1,1.1-2.3,1.9-2.7C965.8,1298.9,1008.8,1298.8,1009.7,1299.3z"/>
		<path id="batterie-icon-4" class="st8" d="M966.6,1312.5v8.1h20.9h20.9v-8.1v-8.1h-20.9h-20.9V1312.5z"/>
		<path id="batterie-icon-3" class="st8" d="M966.6,1331.5v8.1h20.9h20.9v-8.1v-8.1h-20.9h-20.9V1331.5z"/>
		<path id="batterie-icon-2" class="st8" d="M966.6,1350.5v8.1h20.9h20.9v-8.1v-8.1h-20.9h-20.9V1350.5z"/>
		<path id="batterie-icon-1" class="st8" d="M966.6,1369.5v8.1h20.9h20.9v-8.1v-8.1h-20.9h-20.9V1369.5z"/>
	</g>
	<g id="XMLID_35_">
		<path id="XMLID_1264_" class="st8" d="M1446.9,928.7c-2.5,0-4.2,0-6.3,0c-0.2-2.3-0.4-4.3-0.7-6.8c-1.5-0.1-3-0.3-4.5-0.3
			c-17.4,0-34.9,0-52.3,0c-7.7,0-12.6-2.5-17.3-8.8c0-10.6,0-21.4,0-32.4c-1.9,0-3.5,0-5.6,0c0,9.5,0,18.9,0,28.6
			c-1.4-0.2-2.3-0.3-3.5-0.5c0-9.3,0-18.5,0-28c-2,0-3.6,0-5.6,0c0,3.6,0,7.3,0,11.1c1.6,0.3,3,0.7,4.7,1c0,2.7,0,5.1,0,7.9
			c-1.4,0-2.7,0-4.3,0c-0.1-2-0.2-3.9-0.4-5.8c-0.2,0-0.3,0-0.5,0c0,4.4,0,8.8,0,13.4c-1.1,0.2-2,0.4-3.3,0.7c0-9.5,0-18.7,0-28.3
			c-2.1,0-3.9,0-6.1,0c0,10.2,0,20.6,0,31.4c-3.2,3.2-6.8,6.3-9.8,9.8c-1.6,1.9-2.3,4.5-4.1,7c-0.2-1.3-0.5-2.7-0.5-4
			c0-16.3,0-32.7,0-49c0-2-0.6-4-0.4-5.9c0.2-1.6,0.8-3.5,1.9-4.4c0.8-0.7,3.3-0.5,4.1,0.2c1,1,1.3,3,1.5,4.6
			c0.2,1.5-0.2,3.1-0.4,4.8c35.8,0,71,0,106.8,0c-0.2-1.7-0.7-3.2-0.5-4.6c0.2-1.7,0.5-3.7,1.6-4.9c0.7-0.7,3.4-0.8,4.1-0.1
			c1.1,1.1,1.6,3.1,1.9,4.7c0.2,1.4-0.3,2.8-0.3,4.2c0,16.7,0,33.3,0,50C1446.9,925.7,1446.9,927,1446.9,928.7z M1426.8,880.4
			c0,10.8,0,21.2,0,31.7c2.1,0,3.9,0,5.8,0c0-10.7,0-21.1,0-31.7C1430.6,880.4,1428.9,880.4,1426.8,880.4z M1403.9,912.3
			c0-11,0-21.4,0-31.9c-2.1,0-3.8,0-5.7,0c0,10.7,0,21,0,31.6c0.8,0.1,1.5,0.3,2.1,0.3C1401.5,912.4,1402.6,912.3,1403.9,912.3z
			 M1369.8,880.3c0,10.6,0,21.1,0,31.7c1.8,0,3.5,0,5.5,0c0-10.7,0-21.2,0-31.7C1373.5,880.3,1372,880.3,1369.8,880.3z
			 M1384.9,880.5c-1.9,0-3.6,0-5.7,0c0,10.7,0,21.1,0,31.5c2,0,3.8,0,5.7,0C1384.9,901.3,1384.9,891,1384.9,880.5z M1388.9,880.4
			c0,10.8,0,21.2,0,31.7c2,0,3.6,0,5.4,0c0-10.7,0-21.1,0-31.7C1392.4,880.4,1390.8,880.4,1388.9,880.4z M1417.4,880.4
			c0,10.8,0,21.2,0,31.6c1.9,0,3.6,0,5.4,0c0-10.7,0-21.1,0-31.6C1420.9,880.4,1419.3,880.4,1417.4,880.4z M1408,880.3
			c0,10.8,0,21.2,0,31.6c2,0,3.7,0,5.4,0c0-10.7,0-21.1,0-31.6C1411.5,880.3,1409.9,880.3,1408,880.3z M1337.3,912.2
			c0-10.8,0-21.2,0-32c-1.3,0.1-2.4,0.1-3.5,0.2c0,7.2,0,14.1,0,20.9c1.1,0.5,2,1,2.9,1.4c0,2.7,0,5.3,0,7.9
			c-0.9,0.5-1.7,0.9-3.1,1.6C1335.3,912.2,1336.1,912.2,1337.3,912.2z M1436.6,880.2c0,10.8,0,21.3,0,32c1.1,0,2,0,2.9,0
			c0.1-0.2,0.1-0.3,0.2-0.5c-0.8-0.3-1.7-0.6-2.6-1c0-2.8,0-5.4,0-8c1.1-0.5,2-1,2.9-1.4c0-7,0-13.7,0-20.7
			C1438.9,880.4,1438.1,880.3,1436.6,880.2z"/>
		<path id="XMLID_1228_" class="st8" d="M1378.6,935.3c-1.5,0.3-3.2,0.6-4.9,0.9c-4.4,6-9.6,6-13.9-0.2c-3.4,0-6.8,0-10.3,0
			c-4.9,6.9-10.5,5.3-13.8,0.3c-5.3-1.1-5.1-1.1-4.3-6.5c0.6-3.7,0.9-7.2,5.3-8.6c0.7-0.2,1.2-1.5,1.6-2.4
			c4.1-10.9,23.8-11,28.2-1.2c1.1,2.4,2.9,3.5,5.6,3.9C1377.7,922.4,1380.7,928.5,1378.6,935.3z M1353.7,921.5c3.6,0,6.7,0,10,0
			c-1.8-5.5-5.3-7.6-10-6.4C1353.7,917.1,1353.7,919.1,1353.7,921.5z M1350.4,921.6c0-2.4,0-4.6,0-6.7c-4.3-0.6-7.3,1.7-8.6,6.7
			C1344.7,921.6,1347.5,921.6,1350.4,921.6z M1342.6,937.9c1.3-1.9,2.8-3.1,2.6-3.9c-0.2-1.1-1.7-2.5-2.8-2.7
			c-0.7-0.2-2.5,1.6-2.5,2.5C1339.9,934.9,1341.2,936,1342.6,937.9z M1365.3,930.8c-0.5,0.5-0.9,0.9-1.4,1.4c0.4,1.4,0.6,3,1.4,4
			c0.5,0.5,2.6,0.3,3.4-0.3c0.6-0.5,1-2.6,0.6-3C1368.2,931.8,1366.6,931.4,1365.3,930.8z"/>
		<path id="XMLID_1211_" class="st8" d="M1435,829.6c-0.7,3.3-1.4,6.2-2.1,9.5c1.2,1,2.9,2.2,4.3,3.8c1.6,1.9,3.3,4,4.1,6.2
			c1.3,3.3-0.4,5.7-3.6,7.1c1.2,5,0.2,9.3-4.3,11.9c-3.4,2-6.6,0.9-9.2-1.9c-1.9,0-3.6,0-5.7,0c-2.6,2.8-6,4.1-9.8,1.6
			c-4-2.7-5.2-6.7-3.8-11.3c-5.1-3.5-5.5-6.9-1.5-11.7c1.8-2.2,3.6-4.5,6.2-7.8c-1-2.3-2.5-6.3-4.3-10.2c-1.3-2.9-0.8-6.1,1.9-8.3
			c3-2.5,5.9-1.7,8.4,0.4c3.8,0,7.2,0,11.4,0c3.9-2.5,7.1-2.5,9.6,0.6C1439.1,822.7,1438.5,825.9,1435,829.6z M1421.1,821.9
			c-5.4,0-9.8,4.1-9.8,9.4c-0.1,5.4,4.6,10.1,10.1,10.1c5.4,0,9.7-4.3,9.8-9.6C1431.3,826.2,1426.9,821.9,1421.1,821.9z
			 M1411.4,852.8c5.9,1.1,7.3,5.3,8.1,9.9c1.5-0.1,2.6-0.2,3.8-0.3c0.1-5.1,2.7-8.1,7.5-10.2c-1.2-3.2-2.3-6.1-3.1-8.3
			c-4.7,0-8.5,0-13.1,0C1413.7,846.4,1412.7,849.4,1411.4,852.8z M1434.9,859.5c-0.1-1.9-1.3-3.4-3.8-3.4c-2.3,0-4.5,2.8-4.6,5.6
			c0,2.2,0.7,4,3.2,4.2C1432.3,866.1,1434.9,863,1434.9,859.5z M1407.8,858.6c-0.1,4.1,2.2,7.2,4.6,7.2c2.5,0.1,3.5-1.6,3.6-3.8
			c0.2-2.9-2.2-6.1-4.6-5.7C1409.8,856.6,1408.5,858.1,1407.8,858.6z M1404,851.8c0.3,0.4,0.6,0.8,0.9,1.2c1.3-0.6,3.2-1,3.7-2
			c1.4-2.8,2.3-6,3.6-9.8C1408.1,844.5,1404.1,846.7,1404,851.8z M1437.7,852.9c1.5-4-2-9-7.4-10.7
			C1433.9,844.9,1431.1,852,1437.7,852.9z M1433.3,826c0.4-0.1,0.9-0.2,1.3-0.3c-0.2-1.4,0-3.1-0.8-4.1c-0.6-0.8-2.4-0.7-3.6-1
			c-0.1,0.3-0.2,0.6-0.3,1C1431.1,823,1432.2,824.5,1433.3,826z M1408,825.7c0.3,0.1,0.6,0.1,1,0.2c1.2-1.5,2.5-3,3.7-4.6
			c-0.2-0.3-0.3-0.6-0.5-0.9c-1.2,0.4-2.9,0.6-3.6,1.4C1407.8,822.7,1408.1,824.4,1408,825.7z"/>
		<path id="XMLID_1190_" class="st8" d="M1393.9,865.1c-4.4,0-8.7,0-13.4,0c0-4.5,0-8.7,0-13.3c4.4,0,8.6,0,13.4,0
			C1393.9,856.1,1393.9,860.4,1393.9,865.1z"/>
		<path id="XMLID_1189_" class="st8" d="M1359.8,851.9c0,4.4,0,8.6,0,13.1c-4.5,0-8.9,0-13.5,0c0-4.4,0-8.6,0-13.1
			C1350.7,851.9,1355,851.9,1359.8,851.9z"/>
		<path id="XMLID_1188_" class="st8" d="M1363.2,822c4.4,0,8.6,0,13.2,0c0,4.4,0,8.6,0,13.2c-4.3,0-8.5,0-13.2,0
			C1363.2,831,1363.2,826.8,1363.2,822z"/>
		<path id="XMLID_1187_" class="st8" d="M1376.6,865.1c-4.3,0-8.5,0-13,0c0-4.4,0-8.7,0-13.2c4.3,0,8.5,0,13,0
			C1376.6,856.3,1376.6,860.5,1376.6,865.1z"/>
		<path id="XMLID_1186_" class="st8" d="M1368.4,837c0,4.5,0,8.6,0,13c-4.6,0-8.8,0-13.4,0c0-4.3,0-8.5,0-13
			C1359.4,837,1363.7,837,1368.4,837z"/>
		<path id="XMLID_1184_" class="st8" d="M1387.8,850c-6.3,0-11.5,0-17.6,0c2.9-5.3,5.4-9.9,8-14.5c0.4-0.1,0.8-0.1,1.2-0.2
			C1382.1,840,1384.7,844.6,1387.8,850z"/>
		<path id="XMLID_1084_" class="st8" d="M1365.1,902.3c0,3.1,0,5.8,0,9.1c-1.6-0.8-2.8-1.3-4.2-1.9c0-2.4,0-4.7,0-7.2
			C1362.3,902.3,1363.5,902.3,1365.1,902.3z"/>
		<path id="XMLID_1077_" class="st8" d="M1346,900.4c-1.3,0-2.4,0-3.8,0c0-2.5,0-4.9,0-7.7c1.2-0.1,2.3-0.3,3.8-0.4
			C1346,895,1346,897.5,1346,900.4z"/>
		<path id="XMLID_1074_" class="st8" d="M1346.1,902.3c0,2.2,0,4.2,0,6.6c-1.1,0.5-2.2,1-3.8,1.7c0-2.9,0-5.4,0-8.3
			C1343.5,902.3,1344.7,902.3,1346.1,902.3z"/>
		<path id="XMLID_1072_" class="st8" d="M1351.5,908.3c0-2.3,0-4.1,0-6.1c1.5,0,2.7,0,4.2,0c0,2.2,0,4,0,6.1
			C1354.3,908.3,1353,908.3,1351.5,908.3z"/>
		<path id="XMLID_1065_" class="st8" d="M1360.9,893.9c3.8,1,4.7,2.5,3.6,6.5c-0.6,0.1-1.2,0.3-1.8,0.3c-0.5,0-1-0.2-1.8-0.3
			C1360.9,898.3,1360.9,896.2,1360.9,893.9z"/>
		<path id="XMLID_1009_" class="st8" d="M1421.1,821.9c5.8,0,10.2,4.3,10.1,9.9c-0.1,5.3-4.4,9.5-9.8,9.6c-5.5,0-10.2-4.6-10.1-10.1
			C1411.4,826,1415.7,821.8,1421.1,821.9z M1421,837.5c1.3-1,2.4-1.7,3.5-2.5c-0.1-0.5-0.1-0.9-0.2-1.4c-1.9-0.1-3.7-0.2-5.6-0.4
			c-0.1,0.4-0.3,0.9-0.4,1.3C1419.1,835.4,1419.9,836.3,1421,837.5z"/>
		<path id="XMLID_1008_" class="st8" d="M1411.4,852.8c1.2-3.4,2.3-6.4,3.2-8.9c4.6,0,8.3,0,13.1,0c0.8,2.2,1.9,5.2,3.1,8.3
			c-4.8,2.1-7.4,5.2-7.5,10.2c-1.2,0.1-2.3,0.2-3.8,0.3C1418.8,858.1,1417.3,854,1411.4,852.8z"/>
		<path id="XMLID_976_" class="st8" d="M1431.9,902.3c0,3,0,5.7,0,8.6c-1.5,0-2.8,0-4.4,0c0-2.8,0-5.5,0-8.6
			C1429,902.3,1430.2,902.3,1431.9,902.3z"/>
		<path id="XMLID_975_" class="st8" d="M1398.9,911c0-3,0-5.8,0-8.8c1.5,0,2.8,0,4.4,0c0,3,0,5.8,0,8.8
			C1401.8,911,1400.7,911,1398.9,911z"/>
		<path id="XMLID_974_" class="st8" d="M1370.5,901.9c1.7,0.1,2.7,0.2,4,0.3c0,2.9,0,5.6,0,8.7c-1.2,0.1-2.4,0.2-4,0.3
			C1370.5,908,1370.5,905.2,1370.5,901.9z"/>
		<path id="XMLID_973_" class="st8" d="M1384.1,911c-1.7,0-2.7,0-4.1,0c0-2.9,0-5.7,0-8.7c1.3,0,2.6,0,4.1,0
			C1384.1,905.3,1384.1,908,1384.1,911z"/>
		<path id="XMLID_972_" class="st8" d="M1393.7,911c-1.5,0-2.7,0-4.2,0c0-3,0-5.7,0-8.8c1.5,0,2.7,0,4.2,0
			C1393.7,905.2,1393.7,907.8,1393.7,911z"/>
		<path id="XMLID_971_" class="st8" d="M1422.2,911.1c-1.5,0-2.6,0-4.1,0c0-2.9,0-5.6,0-8.7c1.3-0.1,2.6-0.1,4.1-0.2
			C1422.2,905.2,1422.2,907.9,1422.2,911.1z"/>
		<path id="XMLID_970_" class="st8" d="M1408.6,910.9c0-3,0-5.7,0-8.7c1.4,0,2.7,0,4.2,0c0,2.9,0,5.7,0,8.7
			C1411.4,910.9,1410.1,910.9,1408.6,910.9z"/>
		<path id="XMLID_969_" class="st8" d="M1421,837.5c-1.1-1.2-1.9-2-2.7-2.9c0.1-0.4,0.3-0.9,0.4-1.3c1.9,0.1,3.7,0.2,5.6,0.4
			c0.1,0.5,0.1,0.9,0.2,1.4C1423.4,835.8,1422.3,836.5,1421,837.5z"/>
	</g>
	<g id="XMLID_37_">
		<path id="XMLID_114_" class="st8" d="M1828.1,928.7c-2.5,0-4.2,0-6.3,0c-0.2-2.3-0.4-4.3-0.7-6.8c-1.5-0.1-3-0.3-4.5-0.3
			c-17.4,0-34.9,0-52.3,0c-7.7,0-12.6-2.5-17.3-8.8c0-10.6,0-21.4,0-32.4c-1.9,0-3.5,0-5.6,0c0,9.5,0,18.9,0,28.6
			c-1.4-0.2-2.3-0.3-3.5-0.5c0-9.3,0-18.5,0-28c-2,0-3.6,0-5.6,0c0,3.6,0,7.3,0,11.1c1.6,0.3,3,0.7,4.7,1c0,2.7,0,5.1,0,7.9
			c-1.4,0-2.7,0-4.3,0c-0.1-2-0.2-3.9-0.4-5.8c-0.2,0-0.3,0-0.5,0c0,4.4,0,8.8,0,13.4c-1.1,0.2-2,0.4-3.3,0.7c0-9.5,0-18.7,0-28.3
			c-2.1,0-3.9,0-6.1,0c0,10.2,0,20.6,0,31.4c-3.2,3.2-6.8,6.3-9.8,9.8c-1.6,1.9-2.3,4.5-4.1,7c-0.2-1.3-0.5-2.7-0.5-4
			c0-16.3,0-32.7,0-49c0-2-0.6-4-0.4-5.9c0.2-1.6,0.8-3.5,1.9-4.4c0.8-0.7,3.3-0.5,4.1,0.2c1,1,1.3,3,1.5,4.6
			c0.2,1.5-0.2,3.1-0.4,4.8c35.8,0,71,0,106.8,0c-0.2-1.7-0.7-3.2-0.5-4.6c0.2-1.7,0.5-3.7,1.6-4.9c0.7-0.7,3.4-0.8,4.1-0.1
			c1.1,1.1,1.6,3.1,1.9,4.7c0.2,1.4-0.3,2.8-0.3,4.2c0,16.7,0,33.3,0,50C1828.1,925.7,1828.1,927,1828.1,928.7z M1808,880.4
			c0,10.8,0,21.2,0,31.7c2.1,0,3.9,0,5.8,0c0-10.7,0-21.1,0-31.7C1811.8,880.4,1810,880.4,1808,880.4z M1785.1,912.3
			c0-11,0-21.4,0-31.9c-2.1,0-3.8,0-5.7,0c0,10.7,0,21,0,31.6c0.8,0.1,1.5,0.3,2.1,0.3C1782.7,912.4,1783.7,912.3,1785.1,912.3z
			 M1751,880.3c0,10.6,0,21.1,0,31.7c1.8,0,3.5,0,5.5,0c0-10.7,0-21.2,0-31.7C1754.7,880.3,1753.1,880.3,1751,880.3z M1766.1,880.5
			c-1.9,0-3.6,0-5.7,0c0,10.7,0,21.1,0,31.5c2,0,3.8,0,5.7,0C1766.1,901.3,1766.1,891,1766.1,880.5z M1770.1,880.4
			c0,10.8,0,21.2,0,31.7c2,0,3.6,0,5.4,0c0-10.7,0-21.1,0-31.7C1773.6,880.4,1772,880.4,1770.1,880.4z M1798.6,880.4
			c0,10.8,0,21.2,0,31.6c1.9,0,3.6,0,5.4,0c0-10.7,0-21.1,0-31.6C1802.1,880.4,1800.5,880.4,1798.6,880.4z M1789.2,880.3
			c0,10.8,0,21.2,0,31.6c2,0,3.7,0,5.4,0c0-10.7,0-21.1,0-31.6C1792.7,880.3,1791.1,880.3,1789.2,880.3z M1718.5,912.2
			c0-10.8,0-21.2,0-32c-1.3,0.1-2.4,0.1-3.5,0.2c0,7.2,0,14.1,0,20.9c1.1,0.5,2,1,2.9,1.4c0,2.7,0,5.3,0,7.9
			c-0.9,0.5-1.7,0.9-3.1,1.6C1716.5,912.2,1717.3,912.2,1718.5,912.2z M1817.8,880.2c0,10.8,0,21.3,0,32c1.1,0,2,0,2.9,0
			c0.1-0.2,0.1-0.3,0.2-0.5c-0.8-0.3-1.7-0.6-2.6-1c0-2.8,0-5.4,0-8c1.1-0.5,2-1,2.9-1.4c0-7,0-13.7,0-20.7
			C1820.1,880.4,1819.3,880.3,1817.8,880.2z"/>
		<path id="XMLID_108_" class="st8" d="M1759.8,935.3c-1.5,0.3-3.2,0.6-4.9,0.9c-4.4,6-9.6,6-13.9-0.2c-3.4,0-6.8,0-10.3,0
			c-4.9,6.9-10.5,5.3-13.8,0.3c-5.3-1.1-5.1-1.1-4.3-6.5c0.6-3.7,0.9-7.2,5.3-8.6c0.7-0.2,1.2-1.5,1.6-2.4
			c4.1-10.9,23.8-11,28.2-1.2c1.1,2.4,2.9,3.5,5.6,3.9C1758.9,922.4,1761.9,928.5,1759.8,935.3z M1734.9,921.5c3.6,0,6.7,0,10,0
			c-1.8-5.5-5.3-7.6-10-6.4C1734.9,917.1,1734.9,919.1,1734.9,921.5z M1731.6,921.6c0-2.4,0-4.6,0-6.7c-4.3-0.6-7.3,1.7-8.6,6.7
			C1725.9,921.6,1728.6,921.6,1731.6,921.6z M1723.8,937.9c1.3-1.9,2.8-3.1,2.6-3.9c-0.2-1.1-1.7-2.5-2.8-2.7
			c-0.7-0.2-2.5,1.6-2.5,2.5C1721.1,934.9,1722.4,936,1723.8,937.9z M1746.5,930.8c-0.5,0.5-0.9,0.9-1.4,1.4c0.4,1.4,0.6,3,1.4,4
			c0.5,0.5,2.6,0.3,3.4-0.3c0.6-0.5,1-2.6,0.6-3C1749.4,931.8,1747.8,931.4,1746.5,930.8z"/>
		<path id="XMLID_98_" class="st8" d="M1816.2,829.6c-0.7,3.3-1.4,6.2-2.1,9.5c1.2,1,2.9,2.2,4.3,3.8c1.6,1.9,3.3,4,4.1,6.2
			c1.3,3.3-0.4,5.7-3.6,7.1c1.2,5,0.2,9.3-4.3,11.9c-3.4,2-6.6,0.9-9.2-1.9c-1.9,0-3.6,0-5.7,0c-2.6,2.8-6,4.1-9.8,1.6
			c-4-2.7-5.2-6.7-3.8-11.3c-5.1-3.5-5.5-6.9-1.5-11.7c1.8-2.2,3.6-4.5,6.2-7.8c-1-2.3-2.5-6.3-4.3-10.2c-1.3-2.9-0.8-6.1,1.9-8.3
			c3-2.5,5.9-1.7,8.4,0.4c3.8,0,7.2,0,11.4,0c3.9-2.5,7.1-2.5,9.6,0.6C1820.3,822.7,1819.7,825.9,1816.2,829.6z M1802.3,821.9
			c-5.4,0-9.8,4.1-9.8,9.4c-0.1,5.4,4.6,10.1,10.1,10.1c5.4,0,9.7-4.3,9.8-9.6C1812.5,826.2,1808.1,821.9,1802.3,821.9z
			 M1792.6,852.8c5.9,1.1,7.3,5.3,8.1,9.9c1.5-0.1,2.6-0.2,3.8-0.3c0.1-5.1,2.7-8.1,7.5-10.2c-1.2-3.2-2.3-6.1-3.1-8.3
			c-4.7,0-8.5,0-13.1,0C1794.9,846.4,1793.9,849.4,1792.6,852.8z M1816.1,859.5c-0.1-1.9-1.3-3.4-3.8-3.4c-2.3,0-4.5,2.8-4.6,5.6
			c0,2.2,0.7,4,3.2,4.2C1813.5,866.1,1816.1,863,1816.1,859.5z M1788.9,858.6c-0.1,4.1,2.2,7.2,4.6,7.2c2.5,0.1,3.5-1.6,3.6-3.8
			c0.2-2.9-2.2-6.1-4.6-5.7C1791,856.6,1789.7,858.1,1788.9,858.6z M1785.2,851.8c0.3,0.4,0.6,0.8,0.9,1.2c1.3-0.6,3.2-1,3.7-2
			c1.4-2.8,2.3-6,3.6-9.8C1789.3,844.5,1785.3,846.7,1785.2,851.8z M1818.9,852.9c1.5-4-2-9-7.4-10.7
			C1815,844.9,1812.3,852,1818.9,852.9z M1814.5,826c0.4-0.1,0.9-0.2,1.3-0.3c-0.2-1.4,0-3.1-0.8-4.1c-0.6-0.8-2.4-0.7-3.6-1
			c-0.1,0.3-0.2,0.6-0.3,1C1812.3,823,1813.4,824.5,1814.5,826z M1789.2,825.7c0.3,0.1,0.6,0.1,1,0.2c1.2-1.5,2.5-3,3.7-4.6
			c-0.2-0.3-0.3-0.6-0.5-0.9c-1.2,0.4-2.9,0.6-3.6,1.4C1789,822.7,1789.3,824.4,1789.2,825.7z"/>
		<path id="XMLID_97_" class="st8" d="M1775.1,865.1c-4.4,0-8.7,0-13.4,0c0-4.5,0-8.7,0-13.3c4.4,0,8.6,0,13.4,0
			C1775.1,856.1,1775.1,860.4,1775.1,865.1z"/>
		<path id="XMLID_96_" class="st8" d="M1741,851.9c0,4.4,0,8.6,0,13.1c-4.5,0-8.9,0-13.5,0c0-4.4,0-8.6,0-13.1
			C1731.8,851.9,1736.1,851.9,1741,851.9z"/>
		<path id="XMLID_95_" class="st8" d="M1744.4,822c4.4,0,8.6,0,13.2,0c0,4.4,0,8.6,0,13.2c-4.3,0-8.5,0-13.2,0
			C1744.4,831,1744.4,826.8,1744.4,822z"/>
		<path id="XMLID_94_" class="st8" d="M1757.7,865.1c-4.3,0-8.5,0-13,0c0-4.4,0-8.7,0-13.2c4.3,0,8.5,0,13,0
			C1757.7,856.3,1757.7,860.5,1757.7,865.1z"/>
		<path id="XMLID_93_" class="st8" d="M1749.6,837c0,4.5,0,8.6,0,13c-4.6,0-8.8,0-13.4,0c0-4.3,0-8.5,0-13
			C1740.5,837,1744.9,837,1749.6,837z"/>
		<path id="XMLID_88_" class="st8" d="M1769,850c-6.3,0-11.5,0-17.6,0c2.9-5.3,5.4-9.9,8-14.5c0.4-0.1,0.8-0.1,1.2-0.2
			C1763.2,840,1765.9,844.6,1769,850z"/>
		<path id="XMLID_80_" class="st8" d="M1746.3,902.3c0,3.1,0,5.8,0,9.1c-1.6-0.8-2.8-1.3-4.2-1.9c0-2.4,0-4.7,0-7.2
			C1743.5,902.3,1744.7,902.3,1746.3,902.3z"/>
		<path id="XMLID_77_" class="st8" d="M1727.2,900.4c-1.3,0-2.4,0-3.8,0c0-2.5,0-4.9,0-7.7c1.2-0.1,2.3-0.3,3.8-0.4
			C1727.2,895,1727.2,897.5,1727.2,900.4z"/>
		<path id="XMLID_70_" class="st8" d="M1727.3,902.3c0,2.2,0,4.2,0,6.6c-1.1,0.5-2.2,1-3.8,1.7c0-2.9,0-5.4,0-8.3
			C1724.6,902.3,1725.8,902.3,1727.3,902.3z"/>
		<path id="XMLID_69_" class="st8" d="M1732.7,908.3c0-2.3,0-4.1,0-6.1c1.5,0,2.7,0,4.2,0c0,2.2,0,4,0,6.1
			C1735.5,908.3,1734.2,908.3,1732.7,908.3z"/>
		<path id="XMLID_68_" class="st8" d="M1742.1,893.9c3.8,1,4.7,2.5,3.6,6.5c-0.6,0.1-1.2,0.3-1.8,0.3c-0.5,0-1-0.2-1.8-0.3
			C1742.1,898.3,1742.1,896.2,1742.1,893.9z"/>
		<path id="XMLID_65_" class="st8" d="M1802.3,821.9c5.8,0,10.2,4.3,10.1,9.9c-0.1,5.3-4.4,9.5-9.8,9.6c-5.5,0-10.2-4.6-10.1-10.1
			C1792.5,826,1796.9,821.8,1802.3,821.9z M1802.2,837.5c1.3-1,2.4-1.7,3.5-2.5c-0.1-0.5-0.1-0.9-0.2-1.4c-1.9-0.1-3.7-0.2-5.6-0.4
			c-0.1,0.4-0.3,0.9-0.4,1.3C1800.3,835.4,1801.1,836.3,1802.2,837.5z"/>
		<path id="XMLID_64_" class="st8" d="M1792.6,852.8c1.2-3.4,2.3-6.4,3.2-8.9c4.6,0,8.3,0,13.1,0c0.8,2.2,1.9,5.2,3.1,8.3
			c-4.8,2.1-7.4,5.2-7.5,10.2c-1.2,0.1-2.3,0.2-3.8,0.3C1800,858.1,1798.5,854,1792.6,852.8z"/>
		<path id="XMLID_63_" class="st8" d="M1813.1,902.3c0,3,0,5.7,0,8.6c-1.5,0-2.8,0-4.4,0c0-2.8,0-5.5,0-8.6
			C1810.1,902.3,1811.4,902.3,1813.1,902.3z"/>
		<path id="XMLID_62_" class="st8" d="M1780.1,911c0-3,0-5.8,0-8.8c1.5,0,2.8,0,4.4,0c0,3,0,5.8,0,8.8
			C1783,911,1781.8,911,1780.1,911z"/>
		<path id="XMLID_61_" class="st8" d="M1751.7,901.9c1.7,0.1,2.7,0.2,4,0.3c0,2.9,0,5.6,0,8.7c-1.2,0.1-2.4,0.2-4,0.3
			C1751.7,908,1751.7,905.2,1751.7,901.9z"/>
		<path id="XMLID_60_" class="st8" d="M1765.3,911c-1.7,0-2.7,0-4.1,0c0-2.9,0-5.7,0-8.7c1.3,0,2.6,0,4.1,0
			C1765.3,905.3,1765.3,908,1765.3,911z"/>
		<path id="XMLID_59_" class="st8" d="M1774.8,911c-1.5,0-2.7,0-4.2,0c0-3,0-5.7,0-8.8c1.5,0,2.7,0,4.2,0
			C1774.8,905.2,1774.8,907.8,1774.8,911z"/>
		<path id="XMLID_57_" class="st8" d="M1803.4,911.1c-1.5,0-2.6,0-4.1,0c0-2.9,0-5.6,0-8.7c1.3-0.1,2.6-0.1,4.1-0.2
			C1803.4,905.2,1803.4,907.9,1803.4,911.1z"/>
		<path id="XMLID_56_" class="st8" d="M1789.7,910.9c0-3,0-5.7,0-8.7c1.4,0,2.7,0,4.2,0c0,2.9,0,5.7,0,8.7
			C1792.5,910.9,1791.3,910.9,1789.7,910.9z"/>
		<path id="XMLID_54_" class="st8" d="M1802.2,837.5c-1.1-1.2-1.9-2-2.7-2.9c0.1-0.4,0.3-0.9,0.4-1.3c1.9,0.1,3.7,0.2,5.6,0.4
			c0.1,0.5,0.1,0.9,0.2,1.4C1804.6,835.8,1803.5,836.5,1802.2,837.5z"/>
	</g>
	<g id="XMLID_38_">
		<path id="XMLID_40_" class="st8" d="M1056.8,935.9c-2.5-1-4.2-1.7-6.4-2.6c-0.2,2.4-0.3,4.6-0.5,7.2c-2.5,0-5,0-7.7,0
			c-0.2-1.8-0.4-3.3-0.7-5.2c-30.4,0-60.7,0-91.2,0c-0.2,1.7-0.4,3.3-0.7,5.3c-2.6,0-5.2,0-8.1,0c-0.2-2.3-0.3-4.5-0.5-7.1
			c-1.9,0.8-3.6,1.5-6,2.4c-0.7-7.6-4.1-14.5,0.5-21.8c5.2-8.2,9.8-16.7,14.6-25.2c0.6-1.1,0.7-2.7,0.7-4.1c0.1-7.6,0-15.2,0-22.8
			c0-3.7,1.6-5.3,5.3-5.3c26.5,0,53,0,79.5,0c3.5,0,5,1.7,5.1,5.5c0.1,7.6,0,15.2,0.1,22.8c0,1.5,0.6,3.2,1.4,4.5
			c5.3,9.7,10.7,19.3,16,28.9c0.3,0.6,0.6,1.3,0.5,1.9C1058.2,925.4,1057.5,930.4,1056.8,935.9z M1053.7,930.2
			c1.2-5.1,2.4-9.8-0.8-14.3c-0.9-1.4-1.8-2.8-2.5-4.3c-1.7-4.1-4.9-6.2-9.1-6.8c-5.5-0.7-10.9-1.3-16.4-1.6
			c-23.7-1.6-47.4-1-71.1,1c-6.2,0.5-11.3,2.8-13.5,9.3c-0.5,1.4-1.4,2.8-2.1,4.1c-2.3,4.2-0.9,8.2,0.1,12.7
			c2.1-1.2,3.9-2.1,5.5-3.2c3.7-2.7,7.8-3.5,12.4-3.5c24.6,0.2,49.2,0.3,73.8,0c7.7-0.1,14.9,0.5,21.2,5.4
			C1051.8,929.5,1052.6,929.7,1053.7,930.2z M991.8,881.6c0.3-4.2,0.5-8.2,0.7-12.1c-10.8,0-21.5,0-31.9,0c0,5,0,10.1,0,15.2
			C970.8,883.7,981.3,882.7,991.8,881.6z M1031.2,869.6c-10.6,0-21.3,0-31.9,0c0.3,4.1,0.6,8.1,0.9,12.1c10.4,1.1,20.8,2.1,31,3.1
			C1031.2,879.8,1031.2,874.6,1031.2,869.6z M951.1,893.3c0.2,0.3,0.4,0.6,0.6,0.9c29.8-4.3,59.7-5.1,89.4,0.5
			c-2.1-4-3.4-4.6-9.5-5.8c-17.1-3.3-34.4-4-51.7-2.5c-7.8,0.7-15.5,2-23.2,3.5C954.7,890.2,953,892.1,951.1,893.3z"/>
		<path id="XMLID_39_" class="st8" d="M1053.9,859.3c1.2-0.2,1.9-0.4,2.7-0.4c3.6,0,7.3,0,11.4,0c1.8,5.9,3.6,11.7,5.6,18.3
			c-3.5,0.2-6.3,0.4-9.6,0.7c1.9,5.3,6.8,10.3,0.9,16.6c5,0,8.9,0,13.2,0c0,9.9,0,19.2,0,29.1c-1.3,0.2-2.8,0.3-4.5,0.5
			c-0.3-1.8-0.5-3.3-0.8-5.2c-3.9,0-7.8,0-11.6,0c-4.5-8.1-8.7-15.8-13.3-24.2c2.9-0.2,5.4-0.3,8.4-0.4c-4.1-5.8-0.6-10.8,1.9-16.2
			c-3.5-0.2-6.2-0.4-9.8-0.6C1050.4,870.8,1052.1,865,1053.9,859.3z"/>
	</g>
	<g id="XMLID_32_">
		<path id="XMLID_1281_" class="st8" d="M1543.8,1134.8c-3.4,2.1-6.7,2.9-10,0.4c-1.8-1.3-2.7-3.2-1.5-6.4c1.6,1.2,2.9,2.2,4.8,3.6
			c4.1,1.1,6.7-0.8,6.8-5.7c0.1-2.4,0-4.9,0-8c-2.2,0-4.2,0.1-6.2,0c-5.6-0.2-8.3-5.1-5.5-10.4c0.7,0.1,1.5,0.1,2.3,0.2
			c0.5,2.1,0.9,4,1.3,6c2.8,0,5.2,0,7.4,0c1.8-4.2-1.3-9.1,2.8-13.1c4.7,3.8,1.1,8.9,3.1,13c2.3,0,4.8,0,7.1,0
			c2.1-1.8-0.4-5.6,3.5-6.2c2.5,1.6,1.9,4.2,1.3,6.2c-2,6-7.6,3.7-12.1,4.5c0,3.9,0,7.8,0,10.8c0.1-1.2,0.3-3.4,0.5-5.5
			c0.4,0,0.8,0,1.2,0c0.4,2.7,0.8,5.3,1.2,8.2c1.9,0,3.2,0,4.4,0c1-1.3,1.9-2.5,3.1-4c1.9,2.8,1.2,4.5-0.4,6.1
			c-2.9,2.7-5.2,2.8-10.1,0.2c0,16.5,0,32.8,0,49.7c4.4,0,8.6,0,13.1,0c0,1.3,0,2.2,0,3.4c-3.9,0-7.5,0-11.4,0
			c1.6,6.2,7.8,6.1,11.7,8.6c-2.4,4-4.6,3.6-13.4-2.1c-0.3,1.5-0.5,2.9-0.8,4.6c-0.9,0.2-1.9,0.4-3.2,0.7c-0.4-2-0.8-3.5-1.2-5.1
			c-9.4,5.4-11.4,5.8-13.2,1.5c4.2-1.8,9.6-2.2,11.6-7.8c-1-0.1-1.8-0.2-2.6-0.2c-26.4,0-52.8,0-79.2,0c-2.4,0-4.2,0.7-5.9,2.5
			c-5.1,5.4-10.4,10.7-15.7,16.1c-1,1-2,1.8-3.7,3.3c-0.8-0.7-1.4-1.3-2.6-2.4c7.9-7.1,15-13.5,21.6-19.4c0-33.8,0-65.9,0-98
			c0.4-0.2,0.8-0.4,1.2-0.6c0.7,0.7,1.7,1.3,2.1,2.2c0.4,0.9,0.2,2.1,0.2,3.2c0,28.3,0,56.6,0,85c0,1.4,0,2.7,0,4.4
			c4.1,0,7.9,0,12.2,0c0-29,0-57.8,0-87c17.4,0,34.1,0,51.3,0c0,29.1,0,57.9,0,87c7.8,0,15.2,0,22.8,0
			C1543.8,1167.7,1543.8,1151.5,1543.8,1134.8z M1515.8,1144.2c-1.9-1.3-3.1-2.7-4-2.6c-1.1,0.2-2.6,1.8-2.6,2.9
			c0,0.9,1.7,2.5,2.7,2.6C1512.9,1147.1,1514,1145.6,1515.8,1144.2z"/>
		<path id="XMLID_1247_" class="st8" d="M1459,1206.3c3.3-4.7,6.6-9.4,10-13.9c0.6-0.8,2.3-1.1,3.5-1.1c15.4-0.1,30.8-0.1,46.2,0
			c1.1,0,2.7,0.2,3.2,0.9c3.5,4.6,6.8,9.5,10.7,15c-25,0-49,0-73,0C1459.4,1206.9,1459.2,1206.6,1459,1206.3z"/>
	</g>
	<g id="XMLID_31_">
		<path id="XMLID_1256_" class="st8" d="M886.9,1177.4c0-7.7-0.5-14.8-9-17.2c-1.6-11.4,1-15.6,11-17.9c10.1-2.3,20.2-2.3,30.2,0.4
			c7.2,2,9.5,4.9,9.6,12.3c0,1.6,0,3.3,0,5.1c-8.6,2.5-9.7,9.3-9.4,17.2C908.4,1173.8,898,1173.7,886.9,1177.4z"/>
		<path id="XMLID_1250_" class="st8" d="M847.4,1102.9c6.3,0,12.2,0,18.4,0c3.1,9.3,6.3,18.7,9.7,28.8c-6,0-11.3,0-16.9,0
			c0,24.2,0,47.6,0,71.2c2.9,2.9,8.5,2,11.5,6.8c-9.3,0-17.5,0-25.8,0c-0.2-0.3-0.3-0.7-0.5-1c2.5-3.5,7.6-3,10.8-5.7
			c0-23.4,0-47,0-71.2c-5.6,0-10.8,0-16.8,0C841.2,1121.8,844.2,1112.4,847.4,1102.9z"/>
		<path id="XMLID_1207_" class="st8" d="M972.9,1189.9c0,6.6,0,13.1,0,19.7c-10.3,0-20.1,0-30.4,0c-1.2-6.6-0.4-13-0.4-19.7
			C952.4,1189.9,962.6,1189.9,972.9,1189.9z M957.8,1194.5c-0.4,0.1-0.8,0.2-1.3,0.3c-0.2,0.9-0.3,1.9-0.6,3.2
			c1.3-0.1,2.1-0.2,3.9-0.3C958.9,1196.3,958.4,1195.4,957.8,1194.5z"/>
		<path id="XMLID_1205_" class="st8" d="M872.9,1180c-1.6-1.9-3.7-3.6-4.8-5.8c-2.1-4.1,0.2-9.3,4.4-11c4.5-1.8,9.2,0.1,10.9,4.6
			c0.5,1.4,0.8,3,0.8,4.5c0.1,10.8,0,21.6,0,32.4c0,1.6-0.4,3.2-0.7,4.9c-2,0-3.6,0-5.5,0c-0.1-2-0.3-3.9-0.4-6.2
			c-3.8-1-3.9-4.2-3.9-7.6c0.1-5.3,0-10.7,0-16C873.5,1180,873.2,1180,872.9,1180z"/>
		<path id="XMLID_1204_" class="st8" d="M932.6,1179.8c0,5.5-0.1,10.8,0,16.2c0.1,3.4-0.3,6.5-4.1,7.7c-0.1,2-0.2,3.9-0.3,6
			c-1.9,0-3.5,0-5.5,0c-0.3-1.6-0.8-3-0.8-4.4c-0.1-11.2-0.1-22.4,0-33.7c0-4.9,3.3-8.4,7.7-8.9c4-0.5,7.6,2,8.8,6.1
			c1,3.2-0.2,6.9-3.1,9.1C934.6,1178.5,933.7,1179,932.6,1179.8z"/>
		<path id="XMLID_1200_" class="st8" d="M973.1,1172.6c0,5.1,0,9.8,0,14.8c-10.4,0-20.5,0-30.9,0c0-5,0-9.7,0-14.8
			C952.6,1172.6,962.7,1172.6,973.1,1172.6z M956.3,1182c1.2-0.6,2.1-0.8,2.7-1.3c0.3-0.2,0-1.1,0-1.9c-1-0.1-1.8-0.2-2.8-0.2
			C956.3,1179.7,956.3,1180.5,956.3,1182z"/>
		<path id="XMLID_1197_" class="st8" d="M887,1191.4c10.8,0,21.4,0,32.2,0c0,4,0,7.8,0,12c-10.8,0-21.4,0-32.2,0
			C887,1199.2,887,1195.4,887,1191.4z"/>
		<path id="XMLID_1195_" class="st8" d="M886.9,1188.6c0-3,0-5.7,0-8.7c10.8-3.9,21.5-4,32.3,0c0,3,0,5.8,0,8.8
			C908.5,1188.6,897.9,1188.6,886.9,1188.6z"/>
	</g>
	<g id="XMLID_33_">
		<path id="XMLID_1262_" class="st8" d="M1815.8,1161.1c0-2.5,0-4.8,0-7.2c3.4,1.1,5.3,3.5,5.3,6.5c0,2.8,0.1,5.6,0,8.4
			c-0.1,3.7-1.9,5.6-5.5,5.7c-22.9,0-45.7,0-68.6,0c-3.5,0-5.4-1.9-5.4-5.4c0-15.6,0-31.1,0-46.7c0-3.6,1.9-5.5,5.5-5.9
			c0.7-0.1,1.5-0.1,2.2-0.1c21.4,0,42.7,0,64.1,0c6.2,0,7.6,1.4,7.6,7.6c0,2.6,0,5.2,0,8.1c-1.5,0.7-2.9,1.3-4.9,2.2
			c-0.1-2.5-0.2-4.4-0.3-6.3c0-1.9,0-3.7,0-5.9c-23.1,0-45.9,0-68.9,0c0,13,0,25.8,0,38.8
			C1769.9,1161.1,1792.6,1161.1,1815.8,1161.1z"/>
		<path id="XMLID_1251_" class="st8" d="M1754.1,1190.7c1,0,1.9-0.1,2.8-0.1c16.3,0,32.6,0,48.9-0.1c2.8,0,4.3,0.9,5.1,3.6
			c1.1,3.6,2.5,7,3.7,10.6c1.2,3.5,0.2,5.1-3.5,5.1c-19.8,0-39.5,0-59.3,0c-3.7,0-4.8-1.6-3.6-5c1.5-4.3,3.2-8.6,4.8-12.9
			C1753.3,1191.5,1753.6,1191.2,1754.1,1190.7z M1765.1,1203.9c0,0.3,0,0.6,0,0.9c8.7,0,17.5,0,26.2,0c0-0.3,0-0.6,0-0.9
			C1782.6,1203.9,1773.8,1203.9,1765.1,1203.9z M1754.4,1204c0,0.3,0,0.5,0,0.8c2.2,0,4.4,0,6.6,0c0-0.3,0-0.5,0-0.8
			C1758.8,1204,1756.6,1204,1754.4,1204z M1808.4,1204.8c0-0.3,0-0.5,0-0.8c-1.9,0-3.8,0-5.8,0c0,0.3,0,0.5,0,0.8
			C1804.5,1204.8,1806.4,1204.8,1808.4,1204.8z"/>
		<path id="XMLID_1221_" class="st8" d="M1822.5,1156.4c-5.3-5.1-10.3-9.9-15.7-15c3.3-2.9,6.5-4.8,10.6-5.5
			c1.3-0.2,2.7-0.8,3.7-1.6c3.7-3.4,5.3-4,7.7-2.3c2.4,1.7,2.6,3.6,0.7,8.3c3.7,4.5,7.4,9.2,11.5,13.6c1.3,1.4,4.5,1.3,4.1,3.9
			c-0.2,1.6-2.2,2.9-3.1,4.4c-3.8,6.6-7.5,13.3-11.3,20.2c3.2,1,7.2,0.4,7.6,5.3c-6.9,0-13.6,0-20.7,0c1.2-5.5,5.6-4.6,9.3-5.1
			c3.9-7.1,7.9-14.2,11.6-21.4c0.6-1.2,0.1-3.1,0.1-5c-3.6-4.3-7.4-8.9-11.8-14.2C1826.7,1147.5,1826.4,1152.3,1822.5,1156.4z"/>
		<path id="XMLID_1193_" class="st8" d="M1766.6,1187.3c-0.5-3.5,2.3-3.4,4.2-4.9c0.4-1.6,1-3.5,1.6-5.7c5.9,0,11.8,0,18,0
			c0.3,0.9,0.6,1.9,0.8,2.9c0.4,2.1,1.2,3.6,3.3,4.4c0.9,0.4,1.5,1.6,2.3,2.5c-0.2,0.3-0.4,0.6-0.6,0.8
			C1786.5,1187.3,1776.6,1187.3,1766.6,1187.3z"/>
		<path id="XMLID_1191_" class="st8" d="M1832.8,1201.7c0,4.7-3.1,7-6.5,6.3c-3.8-0.8-7.8-6.7-7.1-10.6c0.7-3.9,5.9-5.7,9.1-2.6
			C1830.6,1197,1831.8,1200.2,1832.8,1201.7z"/>
	</g>
	<g id="XMLID_15_">
		<path id="XMLID_1261_" class="st8" d="M1153,1187.9c0-11.7,0-23.1,0-34.8c24,0,47.7,0,71.8,0c0,11.6,0,23.1,0,34.8
			C1200.9,1187.9,1177.2,1187.9,1153,1187.9z"/>
		<path id="XMLID_1246_" class="st8" d="M1152.8,1191.7c24.4,0,48.1,0,72.2,0c0,5.2,0.2,10.1-0.1,14.9c-0.2,2.7-2.6,3.1-4.9,3.1
			c-12.9,0-25.7,0-38.6,0c-7.7,0-15.4,0-23.1,0c-4.1,0-5.5-1.3-5.5-5.3C1152.7,1200.3,1152.8,1196.2,1152.8,1191.7z"/>
		<path id="XMLID_1239_" class="st8" d="M1225.2,1149.5c-24.3,0-48.1,0-72.3,0c0-5.2-0.3-10.1,0.1-14.9c0.3-3.3,3.3-3.7,6.1-3.7
			c16.4,0,32.7,0,49.1,0c3.8,0,7.7,0,11.5,0.1c4.2,0.1,5.4,1.3,5.5,5.4C1225.2,1140.6,1225.2,1144.8,1225.2,1149.5z M1185.6,1141.4
			c0-0.7-0.1-1.4-0.1-2.1c-1.5-0.7-3.1-2-4.6-1.9c-0.9,0-2.4,2.2-2.3,3.3c0,1.1,1.8,3,2.7,2.9
			C1182.7,1143.6,1184.1,1142.2,1185.6,1141.4z M1196.3,1145.3c1.6-2.2,3.4-3.6,3.2-4.6c-0.3-1.4-2-2.4-3.1-3.6
			c-1.2,1.2-3.1,2.2-3.3,3.5C1192.9,1141.7,1194.7,1143.1,1196.3,1145.3z M1215.7,1140.8c-2.3-1.7-3.5-3.4-4.8-3.4
			c-1.1,0-2.2,1.9-3.4,3c1.1,1.2,2.1,2.9,3.4,3.3C1211.9,1143.9,1213.4,1142.3,1215.7,1140.8z M1170.3,1138.2
			c-0.5-0.4-1-0.7-1.4-1.1c-1.6,0.8-3.5,1.2-4.7,2.4c-0.5,0.5,0.1,3.1,1,3.6c1,0.6,3.5,0.6,4-0.1
			C1170.1,1141.8,1170,1139.8,1170.3,1138.2z"/>
		<path id="XMLID_1222_" class="st8" d="M1247.7,1107.9c-0.8,1.3-1.5,2.9-2.6,4.2c-3.7,4.3-7.5,8.5-11.2,12.7
			c-1.9,2.1-4.1,3.4-6.5,1.1c-2.2-2.2-0.6-4.2,1.1-5.9c5.3-5.1,10.7-10.1,16.2-15.3c-0.4-0.2-1.1-0.7-1.9-1.1
			c-4.3-2.1-8.8-3.9-13-6.3c-2.5-1.4-4.8-3.3-6.6-5.4c-3.4-4.1-2.9-9.7,0.5-13.2c3.5-3.4,9.2-3.7,13,0.2c2.7,2.9,4.6,6.7,6.4,10.3
			c1.8,3.6,3.1,7.5,4.7,11.3c0.1,0.3,0.5,0.5,1,1.1c1.8-1.9,3.6-3.8,5.4-5.7c-0.3-0.1-0.7-0.3-1-0.4c0.8-3,0.8-6.5,2.6-8.8
			c3-4,7.1-7.3,10.7-10.9c0.5,0.5,1,0.9,1.5,1.4c-2.9,3.3-5.9,6.7-8.8,10c0.2,0.2,0.4,0.4,0.6,0.7c3.2-3.1,6.5-6.1,9.7-9.2
			c0.3,0.3,0.7,0.6,1,0.9c-1.3,4.6-6.4,6.4-8.7,11.1c5-1.9,6.3-7.8,11.2-8.8c0.3,0.3,0.6,0.7,0.9,1c-2.9,3.2-5.9,6.5-8.8,9.7
			c0.2,0.2,0.5,0.4,0.7,0.7c3.1-3,6.2-6,9.3-9c0.5,0.4,0.9,0.9,1.4,1.3c-2.7,3.1-5.5,6.2-8.2,9.4c-3,3.6-6.5,5.3-11.3,3.2
			c-2,2.1-4,4.2-5.8,6.1c5.3,4.9,10.3,9.5,15.3,14.2c0.4,0.3,0.7,0.7,1.1,1c1.9,1.9,4.2,4.1,1.5,6.7c-2.5,2.4-4.7,0.3-6.4-1.6
			C1257.7,1119.1,1253,1113.8,1247.7,1107.9z M1240.3,1096c-4.1-5.3-7-11.9-13.9-14.4C1228.6,1088.7,1234.8,1092,1240.3,1096z
			 M1230,1079.1c4,4.6,7.9,9.2,11.6,13.4C1239.5,1084,1235.5,1079.4,1230,1079.1z M1223.4,1085c1.5,8,7.8,10.2,14,13.3
			C1232.6,1093.7,1228.3,1089.6,1223.4,1085z"/>
		<path id="XMLID_1199_" class="st8" d="M1151.3,1110.3c1.7-0.7,2.8-1.7,3.9-1.7c12.7-0.1,25.5-0.1,38.2,0c0.6,0,1.1,0.3,1.6,0.4
			c1.7,6.3-5.3,13.3-11.1,13.4c-6.6,0-13.2,0.2-19.8-0.1c-4.6-0.2-8-2.9-10.8-6.9c-4.2-1.1-8.6-2.2-13-3.4
			c-4.4-1.2-8.8-2.4-13.9-3.7c0.4-1.6,0.8-2.9,1.3-4.7C1136.1,1106,1143.9,1108.2,1151.3,1110.3z"/>
		<path id="XMLID_1181_" class="st8" d="M1184.2,1128.9c-7.5,0-14.8,0-22.5,0c-0.1-1.2-0.2-2.2-0.3-3.3c1.1-0.4,1.8-0.9,2.6-0.9
			c5.9-0.1,11.8-0.2,17.7-0.2C1184.1,1124.5,1185.3,1125.7,1184.2,1128.9z"/>
		<path id="XMLID_1172_" class="st8" d="M1193.4,1126.9c1.7-2.5,17.1-3.6,23.2-1.4c0,0.8,0.1,1.8,0.2,2.7
			C1210.2,1130.5,1195,1129.6,1193.4,1126.9z"/>
	</g>
	<g id="XMLID">
		<path id="XMLID_1249_" class="st8" d="M599.5,1191.6c1.3,6.3,2.5,12,3.8,18.1c-16.6,0-32.6,0-49.1,0c0-3.2,0-6,0-8.9
			c0-2.3-0.2-4.7,0.1-7c0.8-6.9-0.4-12.9-6.4-17.4c-1.5-1.1-2.2-3.4-3.7-5.7c8.6,0,16.2,0,24.1,0c0.8,7.7,4.3,13.8,10.6,18
			C585,1192.7,591.9,1193.2,599.5,1191.6z"/>
		<path id="XMLID_1238_" class="st8" d="M544.8,1128.4c7.8,0,15.3,0,23.2,0c0,13.1,0,25.9,0,39.1c-7.7,0-15.3,0-23.2,0
			C544.8,1154.5,544.8,1141.7,544.8,1128.4z"/>
		<path id="XMLID_1234_" class="st8" d="M656.7,1159.3c1,16.6,2,33.3,3.1,50.3c-6.9,0-13.4,0-20.5,0c0.9-16.9,1.9-33.6,2.8-50.3
			C647,1159.3,651.4,1159.3,656.7,1159.3z"/>
		<path id="XMLID_1210_" class="st8" d="M623.8,1136.8c17,0,34,0,50.9,0c1.1,9.3-11.1,19.6-23.4,20.2
			C637,1157.6,623.6,1148,623.8,1136.8z"/>
		<path id="XMLID_1206_" class="st8" d="M571,1170.6c14.4,0,28.6,0,43.1,0c-0.2,6.6-3.1,11.3-8.1,14.8c-7.9,5.6-16.4,6.5-24.9,1.5
			C575.1,1183.4,571.5,1178.1,571,1170.6z"/>
		<path id="XMLID_1198_" class="st8" d="M590.9,1139.8c7.1,0,13.6,0,20.9,0c0-12.9,0-25.3,0-38.4c-4.2,0-9.1,0-14,0
			c-11.7-0.1-10.6-0.4-10.5,10.5c0,8.1,0,16.1,0,24.5c-0.7,0.3-1.5,0.7-3,1.3c0-10.4,0-20.1,0-29.8c-2.7-0.6-5-1.1-7.3-1.6
			c0-0.6,0-1.3,0.1-1.9c2.2-0.4,4.4-0.8,7.2-1.3c1.6-4.8,5.9-4.9,10.5-4.8c5.3,0.1,10.5,0,15.8,0.1c1.8,0,3.6,0.7,5.4,1
			c0,1.6,0,2.6,0,3.7c2.2,0.3,4.5,0.6,7.2,0.9c-1.2,4.8-5.1,2.1-8.1,4.2c0,3.6,0,7.9,0,12.3c0,5,0.2,10.1,0.1,15.1
			c-0.1,5.6-1.7,7.1-7.2,7.2c-5,0.1-10,0.4-15.1,0.5c-1.5,0-3-0.1-4.4-0.2c-1-3.8,7.9-24.7,12-27.5c-0.1,1.7,0.2,3-0.3,4
			c-1.9,4.4-4.1,8.7-6.1,13C592.9,1135.1,592,1137.4,590.9,1139.8z"/>
		<path id="XMLID_1185_" class="st8" d="M613.5,1163.5c0.4,1.4,0.7,2.4,1.2,4c-14.7,0-28.9,0-43.1,0c-1.1-3-0.4-4,2.9-4
			c7.1,0,14.3,0,21.4,0C601.6,1163.5,607.3,1163.5,613.5,1163.5z"/>
		<path id="XMLID_1133_" class="st8" d="M646.7,1134.3c0-4.4-0.2-8.3,0.1-12.2c0.1-1,1.7-2.3,2.8-2.6c0.6-0.1,2.3,1.6,2.4,2.5
			c0.3,3.9,0.1,7.7,0.1,12C650.4,1134.1,648.9,1134.2,646.7,1134.3z"/>
		<path id="XMLID_1071_" class="st8" d="M655.4,1134.1c0-1.5,0-2.9,0-4.4c2.2,0,4.1,0,6.2,0c0,1.6,0,2.8,0,4.4
			C659.5,1134.1,657.6,1134.1,655.4,1134.1z"/>
		<path id="XMLID_1070_" class="st8" d="M637.1,1134c0-1.4,0-2.5,0-4.1c2.1,0,4.1,0,6.3,0c0,1.4,0,2.6,0,4.1
			C641.5,1134,639.5,1134,637.1,1134z"/>
		<path id="XMLID_1137_" class="st8" d="M597.6,1130.5c7-7,7.8-15.3,8.8-23.5c0.1-0.8,0.9-1.5,1.9-2c0.9,7.5-0.2,14.5-3.6,21.1
			C603.6,1128.4,602.1,1130.8,597.6,1130.5z"/>
	</g>
	<g id="XMLID_36_">
		<path id="XMLID_1263_" class="st8" d="M647.1,903.1c-4.6,10.4-5.2,22.5-16.8,27.6c-1.1,3.8,5.5,5.4,1.9,9.6
			c-5.9,1.7-5.5-4.8-9.6-7.1c-14.1,0-29.3,0-45.1,0c-1.5,2.1-3.3,4.7-5.1,7.2c-1.4,0-2.6,0-3.6,0c-3.6-4.2,2.5-5.6,2.1-8.7
			c-10.8-7.6-11.6-11.5-17.1-28.5C584.8,903.1,615.7,903.1,647.1,903.1z"/>
		<path id="XMLID_1257_" class="st8" d="M699.5,888.7c0,1.3,0,2.2,0,3.4c-1,0.4-1.9,0.9-3.2,1.4c0,12.7,0,25.5,0,38.6
			c-1.9,0.1-3.5,0.2-5.5,0.3c-0.3-2.5-0.5-4.8-0.8-7.4c-7.2,0-14.3,0-22,0c0-11,0-21.5,0-32.1c-0.4,0-0.8,0-1.1,0
			c0,10.5,0,20.9,0,31.8c-8.7,0-16.8,0-24.9,0c2.4-6.7,4.7-13.2,7.2-19.6c0.4-0.9,1.2-1.8,2.1-2.4c2.1-1.4,3.4-3.5,2.2-5.6
			c-0.9-1.6-3.1-3.4-4.9-3.6c-4.2-0.5-8.6-0.2-12.9-0.2c-1.7,0-3.5-0.2-5.4-0.4c0-1.5,0-2.7,0-4.2
			C653.2,888.7,676.2,888.7,699.5,888.7z M662.3,904.2c-0.3,0-0.6,0-0.9,0c0,2.1,0,4.3,0,6.4c0.3,0,0.6,0,0.9,0
			C662.3,908.5,662.3,906.3,662.3,904.2z M672.6,910.8c0.5,0,0.9,0,1.4-0.1c-0.1-2-0.2-4.1-0.3-6.1c-0.4,0-0.7,0-1.1,0
			C672.6,906.7,672.6,908.8,672.6,910.8z"/>
		<path id="XMLID_1245_" class="st8" d="M549.4,899.9c0.7-6.3,5.9-3.3,8.8-5c0.1-1.2,0.2-2.6,0.3-4c0-14,0-28,0-42
			c0-5.1,1.3-9.5,5-13.2c8.3-8.3,22.2-4.9,25.5,6.4c0.3,1,0.6,2.1,0.9,3.3c5.9,0.5,7.5,5.7,10.6,9.2c-2.1,2.1-20.4,2.8-25.2,0.9
			c2.3-4.5,4.5-8.7,10.2-10c-0.2-4-1.9-6.9-5.1-8.9c-3.8-2.4-7.7-2.5-11.6-0.4c-3.6,2-6.1,5-6.2,9.2c-0.2,16.1-0.1,32.2-0.1,48.3
			c0,0.4,0.2,0.8,0.4,1.7c1.6,0.1,3.2,0.3,4.8,0.3c26,0,52.1,0,78.1,0c4.4,0,5.3,0.7,4.8,4.3C617.2,899.9,583.8,899.9,549.4,899.9z"
			/>
		<path id="XMLID_1235_" class="st8" d="M635.3,867.3c0-14.4,0-28.6,0-43.1c19.7,0,39,0,58.8,0c0,14.3,0,28.5,0,43.1
			C674.5,867.3,655,867.3,635.3,867.3z M640.1,828.8c0,11.5,0,22.6,0,33.7c16.6,0,32.9,0,49.3,0c0-11.4,0-22.5,0-33.7
			C672.8,828.8,656.5,828.8,640.1,828.8z"/>
		<path id="XMLID_1183_" class="st8" d="M694,881.8c-1,1.8-1.6,3-2.4,4.2c-7.2,0-14.2,0-21.6,0c-0.7-1.1-1.4-2.4-2.5-4.2
			C676.6,881.8,684.9,881.8,694,881.8z"/>
		<path id="XMLID_1182_" class="st8" d="M638.1,886.1c-0.7-1.2-1.4-2.5-2.4-4.3c8.9,0,17.1,0,26.1,0c-0.9,1.7-1.6,3-2.3,4.3
			C652.2,886.1,645.3,886.1,638.1,886.1z"/>
		<path id="XMLID_1085_" class="st8" d="M588.2,859.7c2.1,3.2,1.8,10.6-0.3,12.4C585.6,869.8,585.7,861.8,588.2,859.7z"/>
		<path id="XMLID_1075_" class="st8" d="M581,871.1c-2.4-1.3-1.7-8,1.1-11.4C584,861.1,583.5,866.4,581,871.1z"/>
		<path id="XMLID_1073_" class="st8" d="M593.6,859.5c2.9,3.4,3.7,10.2,1.5,11.4C592.8,867.9,591.9,861.6,593.6,859.5z"/>
		<path id="XMLID_1063_" class="st8" d="M647.5,880c0-2.8,0-5,0-7.2c3,0.2,3.4,1.4,2.5,6.7C649.4,879.7,648.6,879.9,647.5,880z"/>
		<path id="XMLID_1062_" class="st8" d="M682.1,879.6c-0.8,0.1-1.5,0.2-2.6,0.3c0-2.4,0-4.6,0-6.8
			C682.6,872.8,682.9,873.6,682.1,879.6z"/>
	</g>
	<g id="XMLID">
		<path id="XMLID_165_" class="st8" d="M1755.7,1401.8c-2.4-0.3-4.9-0.6-7.3-0.9c-2.8-0.3-5.6-0.5-8.3-0.9c-0.8-0.1-1.9-0.7-2.1-1.3
			c-0.2-0.6,0.3-1.7,0.9-2.3c7.9-7.1,15.8-14.1,23.8-21c0.8-0.7,2.1-1.1,3.2-1.3c3.6-0.8,7.3-1.3,10.9-2.2c1.8-0.5,3.7-1.3,5-2.5
			c12.6-11.2,27.1-18.5,43.5-22c2.3-0.5,4.6-0.9,6.9-1.1c3.4-0.2,4.8,1.3,4.2,4.6c-3.5,18-10.3,34.4-22.7,48.2
			c-2.2,2.5-3.4,5.2-4.1,8.3c-0.6,2.6-1,5.2-1.9,7.6c-0.8,2.2-1.8,4.5-3.4,6.3c-6,7-12.3,13.8-18.5,20.6c-0.7,0.8-1.9,1.2-2.8,1.7
			c-0.6-1-1.5-2-1.6-3.1c-0.4-3.7-0.4-7.4-0.7-11.1c-0.1-0.7-0.5-1.4-0.7-2.1c-0.6,0.3-1.4,0.5-1.8,1c-1.5,1.8-2.7,1.1-3.8-0.3
			c-1.7-2.2-3-1.8-4.7,0.1c-3.9,4.5-3.1,4.7-7.6,0.3c-3.6-3.5-7.3-7.1-11-10.5c-1.3-1.2-1.4-2.2,0-3.3c0.7-0.6,1.3-1.3,2-1.9
			c1.8-1.6,3.2-3,0.4-5.1c-0.4-0.3-0.1-2.1,0.4-2.7c0.7-0.8,1.9-1,2.9-1.5C1756.3,1402.9,1756,1402.4,1755.7,1401.8z M1826.2,1372.4
			c-0.5-0.4-0.9-1-1.5-1.2c-7.2-2-11.4-6.9-13.8-13.7c-0.5-1.4-1.4-1.7-2.8-1c-3.3,1.8-6.9,3.3-10.1,5.2
			c-14.8,8.8-25.7,21.2-33.9,36.2c-0.8,1.5-0.5,2.5,0.6,3.5c5.2,5.3,10.5,10.5,15.6,15.8c1.3,1.4,2.7,1.6,4.3,0.6
			c18.3-10.3,32.1-24.7,40.8-44C1825.8,1373.5,1826,1373.1,1826.2,1372.4z M1744.5,1396.2c0.1,0.3,0.2,0.6,0.3,0.8
			c4.5,0.4,9.1,0.9,13.6,1.1c0.9,0,2.1-1.1,2.8-2c4.1-5.9,8.1-11.9,12.2-17.8c0.4-0.6,0.7-1.2,1-1.7c-0.1-0.2-0.3-0.4-0.4-0.6
			c-3.7,1.4-8.1,0.8-11.4,3.8c-4.1,3.8-8.4,7.4-12.5,11.2C1748.2,1392.6,1746.4,1394.4,1744.5,1396.2z M1805,1409.1
			c-0.2-0.1-0.4-0.3-0.6-0.4c-0.7,0.5-1.4,1-2.1,1.5c-4.9,3.4-9.6,7.2-14.7,10.1c-3.2,1.8-4.4,3.7-3.7,7.3c0.6,3,0.6,6.2,0.9,9.6
			c0.8-0.5,1.3-0.7,1.7-1.1c5.3-5.9,10.8-11.7,15.9-17.7C1804.5,1415.7,1804.6,1412.3,1805,1409.1z M1832.4,1351.7
			c-0.7-0.5-1.5-1.4-2.1-1.3c-4.8,0.9-9.5,2-14.3,3.2c-0.7,0.2-1.7,1.5-1.7,2.3c0.1,5,6.7,11.6,11.6,11.7c0.8,0,2.2-0.8,2.4-1.5
			C1829.9,1361.5,1831,1356.8,1832.4,1351.7z M1760.9,1402.9c-1,1-2.2,1.8-2.9,2.8c-0.3,0.4,0.2,1.7,0.7,2.2
			c5.2,5.2,10.5,10.2,15.7,15.3c1.2,1.2,2.2,1.3,3.4,0c1.2-1.3,1.4-2.3,0.1-3.7c-5-5-10-10.1-15-15.2
			C1762.4,1404,1761.8,1403.6,1760.9,1402.9z M1769,1423.5c-0.5-0.8-0.8-1.4-1.3-1.9c-2.6-2.6-5.3-5.1-8-7.8
			c-1.5-1.5-2.5-0.6-3.6,0.5c-1.2,1.2-1.4,2.2-0.1,3.4c2.6,2.5,5.1,5.1,7.8,7.6c0.6,0.6,1.9,1.2,2.5,0.9
			C1767.3,1425.7,1768,1424.5,1769,1423.5z"/>
		<path id="XMLID_164_" class="st8" d="M1754.6,1429.1c-0.6,0.8-1,1.5-1.5,2c-9.9,9.7-19.8,19.3-29.7,29c-0.1,0.1-0.3,0.3-0.4,0.4
			c-1,0.1-2,0.2-3,0.3c0.2-0.9,0.1-2.1,0.6-2.7c3.6-3.7,7.3-7.3,11-10.9c6.4-6.3,12.8-12.5,19.2-18.7c0.6-0.6,1.7-0.8,2.6-0.9
			C1753.7,1427.6,1754.1,1428.5,1754.6,1429.1z"/>
		<path id="XMLID_163_" class="st8" d="M1729.8,1442.7c-0.6-0.5-1.3-0.8-1.5-1.3c-0.2-0.5-0.1-1.3,0.2-1.7c0.5-0.8,1.3-1.5,2-2.2
			c4.9-4.9,9.9-9.8,14.8-14.7c0.9-0.9,2-2.3,3.4-0.9c1.4,1.4-0.1,2.4-1,3.4c-5.3,5.3-10.6,10.6-16,15.8
			C1731.3,1441.7,1730.6,1442.1,1729.8,1442.7z"/>
		<path id="XMLID_162_" class="st8" d="M1742,1452.6c-0.6-0.5-1.3-0.7-1.5-1.2c-0.2-0.5,0-1.3,0.3-1.7c1-1.2,2.2-2.4,3.4-3.5
			c4.2-4.1,8.3-8.3,12.6-12.3c0.7-0.7,2.1-0.5,3.2-0.8c-0.2,1-0.2,2.3-0.8,2.9c-5,5.1-10.1,10.1-15.2,15.1
			C1743.4,1451.6,1742.7,1452,1742,1452.6z"/>
		<path id="XMLID_159_" class="st8" d="M1799.1,1370.7c5.5,0.1,10.5,5.2,10.5,10.7c0,5.6-5.3,10.8-10.9,10.7
			c-5.6-0.1-10.7-5.5-10.6-11C1788.3,1375.8,1793.7,1370.7,1799.1,1370.7z M1792.2,1381.2c-0.5,4.9,3.7,7.3,6.9,7.3
			c3.6,0,6.8-3.4,6.9-7c0-4-2.9-7-7-7C1794.9,1374.5,1792.2,1377.1,1792.2,1381.2z"/>
	</g>
	<g id="XMLID_134_">
		<path id="XMLID_193_" class="st8" d="M243.1,869.9c0-17.1,0-34.2,0-51.2c-0.2,0-0.4,0-0.6,0c-3.9,0-7.8,0-11.8,0
			c-1.9,0-3.3-0.9-4.1-2.6c-0.3-0.6-0.4-1.4-0.4-2.1c0-4.1,0-8.2,0-12.3c0-0.3,0-0.6,0-0.9c0-0.3-0.1-0.4-0.3-0.4c0,0-0.1,0-0.1,0
			c-0.8-0.1-1.3,0.2-1.9,0.7c-1.8,1.9-3.6,3.7-5.4,5.5c-0.5,0.5-1.1,0.8-1.8,0.7c-2.4,0-4.8,0-7.2,0c-1.3,0-1.8-0.9-1.2-2.1
			c1.1-1.9,2.2-3.9,3.3-5.8c0.2-0.3,0.2-0.5,0-0.8c-1.1-1.9-2.2-3.8-3.3-5.7c-0.1-0.1-0.1-0.2-0.2-0.4c-0.4-0.8,0.1-1.6,0.9-1.8
			c0.4-0.1,0.8-0.1,1.2-0.1c2.2,0,4.3,0,6.5,0c0.7,0,1.3,0.2,1.8,0.8c2,2,4,4,6,6c0.2,0.2,0.4,0.3,0.7,0.3c2.3,0,4.6,0,6.9,0
			c0.3,0,0.4-0.1,0.5-0.4c0.1-0.4,0.4-0.6,0.8-0.6c1.7,0,3.4,0,5.1,0c1.6,0.1,2.4,1.2,2.1,2.6c-0.1,0.6-0.5,1.1-1.1,1.3
			c-0.5,0.2-1,0.3-1.5,0.3c-1.4,0-2.9,0-4.3,0c-0.5,0-0.8-0.1-1.1-0.6c-0.1-0.1-0.2-0.2-0.3-0.2c-1.2,0-2.4,0-3.6,0
			c0,0.2,0,0.3,0,0.5c0,4.4,0,8.7,0,13.1c0,1.5,0.7,2.2,2.2,2.2c3.9,0,7.8,0,11.6,0c0.4,0,0.5-0.1,0.5-0.5c0-0.5,0-1,0.1-1.4
			c0.3-1.7,1.9-2.8,3.6-2.8c1.7,0.1,3.1,1.3,3.3,3c0.1,0.5,0.1,1.1,0.1,1.7c0.1,0,0.3,0,0.4,0c3.4,0,6.7,0,10.1,0
			c0.4,0,0.5-0.1,0.5-0.5c0-1.4,0-2.7,0-4.1c0-0.9,0.5-1.4,1.3-1.4c0.3,0,0.4-0.1,0.4-0.5c0-1,0-2.1,0-3.1c0-2,0.8-3.5,2.7-4.3
			c0.1,0,0.2-0.2,0.2-0.3c0-1.9,0-3.7,0-5.7c-0.2,0-0.3,0-0.4,0c-1.3,0-2.6,0-3.8,0c-0.3,0-0.4,0.1-0.5,0.4c-0.6,2-1.8,3.4-3.8,4.1
			c-3.7,1.4-7.9-1.4-8-5.3c-0.1-2.8,1.3-5.1,3.7-6.2c3.3-1.4,7.2,0.5,8.1,4c0.1,0.4,0.3,0.5,0.7,0.5c1.1,0,2.1,0,3.2,0
			c0.3,0,0.5-0.1,0.6-0.3c0.7-1.1,2.2-1.1,3,0c0.2,0.3,0.4,0.4,0.7,0.4c1.1,0,2.2,0,3.3,0c0.3,0,0.4-0.1,0.5-0.4
			c0.7-2.5,2.4-4.1,5-4.5c3.4-0.6,6.7,2.1,7,5.6c0.2,3.4-2,5.7-4.2,6.4c-3.2,1-6.6-0.7-7.7-4c-0.1-0.4-0.3-0.5-0.7-0.5
			c-1.2,0-2.4,0-3.6,0c-0.3,0-0.5,0.1-0.5,0.4c0,1.7,0,3.4,0,5.1c0,0.2,0,0.4,0.2,0.5c1.8,0.8,2.6,2.3,2.7,4.3c0,1.1,0,2.1,0,3.2
			c0,0.3,0.1,0.4,0.4,0.4c0.9,0.1,1.4,0.5,1.4,1.5c0,1.1,0,2.1-0.1,3.1c-0.2,1.9-2,3.6-4,3.8c-0.4,0-0.8,0-1.2,0c-5.7,0-11.4,0-17,0
			c-0.2,0-0.3,0-0.5,0c0,10.2,0,20.3,0,30.5c0.1,0,0.3,0,0.4,0c3.1,0,6.3,0,9.4,0c0.4,0,0.5-0.1,0.5-0.5c0-0.4,0-0.9,0-1.4
			c-0.4,0-0.8,0-1.2,0c-0.2,0-0.5,0-0.7,0c-1.1,0-1.6-1-1.1-1.9c0.3-0.5,0.6-1,1-1.5c0.3-0.5,0.7-1,1.1-1.6c-0.3,0-0.5,0-0.7,0
			c-1.2,0-1.8-1-1.2-2.1c0.5-0.9,1.1-1.7,1.7-2.5c0.1-0.1,0.2-0.2,0.3-0.4c-0.4,0-0.6,0-0.9,0c-1.1,0-1.7-1-1.1-2
			c0.5-0.9,1.2-1.8,1.7-2.6c0.1-0.1,0.2-0.2,0.3-0.4c-0.3,0-0.6,0-0.9,0c-0.9,0-1.4-0.5-1.4-1.4c0.1-0.8,0.2-1.6,0.4-2.3
			c1.1-3.6,4.1-5.9,7.8-6c1.8,0,3.6-0.1,5.4,0c3.8,0.3,6.6,2.8,7.5,6.5c0.1,0.6,0.2,1.2,0.3,1.7c0.1,0.8-0.4,1.4-1.3,1.4
			c-0.3,0-0.6,0-0.9,0c0.5,0.7,0.9,1.4,1.4,2c0.2,0.3,0.5,0.7,0.7,1c0.5,1,0,2-1.2,2c-0.2,0-0.5,0-0.8,0c0.1,0.2,0.2,0.3,0.3,0.4
			c0.5,0.7,1,1.4,1.5,2.2c0.1,0.2,0.3,0.4,0.3,0.6c0.3,0.9-0.2,1.7-1.1,1.8c-0.3,0-0.6,0-1,0c0.1,0.2,0.2,0.3,0.3,0.4
			c0.5,0.8,1.1,1.6,1.6,2.4c0.2,0.3,0.3,0.7,0.3,1.1c0,0.6-0.5,1.1-1.2,1.1c-0.6,0-1.2,0-1.9,0c0,0.5,0,0.9,0,1.3c0,0.7,0,1.4,0,2.2
			c0,1.6-1.1,2.8-2.7,3c-0.3,0-0.7,0.1-1,0.1c-2.7,0-5.4,0-8.1,0c-1.4,0-2.5-0.5-3.1-1.9c-0.1-0.1-0.3-0.2-0.5-0.2
			c-2.8,0-5.5,0-8.3,0c-0.4,0-0.9,0-1.3,0c-0.3,0-0.4,0.1-0.4,0.4c0,2.7,0,5.3,0,8c0,3.1,0,6.3,0,9.4c0,0.1,0,0.3,0,0.4
			c0.2,0,0.3,0,0.5,0c1.4,0,2.8-0.1,4.1,0c1.6,0.1,2.7,1,3.3,2.5c0.2,0.5,0.2,1,0.2,1.5c0,0.9,0,1.9,0,2.9c0.3,0,0.6,0,0.8,0
			c2,0,4,0,6,0c0.7,0,1.2,0.4,1.3,1c0.2,0.9-0.4,1.6-1.3,1.6c-3.5,0-7.1,0-10.6,0c-8.8,0-17.5,0-26.3,0c-0.6,0-1.1-0.3-1.3-0.8
			c-0.2-0.5-0.1-1.1,0.4-1.4c0.3-0.2,0.7-0.3,1-0.3c2.1,0,4.2,0,6.3,0c0.4,0,0.5-0.1,0.5-0.5c0-0.9,0-1.8,0-2.8c0-2,1.5-3.6,3.5-3.7
			c1.3-0.1,2.7,0,4,0C242.7,869.9,242.9,869.9,243.1,869.9z M247.8,842.3C247.8,842.3,247.8,842.3,247.8,842.3c0-7,0-14.1,0-21.1
			c0-2,0-4,0-6.1c0-0.7-0.3-1.2-0.9-1.2c-0.8-0.1-1.3,0.4-1.3,1.2c0,4,0,8,0,12c0,14,0,28,0,42c0,0.2,0,0.4,0,0.6
			c0,0.3,0.1,0.4,0.4,0.3c0.4,0,0.8,0,1.3,0c0.6,0,0.6,0,0.6-0.6C247.8,860.3,247.8,851.3,247.8,842.3z M246.7,876.9
			C246.7,876.9,246.7,876.9,246.7,876.9c2.9,0,5.8,0,8.6,0c0.4,0,0.5-0.1,0.5-0.5c0-0.9,0-1.8,0-2.7c0-0.9-0.5-1.4-1.4-1.4
			c-5.2,0-10.3,0-15.5,0c-0.9,0-1.3,0.5-1.3,1.3c0,0.9,0,1.8,0,2.7c0,0.4,0.1,0.5,0.5,0.5C240.9,876.9,243.8,876.9,246.7,876.9z
			 M276,829.8c0-0.1,0-0.2-0.1-0.3c-0.6-2.5-2.8-4.3-5.3-4.3c-1.7,0-3.4,0-5.1,0c-2.7,0-4.9,1.8-5.5,4.4c0,0.1,0,0.2,0,0.2
			C265.3,829.8,270.6,829.8,276,829.8z M273.2,847.3c-3.5,0-6.9,0-10.3,0c0,1.1,0,2.1,0,3.2c0,0.6,0.3,0.8,0.9,0.8c1,0,2.1,0,3.1,0
			c1.8,0,3.7,0,5.5,0c0.5,0,0.8-0.2,0.8-0.6C273.2,849.6,273.2,848.5,273.2,847.3z M279,798.6c1.9,0,3.5-1.6,3.5-3.5
			c0-2-1.5-3.6-3.5-3.6c-1.9,0-3.6,1.6-3.6,3.6C275.5,797,277.1,798.6,279,798.6z M251.9,795.1c0,2,1.5,3.5,3.5,3.5
			c1.9,0,3.4-1.6,3.4-3.5c0-2-1.5-3.5-3.5-3.5C253.4,791.5,251.9,793.1,251.9,795.1z M275.7,844.8c-0.5-0.8-1-1.6-1.5-2.4
			c-0.1-0.1-0.3-0.1-0.4-0.1c-3.9,0-7.8,0-11.7,0c-0.1,0-0.3,0-0.4,0.1c-0.5,0.8-1,1.5-1.5,2.4C265.4,844.8,270.5,844.8,275.7,844.8
			z M260.3,834.8c5.2,0,10.2,0,15.3,0c0-0.1,0-0.1,0-0.1c-0.4-0.7-0.9-1.5-1.3-2.2c-0.1-0.1-0.3-0.2-0.4-0.2c-0.9,0-1.8,0-2.8,0
			c-2.9,0-5.8,0-8.7,0c-0.2,0-0.5,0.1-0.6,0.2C261.2,833.2,260.8,834,260.3,834.8z M275.7,839.8c-0.5-0.8-1-1.6-1.5-2.3
			c-0.1-0.1-0.3-0.2-0.4-0.2c-3.9,0-7.8,0-11.6,0c-0.1,0-0.4,0-0.4,0.1c-0.5,0.8-1,1.5-1.5,2.4C265.4,839.8,270.5,839.8,275.7,839.8
			z M211.5,793.4c0,0.1,0.1,0.2,0.1,0.2c0.8,1.4,1.6,2.7,2.4,4.1c0.1,0.1,0.3,0.2,0.5,0.2c2.1,0,4.3,0,6.4,0c0.1,0,0.3,0,0.4,0
			c-0.1-0.1-0.1-0.1-0.1-0.2c-1.4-1.4-2.7-2.8-4.1-4.1c-0.1-0.1-0.4-0.2-0.6-0.2c-1.5,0-3,0-4.5,0
			C211.8,793.4,211.7,793.4,211.5,793.4z M211.6,804.8c0.1,0,0.2,0,0.2,0c1.6,0,3.2,0,4.7,0c0.2,0,0.4-0.1,0.6-0.3
			c1.3-1.3,2.5-2.5,3.8-3.8c0.1-0.1,0.1-0.2,0.3-0.3c-0.2,0-0.4,0-0.5,0c-1.7,0-3.5,0.1-5.2,0c-1-0.1-1.7,0.2-2.1,1.2
			C212.9,802.7,212.2,803.7,211.6,804.8z M263.6,816.2c0.2,0,0.3,0,0.5,0c1.3,0,2.6,0,3.9,0c0.2,0,0.4,0,0.6,0c1.2-0.1,2-0.9,2-2.1
			c0-0.3,0-0.6,0-0.9c0-0.4-0.1-0.5-0.5-0.5c-2,0-4.1,0-6.1,0c-0.1,0-0.3,0-0.5,0C263.6,813.9,263.6,815,263.6,816.2z M265.4,810.2
			c1.1,0,2.1,0,3.1,0c0.2,0,0.3-0.1,0.3-0.3c0-1.2,0-2.4,0-3.6c0-1-0.8-1.8-1.7-1.8c-0.9,0-1.7,0.8-1.7,1.9c0,1,0,2,0,3.1
			C265.4,809.7,265.4,809.9,265.4,810.2z"/>
	</g>
</g>
<g id="Ebene_7">
	<rect id="heizungboiler" x="640.8" y="1379.7" class="st5" width="68.4" height="112.7"/>
	<g id="XMLID_30_">
		<path id="XMLID_84_" class="st9" d="M644.9,1375.8h59.9c4.1,0,7.5,3.4,7.5,7.5v104.8c0,4.1-3.4,7.5-7.5,7.5h-59.9
			c-4.1,0-7.5-3.4-7.5-7.5v-104.8C637.4,1379.2,640.8,1375.8,644.9,1375.8z"/>
		<path id="XMLID_81_" class="st9" d="M663.6,1360.8h22.5 M674.9,1360.8v15"/>
		<path id="XMLID_78_" class="st9" d="M615,1398.3h22.5"/>
		<path id="XMLID_76_" class="st9" d="M615,1473.1h22.5"/>
		<path id="XMLID_41_" class="st9" d="M712.3,1435.7h22.5"/>
	</g>
	<polygon id="feld2" class="st10" points="0,603.5 346.8,603.5 1080,353.7 1080,0 0,0 	"/>
	<polygon id="feld1" class="st10" points="2400,603.5 2053.2,603.5 1320,353.7 1320,0 2400,0 	"/>
	<rect id="stromnutzung" x="12" y="12" class="st5" width="840" height="523.8"/>
	<rect id="stromnutzunginfo" x="864" y="12" class="st5" width="204" height="343.3"/>
	<rect id="stromverteilunginfo" x="1332" y="12" class="st5" width="204" height="343.3"/>
	<rect id="stromverteilung2" x="1926" y="13.4" class="st5" width="454.8" height="522.7"/>
	<rect id="stromverteilung" x="1548" y="13.6" class="st5" width="420" height="523.8"/>
	<rect id="pvgarage" x="175.7" y="1131.7" class="st7" width="182.6" height="6"/>
	
		<rect id="pvost" x="1199.9" y="525.5" transform="matrix(0.9557 0.2943 -0.2943 0.9557 217.8642 -390.5462)" class="st7" width="412.9" height="6"/>
	
		<rect id="pvwest" x="1605.9" y="650.3" transform="matrix(0.9557 0.2943 -0.2943 0.9557 272.5891 -504.5092)" class="st7" width="412.9" height="6"/>
	<rect id="eingang" x="362" y="1071" class="st5" width="89.6" height="119.8"/>
	<rect id="stromog" x="1945" y="833" class="st5" width="180" height="80"/>
	<rect id="stromeg" x="1945" y="1076.5" class="st5" width="180" height="80"/>
	<rect id="stromug" x="1945" y="1358.1" class="st5" width="180" height="80"/>
	<rect id="stromgarage" x="177" y="1274.8" class="st5" width="180" height="80"/>
	<rect id="wetterstation" y="702" class="st5" width="335.6" height="300"/>
	<rect id="garage" x="206.4" y="1164.9" class="st5" width="120.6" height="87.1"/>
	<rect id="mull" x="39" y="1138.8" class="st5" width="71.8" height="113.2"/>
	<rect id="markisewest" x="1949.3" y="1002.5" class="st5" width="95" height="41.2"/>
	<rect id="markiseost" x="2046.7" y="1002.5" class="st5" width="95" height="41.2"/>
</g>
<g id="Ebene_8">
	<path id="markise" class="st5" d="M43,4.1c-10.2,0-20.5,0-30.7,0c-1.4,0-1.5,0-1.4-1.4c0.1-3-0.5-2.7,2.8-2.7c19.9,0,39.7,0,59.6,0
		c2,0,2,0,2,2c0,2.2,0.2,2-2.1,2C63.2,4.1,53.1,4.1,43,4.1z M42.4,13.3c0-2.2,0-4.4,0-6.6c0-0.9-0.3-1.2-1.2-1.2c-2.5,0-5,0.1-7.5,0
		c-1,0-1.3,0.4-1.5,1.3c-0.9,4.4-1.7,8.8-2.7,13.2c-0.2,0.9,0,1.2,0.9,1.2c3.6,0,7.2,0,10.8,0c0.8,0,1.1-0.3,1.1-1.1
		C42.4,17.7,42.4,15.5,42.4,13.3C42.4,13.3,42.4,13.3,42.4,13.3z M50.2,21.1c1.7,0,3.5,0,5.2,0c1,0,1.2-0.3,1-1.3
		c-0.9-4.5-1.7-9-2.6-13.4c-0.1-0.7-0.5-0.9-1.2-0.9c-2.6,0-5.3,0-7.9,0c-0.8,0-1,0.3-1,1.1c0,4.4,0,8.9,0,13.3
		c0,0.9,0.2,1.3,1.2,1.3C46.7,21,48.5,21.1,50.2,21.1C50.2,21.1,50.2,21.1,50.2,21.1z M64.6,21.1c1.8,0,3.6,0,5.5,0
		c0.8,0,1.1-0.2,0.8-1.1c-1.9-4.6-3.8-9.2-5.7-13.7c-0.2-0.4-0.7-0.8-1.1-0.8c-2.6-0.1-5.2,0-7.8,0c-0.8,0-1,0.3-0.8,1
		c0.9,4.5,1.8,9.1,2.7,13.6c0.1,0.7,0.4,0.9,1.1,0.9C60.9,21.1,62.7,21.1,64.6,21.1C64.6,21.1,64.6,21.1,64.6,21.1z M15.4,21.1
		c3.9,0,7.8,0,11.8,0c0.3,0,0.8-0.5,0.9-0.8c1-4.5,1.9-9,2.8-13.5c0.2-1,0-1.3-1-1.3c-2.5,0-5,0-7.5,0c-0.7,0-1.1,0.3-1.3,0.9
		c-0.9,2.3-1.9,4.5-2.8,6.8c-1.1,2.5-2.1,5-3.2,7.6C15.3,21,15.3,21.1,15.4,21.1z M66.7,6.2c1.9,4.8,3.9,9.5,5.8,14.2
		c0.1,0.3,0.7,0.6,1.1,0.6c3.6,0,7.3,0,10.9,0c0.3,0,0.6-0.1,0.9-0.2c-0.1-0.3-0.2-0.5-0.3-0.6c-3-4.7-6.1-9.4-9.1-14.1
		c-0.2-0.4-0.8-0.7-1.3-0.7c-2.3-0.1-4.6,0-7,0c-0.4,0-0.8,0.1-1.3,0.1C66.6,5.9,66.6,6.1,66.7,6.2z M19.1,5.5c-2.6,0-5.2,0-7.8,0
		c-0.4,0-0.9,0.3-1.1,0.7c-3.1,4.7-6.1,9.4-9.1,14.1C1,20.5,1,20.7,0.9,20.9c0.2,0.1,0.4,0.2,0.6,0.2c3.7,0,7.5,0,11.2,0
		c0.4,0,0.9-0.5,1.1-0.9c1.1-2.5,2.2-5,3.2-7.5c1-2.3,1.9-4.6,2.9-7C19.5,5.6,19.3,5.5,19.1,5.5z M58.3,26.2
		c0.1,3.4,2.6,6.1,6.1,6.5c3.3,0.3,6.3-1.9,7-5.2c0.3-1.3,0.1-2.6,0.2-3.9c0.1-0.9-0.3-1.1-1.1-1.1c-3.2,0-6.5,0-9.7,0
		c-2.4,0-2.4,0-2.4,2.4C58.3,25.3,58.3,25.8,58.3,26.2z M15.6,22.5c-0.7,0-1.1,0.2-1,1c0,1,0,2,0,3c0.3,3.6,3.1,6.2,6.7,6.2
		c3.5,0,6.3-2.6,6.5-6.2c0.1-1,0-2,0-3c0-0.7-0.3-1-1-1c-1.9,0-3.7,0-5.6,0C19.4,22.5,17.5,22.5,15.6,22.5z M79.6,22.5
		c-1.9,0-3.8,0-5.7,0c-0.7,0-1,0.3-1,0.9c0,0.9,0,1.8,0,2.7c0.1,3,2,5.5,4.8,6.2c3,0.8,5.8-0.3,7.5-2.8c1.3-2,1.2-4.2,1.1-6.4
		c0-0.2-0.6-0.6-0.9-0.6C83.5,22.5,81.5,22.5,79.6,22.5C79.6,22.5,79.6,22.5,79.6,22.5z M50.4,22.5c-1.9,0-3.7,0-5.6,0
		c-0.5,0-1,0-1,0.8c0,1.2-0.1,2.5,0.1,3.7c0.4,3.2,2.8,5.4,6,5.7c2.8,0.2,5.8-1.6,6.6-4.4c0.4-1.5,0.3-3.2,0.4-4.9
		c0.1-0.7-0.3-0.9-1-0.9C54.1,22.5,52.2,22.5,50.4,22.5C50.4,22.5,50.4,22.5,50.4,22.5z M29.3,26.5c0.2,3.1,2.2,5.4,5.3,6
		c2.9,0.6,5.8-0.8,7.1-3.5c0.8-1.5,0.7-3.2,0.7-4.8c0-1.7,0-1.7-1.7-1.7c-3,0-5.9,0-8.9,0c-2.5,0-2.5,0-2.5,2.5
		C29.3,25.5,29.3,26,29.3,26.5z M13.2,23.4c0-0.6-0.2-0.9-0.8-0.9c-3.9,0-7.8,0-11.7,0c-0.2,0-0.7,0.4-0.7,0.7
		c-0.1,1.2-0.1,2.5,0,3.7c0.5,4.2,4.8,6.8,8.8,5.3c2.9-1.1,4.4-3.5,4.4-7.2C13.2,24.5,13.2,23.9,13.2,23.4z"/>
</g>
</svg>
