<?xml version="1.0" encoding="utf-8"?>
<!-- Generator: Adobe Illustrator 19.0.0, SVG Export Plug-In . SVG Version: 6.00 Build 0)  -->
<svg version="1.1" id="Ebene_1" xmlns="http://www.w3.org/2000/svg" xmlns:xlink="http://www.w3.org/1999/xlink" x="0px" y="0px"
	 viewBox="0 0 215.4 208.2" style="enable-background:new 0 0 215.4 208.2;" xml:space="preserve">
<style type="text/css">
	.st0{display:none;}
	.st1{display:inline;}
</style>
<g id="XMLID_1_" class="st0">
	<path id="XMLID_25_" class="st1" d="M150.1,0.4c-3.1,3-5.3,5.4-7.8,7.3c-1,0.8-2.9,0.6-4.3,0.6c-13.2,0-26.3,0-39.5,0
		c-28.2,0-56.3,0-84.5,0c-1,0-2,0-3,0c-1.8,0-2.8,0.9-2.9,2.8c0,1.2,0,2.4,0,3.6c0,59.5,0,119.1,0,178.6c0,0.7,0,1.4,0,2.1
		c0.1,4.1,0.4,4.3,4.3,4.4c2.7,0.1,5.3,0,8,0c60.3,0,120.7,0,181,0c1.6,0,3.3,0,4.8,0c1.4-3.9,1.9-183,0.6-191.1
		c-8.9-0.9-18-0.3-27.1-0.4c-9-0.1-18,0-27,0C154.1,3.7,158.8,0,163,0c15,0,30,0,45,0c6.6,0,7.3,0.9,7.3,7.9c0,64,0,128,0,192.1
		c0,1.2,0,2.4,0,3.6c-0.1,2.7-1.6,4.1-4,4.5c-1.3,0.2-2.7,0.1-4,0.1c-65.7,0-131.3,0-197,0c-0.7,0-1.3,0-2,0c-7.7,0-8.3-0.6-8.3-8.5
		c0-55.2,0-110.5,0-165.7c0-8.8,0-17.6-0.1-26.3C0,1.1,0.9,0,7.1,0c46.2,0,92.3,0,138.5,0C146.8,0,148.1,0.2,150.1,0.4z"/>
	<path id="XMLID_22_" class="st1" d="M102.1,104.8c0,24.9,0,49.9,0,74.8c0,7.4-0.6,8.1-7.6,8.1c-22.5,0-45,0-67.5,0
		c-6.4,0-7.2-0.8-7.2-7.5c0-48.2,0-96.3,0-144.5c0-3.3-0.2-6.5-0.1-9.8c0.1-3.9,1.4-5.2,5.1-5.5c0.8-0.1,1.7,0,2.5,0
		c22.5,0,45,0,67.5,0c6.2,0,7.2,1.1,7.2,7.5C102.1,53.5,102.1,79.1,102.1,104.8z M94.1,104.2c0-23.1,0-46.1,0-69.2
		c0-6.4,0-6.4-6-6.4c-17.3,0-34.7,0-52,0c-8.8,0-8.3-1.2-8.3,8.7c-0.1,45.4-0.1,90.8,0,136.3c0,5.7,0.2,5.8,5.6,5.9
		c18.3,0,36.7,0,55,0c5.7,0,5.8-0.1,5.8-6.1C94.1,150.3,94.1,127.2,94.1,104.2z"/>
	<path id="XMLID_21_" class="st1" d="M121.5,179.2c2.1,0.1,3.6,0.3,5.1,0.3c18.5,0,37,0,55.5,0c5.4,0,5.5-0.2,5.5-5.9
		c0-46.3,0-92.6,0-138.9c0-5.9-0.1-6-5.9-6c-18.3,0-36.7,0-55,0c-1.6,0-3.2,0.2-5.4,0.4c0,2.3,0,4.1,0,6c0,12.4,0,24.8,0,37.2
		c0,1,0,2.1,0,3.1c-0.1,2.6-1.3,4.3-3.8,4.6c-2.2,0.3-4.1-1.8-4.1-4.8c-0.1-6.7-0.1-13.4-0.1-20.1c0-9.3-0.1-18.6,0-27.9
		c0-5.4,1.2-6.8,6.5-6.8c23,0,46,0,69,0c5.7,0,6.9,1.3,6.9,7.5c0,46.6,0,93.3,0,139.9c0,4.5,0.1,9,0,13.4c-0.1,5.3-1.2,6.5-6.1,6.5
		c-23.3,0-46.7,0-70,0c-5,0-6.2-1.2-6.2-6.5c-0.1-18.4,0-36.8,0-55.2c0-0.7,0-1.4,0.1-2.1c0.4-2.3,1.5-3.9,3.9-3.9
		c2.3,0,3.6,1.6,3.9,3.9c0.2,1.4,0.1,2.7,0.1,4.1c0,15,0,29.9,0,44.9C121.3,174.8,121.4,176.6,121.5,179.2z"/>
	<path id="XMLID_20_" class="st1" d="M115.8,101.3c6.4,0,11.8,0,17.3,0c1.5,0,3.2-0.3,4.4,0.4c1.3,0.7,2.7,2.4,2.7,3.6
		c0,1.3-1.5,2.8-2.6,3.8c-0.6,0.6-1.9,0.4-2.9,0.4c-7,0-14,0.1-21,0c-4.7,0-5.9-1.3-6-6.1c-0.1-3.4-0.1-6.9,0.1-10.3
		c0.1-2.4,1.1-4.4,3.8-4.6c2.2-0.2,4,1.7,4.2,4.7C115.9,95.6,115.8,98,115.8,101.3z"/>
</g>
<g id="XMLID_2_" class="st0">
	<path id="XMLID_33_" class="st1" d="M170.1,29c-19.2,0-37.7,0-56.6,0c0,40,0,79.7,0,119.3c0.4,0.1,0.7,0.2,1.1,0.3
		c0.7-1.8,1.5-3.5,2-5.3c7.4-26.1,14.7-52.3,22-78.4c1.1-3.8,2.2-7.6,3.2-11.5c1.3-5.1,2.6-6.2,8-6.2c19.7,0,39.3,0,59,0
		c6.2,0,7.5,1.7,5.9,7.7c-7.8,27.9-15.7,55.8-23.6,83.6c-3.9,13.9-7.9,27.9-11.8,41.8c-1.9,7-2.3,7.3-9.6,7.3c-19,0-38,0-57,0
		c-6.6,0-7.4-0.8-7.4-7.6c0-50.8,0-101.6,0-152.4c0-6.3,0.9-7.2,7.3-7.2c19.7,0,39.3,0,59,0c5.5,0,6.4,1,6.5,6.3
		c0,3.2,0,6.3-0.1,9.5c-0.1,2.2-1.2,3.9-3.6,4c-2.6,0.1-4-1.5-4.2-4C170,34.1,170.1,31.8,170.1,29z M171.2,179.2
		c11.6-41.1,23.1-82,34.7-123.1c-1.3-0.4-1.9-0.8-2.5-0.8c-16.8,0-33.7,0-50.5-0.1c-2.4,0-3.6,1.2-4.2,3.4
		c-2.3,7.6-4.8,15.2-6.9,22.9c-2.5,9-4.8,18-7.2,27c-0.4,1.4-0.4,2.8-0.7,4.6c3,0,5.4,0,8.1,0c0.9-3,1.8-5.9,2.7-8.7
		c0.8-2.7,1.4-5.5,2.3-8.2c0.8-2.6,2.2-4.8,5.3-3.9c3.2,1,2.9,3.6,2.4,6.2c-0.1,0.3-0.1,0.7-0.2,1c-1.6,5.6-3.2,11.2-4.9,16.8
		c-1.4,4.6-2.1,5.1-7.1,5.1c-3.8,0-7.5,0-11.5,0c-5.5,19.5-10.8,38.4-16.3,57.8C133.8,179.2,152.1,179.2,171.2,179.2z"/>
	<path id="XMLID_32_" class="st1" d="M9.1,200c60.3,0,120.4,0,181,0c0.1-2,0.4-3.7,0.4-5.5c0-10.3,0-20.7,0-31c0-1.3,0-2.7,0.2-4
		c0.5-2.2,2.1-3.8,4.3-3.2c1.4,0.4,2.6,2.2,3.4,3.6c0.5,1.1,0.2,2.6,0.2,3.9c0,12,0,24,0,36c0,7.8-0.5,8.3-8.2,8.3
		c-59.2,0-118.3,0-177.5,0c-2.7,0-5.3,0.1-8,0c-3.2-0.1-4.9-1.7-4.9-5.1c0-2.8,0-5.7,0-8.5c0-62.2,0-124.3,0-186.5
		C0.1,0.6,0.7,0,8.5,0c60.5,0,121,0,181.5,0c1.3,0,2.7,0,4,0.1c2.9,0.2,4.7,1.7,4.7,4.7c0,10,0,20,0,30c0,2.7-1.2,4.8-4,4.7
		c-2.8,0-4-2.2-4.1-4.8c-0.1-7,0-14-0.1-21c0-1.6-0.1-3.3-0.2-5.3c-60.6,0-120.8,0-181,0C7.9,12.1,7.6,194.4,9.1,200z"/>
	<path id="XMLID_29_" class="st1" d="M20.7,103.7c0-25.3,0-50.6,0-75.9c0-6.3,0.9-7.2,7.2-7.2c19.5,0,39,0,58.4,0
		c6.2,0,7.2,1,7.2,7.3c0,51,0,101.9,0,152.9c0,5.8-1.1,7-7.1,7c-19.6,0-39.3,0-58.9,0c-5.9,0-6.8-1-6.8-7.1
		C20.7,154.9,20.7,129.3,20.7,103.7z M85.1,179.2c0-50.4,0-100.2,0-149.8c-5.8-1.4-52.3-1.1-56,0.4c0,49.6,0,99.3,0,149.4
		C47.9,179.2,66.3,179.2,85.1,179.2z"/>
</g>
<g id="XMLID_3_">
	<path id="XMLID_43_" d="M215.3,104.2c0,26.8,0,53.6,0,80.5c0,0.3,0,0.7,0,1c-0.1,5.8-2,7.3-7.4,5.6c-3.5-1.1-7-2.2-10.5-3.3
		c-11.9-3.8-23.8-7.6-35.7-11.3c-2.8-0.9-5.9-1.4-8.8-1.4c-30.3-0.1-60.6-0.1-91,0c-2.8,0-5.7,0.5-8.3,1.3
		c-15.1,4.7-30.2,9.5-45.3,14.3c-6.6,2.1-8.3,1-8.3-5.8c0-54,0-108,0-161.9c0-0.8,0-1.7,0.1-2.5c0.4-4,2.2-5.3,6.1-4.3
		c3.5,0.9,7,2.1,10.5,3.2c11.7,3.7,23.5,7.6,35.3,11.1c3.6,1.1,7.5,1.7,11.2,1.7c25.8,0.1,51.6-0.2,77.5,0.2
		c11.7,0.2,22.8-1.3,33.8-5.2c10.7-3.8,21.6-6.9,32.4-10.3c7-2.2,8.6-1.1,8.6,6.5C215.4,50.6,215.3,77.4,215.3,104.2z M154.3,104.2
		c0-19.3,0-38.7,0-58c0-5.6-0.1-5.7-5.5-5.7c-27.3,0-54.6,0-82,0c-5.6,0-5.7,0.2-5.7,6c0,27,0,53.9,0,80.9c0,11.3,0,22.7,0,34
		c0,5.9,0.1,6,5.7,6c27.3,0,54.6,0,82,0c5.4,0,5.5-0.1,5.5-5.6C154.3,142.6,154.3,123.4,154.3,104.2z M52.6,99.6
		c0.2-1.4,0.5-2.3,0.5-3.1c0-17.7,0-35.3,0.1-53c0-3.1-1.4-4.4-4.1-5.3c-12.3-3.8-24.5-7.7-36.7-11.5c-1.2-0.4-2.4-0.3-3.6-0.5
		c-1.2,6.2-1,69.6,0.3,73.3C23.4,99.6,37.8,99.6,52.6,99.6z M207,26.2c-1.4,0.1-2.1,0-2.7,0.2c-12.9,4-25.7,8.1-38.6,12.1
		c-3,0.9-3.6,2.9-3.5,5.7c0.1,17,0,34,0,51c0,4.4,0.4,4.8,4.9,4.8c11.7,0,23.3,0,35,0c5.2,0,5.2-0.1,5.2-5.4c0-21.2,0-42.3,0-63.5
		C207.3,29.6,207.1,28.2,207,26.2z M206.4,182.3c1.4-5.9,1.1-70.3-0.1-73.8c-0.4-0.1-0.9-0.4-1.4-0.4c-13,0-26,0-38.9-0.1
		c-3.3,0-3.8,1.8-3.8,4.5c0,17.3,0.1,34.6,0,51.9c0,3,1.1,4.5,4,5.3c7,2.1,14,4.4,20.9,6.6C193.4,178.3,199.7,180.2,206.4,182.3z
		 M52.8,108.6c-1.2-0.2-1.8-0.5-2.5-0.5c-12.8,0-25.6-0.1-38.4-0.1c-3.6,0-3.9,0.5-3.9,4.7c0,21.6,0,43.3,0,64.9
		c0,1.4,0.4,2.7,0.6,4.4c1.6-0.3,2.6-0.4,3.5-0.7c12.1-3.8,24.1-7.6,36.2-11.4c4.8-1.5,4.8-1.6,4.9-6.6c0-16.6,0-33.3,0-49.9
		C53.1,111.9,52.9,110.4,52.8,108.6z"/>
	<path id="XMLID_42_" d="M107.6,192.3c-19.5,0-39,0-58.5,0c-1.5,0-3.3,0.4-4.4-0.3c-1.4-0.8-2.9-2.4-3-3.8c-0.1-1,1.6-2.7,2.9-3.4
		c1-0.6,2.6-0.4,3.9-0.4c39.5,0,78.9,0,118.4,0c1.5,0,3.2-0.1,4.4,0.6c1.1,0.6,2.4,2.3,2.3,3.3c-0.1,1.3-1.4,3-2.6,3.6
		c-1.4,0.7-3.3,0.4-4.9,0.4C146.5,192.3,127.1,192.3,107.6,192.3C107.6,192.3,107.6,192.3,107.6,192.3z"/>
	<path id="XMLID_41_" d="M107.8,15.8c19.5,0,39,0,58.5,0c1.2,0,2.3,0,3.5,0.1c2.2,0.2,3.8,1.3,4,3.7c0.2,2.7-1.7,3.8-4,4.2
		c-0.8,0.1-1.7,0.1-2.5,0.1c-39.7,0-79.3,0-119,0c-4.5,0-6.9-1.5-6.8-4.1c0-2.7,2.2-4,6.8-4C68.1,15.8,87.9,15.8,107.8,15.8z"/>
</g>
</svg>
